<svg xmlns="http://www.w3.org/2000/svg" xmlns:xlink="http://www.w3.org/1999/xlink" width="300" zoomAndPan="magnify" viewBox="0 0 224.87999 112.499997" height="150" preserveAspectRatio="xMidYMid meet" version="1.0"><defs><g/><clipPath id="794d2a80fd"><path d="M 206 41 L 224.324219 41 L 224.324219 82 L 206 82 Z M 206 41 " clip-rule="nonzero"/></clipPath><clipPath id="63cd08998a"><path d="M 204 39 L 224.324219 39 L 224.324219 81 L 204 81 Z M 204 39 " clip-rule="nonzero"/></clipPath></defs><g fill="#ffde59" fill-opacity="0.4"><g transform="translate(10.032946, 64.312905)"><g><path d="M 26.921875 -6.3125 C 27.015625 -6.1875 27.046875 -6.050781 27.015625 -5.90625 C 26.992188 -5.769531 26.921875 -5.65625 26.796875 -5.5625 C 23.941406 -3.53125 21.335938 -1.601562 18.984375 0.21875 C 19.222656 0.96875 19.253906 1.796875 19.078125 2.703125 C 18.773438 4.265625 18.242188 5.71875 17.484375 7.0625 C 16.722656 8.414062 15.832031 9.648438 14.8125 10.765625 C 13.789062 11.878906 12.722656 12.832031 11.609375 13.625 C 10.503906 14.425781 9.445312 15.050781 8.4375 15.5 C 7.425781 15.945312 6.550781 16.203125 5.8125 16.265625 C 5.707031 16.285156 5.609375 16.296875 5.515625 16.296875 C 4.941406 16.296875 4.535156 16.175781 4.296875 15.9375 C 4.054688 15.707031 3.898438 15.492188 3.828125 15.296875 C 3.410156 14.140625 4.398438 12.234375 6.796875 9.578125 C 9.191406 6.921875 12.820312 3.691406 17.6875 -0.109375 C 17.082031 -1.191406 15.863281 -2.191406 14.03125 -3.109375 C 12.207031 -4.035156 9.789062 -5.101562 6.78125 -6.3125 C 6.425781 -6.457031 6.066406 -6.601562 5.703125 -6.75 C 5.335938 -6.894531 4.960938 -7.050781 4.578125 -7.21875 C 3.253906 -7.769531 2.332031 -8.515625 1.8125 -9.453125 C 1.300781 -10.390625 1.238281 -11.460938 1.625 -12.671875 C 1.914062 -13.609375 2.425781 -14.5625 3.15625 -15.53125 C 3.894531 -16.507812 4.789062 -17.484375 5.84375 -18.453125 C 6.894531 -19.421875 8.035156 -20.335938 9.265625 -21.203125 C 10.492188 -22.078125 11.75 -22.875 13.03125 -23.59375 C 14.320312 -24.3125 15.582031 -24.914062 16.8125 -25.40625 C 18.039062 -25.90625 19.175781 -26.253906 20.21875 -26.453125 C 21.257812 -26.660156 22.132812 -26.679688 22.84375 -26.515625 C 23.144531 -26.441406 23.472656 -26.300781 23.828125 -26.09375 C 24.179688 -25.894531 24.460938 -25.570312 24.671875 -25.125 C 24.890625 -24.675781 24.953125 -24.054688 24.859375 -23.265625 C 24.828125 -23.117188 24.753906 -23.003906 24.640625 -22.921875 C 24.523438 -22.835938 24.394531 -22.804688 24.25 -22.828125 C 24.101562 -22.835938 23.984375 -22.898438 23.890625 -23.015625 C 23.804688 -23.140625 23.769531 -23.273438 23.78125 -23.421875 C 23.894531 -24.191406 23.8125 -24.707031 23.53125 -24.96875 C 23.257812 -25.226562 22.957031 -25.394531 22.625 -25.46875 C 21.925781 -25.632812 21.003906 -25.578125 19.859375 -25.296875 C 18.710938 -25.023438 17.429688 -24.5625 16.015625 -23.90625 C 14.597656 -23.257812 13.144531 -22.457031 11.65625 -21.5 C 10.070312 -20.507812 8.648438 -19.472656 7.390625 -18.390625 C 6.140625 -17.316406 5.101562 -16.265625 4.28125 -15.234375 C 3.46875 -14.210938 2.921875 -13.257812 2.640625 -12.375 C 2.035156 -10.476562 2.816406 -9.082031 4.984375 -8.1875 C 5.367188 -8.039062 5.738281 -7.894531 6.09375 -7.75 C 6.457031 -7.601562 6.820312 -7.453125 7.1875 -7.296875 C 9.050781 -6.546875 10.738281 -5.832031 12.25 -5.15625 C 13.769531 -4.488281 15.066406 -3.804688 16.140625 -3.109375 C 17.210938 -2.410156 18.015625 -1.628906 18.546875 -0.765625 C 20.859375 -2.566406 23.40625 -4.453125 26.1875 -6.421875 C 26.3125 -6.515625 26.441406 -6.546875 26.578125 -6.515625 C 26.722656 -6.492188 26.835938 -6.425781 26.921875 -6.3125 Z M 18.046875 2.484375 C 18.160156 1.929688 18.171875 1.414062 18.078125 0.9375 C 14.160156 4.007812 11.054688 6.710938 8.765625 9.046875 C 7.421875 10.421875 6.390625 11.644531 5.671875 12.71875 C 4.960938 13.789062 4.679688 14.53125 4.828125 14.9375 C 4.878906 15.082031 5.003906 15.164062 5.203125 15.1875 C 5.410156 15.21875 5.585938 15.226562 5.734375 15.21875 C 6.335938 15.175781 7.097656 14.941406 8.015625 14.515625 C 8.941406 14.097656 9.914062 13.515625 10.9375 12.765625 C 11.96875 12.023438 12.96875 11.140625 13.9375 10.109375 C 14.914062 9.085938 15.769531 7.929688 16.5 6.640625 C 17.238281 5.359375 17.753906 3.972656 18.046875 2.484375 Z M 18.046875 2.484375 "/></g></g></g><g fill="#ffde59" fill-opacity="0.4"><g transform="translate(35.881604, 64.312905)"><g><path d="M 15.546875 -6.171875 C 15.648438 -6.078125 15.707031 -5.957031 15.71875 -5.8125 C 15.726562 -5.664062 15.6875 -5.539062 15.59375 -5.4375 C 13.257812 -2.695312 11.414062 -1.582031 10.0625 -2.09375 C 9.082031 -2.457031 8.554688 -3.625 8.484375 -5.59375 C 8.285156 -5.226562 8.070312 -4.8125 7.84375 -4.34375 C 7.613281 -3.875 7.425781 -3.492188 7.28125 -3.203125 C 7.164062 -2.921875 7.050781 -2.671875 6.9375 -2.453125 C 6.832031 -2.234375 6.734375 -2.050781 6.640625 -1.90625 C 6.585938 -1.789062 6.488281 -1.628906 6.34375 -1.421875 C 6.207031 -1.210938 6.035156 -1.03125 5.828125 -0.875 C 5.617188 -0.71875 5.375 -0.675781 5.09375 -0.75 C 4.769531 -0.832031 4.523438 -1.070312 4.359375 -1.46875 C 4.191406 -1.863281 4.085938 -2.296875 4.046875 -2.765625 C 4.015625 -3.234375 4 -3.613281 4 -3.90625 C 4 -4.144531 4 -4.375 4 -4.59375 C 4 -4.820312 4.007812 -5.023438 4.03125 -5.203125 C 3.382812 -4.285156 2.765625 -3.332031 2.171875 -2.34375 C 1.585938 -1.363281 0.960938 -0.242188 0.296875 1.015625 C 0.078125 1.441406 -0.15625 1.65625 -0.40625 1.65625 C -0.5 1.65625 -0.582031 1.628906 -0.65625 1.578125 C -0.75 1.535156 -0.832031 1.472656 -0.90625 1.390625 C -0.976562 1.304688 -1.019531 1.140625 -1.03125 0.890625 C -1.039062 0.648438 -1.003906 0.273438 -0.921875 -0.234375 C -0.835938 -0.753906 -0.675781 -1.472656 -0.4375 -2.390625 C -0.164062 -3.515625 0.15625 -4.628906 0.53125 -5.734375 C 0.914062 -6.835938 1.300781 -7.828125 1.6875 -8.703125 C 1.738281 -8.859375 1.832031 -8.960938 1.96875 -9.015625 C 2.101562 -9.066406 2.238281 -9.054688 2.375 -8.984375 C 2.519531 -8.929688 2.613281 -8.832031 2.65625 -8.6875 C 2.707031 -8.550781 2.703125 -8.421875 2.640625 -8.296875 C 2.148438 -7.140625 1.707031 -5.929688 1.3125 -4.671875 C 0.914062 -3.410156 0.609375 -2.3125 0.390625 -1.375 C 0.953125 -2.382812 1.507812 -3.328125 2.0625 -4.203125 C 2.613281 -5.078125 3.191406 -5.925781 3.796875 -6.75 C 3.859375 -6.820312 3.957031 -6.921875 4.09375 -7.046875 C 4.226562 -7.179688 4.414062 -7.210938 4.65625 -7.140625 C 4.894531 -7.046875 5.023438 -6.867188 5.046875 -6.609375 C 5.078125 -6.359375 5.085938 -5.925781 5.078125 -5.3125 C 5.078125 -5.113281 5.070312 -4.894531 5.0625 -4.65625 C 5.050781 -4.414062 5.046875 -4.164062 5.046875 -3.90625 C 5.046875 -3.363281 5.082031 -2.914062 5.15625 -2.5625 C 5.226562 -2.21875 5.289062 -1.976562 5.34375 -1.84375 C 5.382812 -1.882812 5.4375 -1.945312 5.5 -2.03125 C 5.5625 -2.125 5.640625 -2.242188 5.734375 -2.390625 C 5.804688 -2.523438 5.890625 -2.703125 5.984375 -2.921875 C 6.085938 -3.140625 6.207031 -3.378906 6.34375 -3.640625 C 6.820312 -4.671875 7.210938 -5.457031 7.515625 -6 C 7.816406 -6.550781 8.078125 -6.925781 8.296875 -7.125 C 8.515625 -7.332031 8.742188 -7.410156 8.984375 -7.359375 C 9.273438 -7.285156 9.441406 -7.101562 9.484375 -6.8125 C 9.535156 -6.53125 9.5625 -6.304688 9.5625 -6.140625 C 9.539062 -5.273438 9.609375 -4.578125 9.765625 -4.046875 C 9.921875 -3.515625 10.148438 -3.195312 10.453125 -3.09375 C 10.773438 -2.957031 11.300781 -3.097656 12.03125 -3.515625 C 12.757812 -3.941406 13.679688 -4.8125 14.796875 -6.125 C 14.890625 -6.226562 15.007812 -6.285156 15.15625 -6.296875 C 15.300781 -6.304688 15.429688 -6.265625 15.546875 -6.171875 Z M 15.546875 -6.171875 "/></g></g></g><g fill="#ffde59" fill-opacity="0.4"><g transform="translate(50.238904, 64.312905)"><g><path d="M 8.078125 -6.28125 C 8.203125 -6.207031 8.273438 -6.097656 8.296875 -5.953125 C 8.328125 -5.804688 8.304688 -5.671875 8.234375 -5.546875 C 7.890625 -4.992188 7.453125 -4.375 6.921875 -3.6875 C 6.390625 -3.007812 5.8125 -2.363281 5.1875 -1.75 C 4.5625 -1.132812 3.9375 -0.625 3.3125 -0.21875 C 2.695312 0.1875 2.132812 0.390625 1.625 0.390625 C 1.40625 0.390625 1.210938 0.351562 1.046875 0.28125 C 0.421875 0 0.078125 -0.664062 0.015625 -1.71875 C -0.046875 -2.78125 0.164062 -4.273438 0.65625 -6.203125 C 0.695312 -6.347656 0.78125 -6.457031 0.90625 -6.53125 C 1.039062 -6.601562 1.171875 -6.625 1.296875 -6.59375 C 1.441406 -6.550781 1.550781 -6.460938 1.625 -6.328125 C 1.695312 -6.203125 1.71875 -6.078125 1.6875 -5.953125 C 1.382812 -4.773438 1.195312 -3.84375 1.125 -3.15625 C 1.050781 -2.46875 1.035156 -1.945312 1.078125 -1.59375 C 1.128906 -1.25 1.203125 -1.015625 1.296875 -0.890625 C 1.390625 -0.773438 1.441406 -0.71875 1.453125 -0.71875 C 1.691406 -0.601562 2.039062 -0.675781 2.5 -0.9375 C 2.96875 -1.207031 3.484375 -1.601562 4.046875 -2.125 C 4.617188 -2.65625 5.191406 -3.265625 5.765625 -3.953125 C 6.347656 -4.640625 6.867188 -5.363281 7.328125 -6.125 C 7.421875 -6.25 7.535156 -6.320312 7.671875 -6.34375 C 7.816406 -6.375 7.953125 -6.351562 8.078125 -6.28125 Z M 1.578125 -8.484375 C 1.203125 -8.503906 1.007812 -8.609375 1 -8.796875 C 1 -8.992188 1.082031 -9.191406 1.25 -9.390625 C 1.425781 -9.597656 1.609375 -9.738281 1.796875 -9.8125 C 2.085938 -9.90625 2.300781 -9.882812 2.4375 -9.75 C 2.570312 -9.625 2.632812 -9.457031 2.625 -9.25 C 2.625 -9.050781 2.535156 -8.867188 2.359375 -8.703125 C 2.179688 -8.546875 1.921875 -8.472656 1.578125 -8.484375 Z M 1.578125 -8.484375 "/></g></g></g><g fill="#ffde59" fill-opacity="0.4"><g transform="translate(57.210878, 64.312905)"><g><path d="M 8.109375 -25.828125 C 8.347656 -25.472656 8.347656 -24.765625 8.109375 -23.703125 C 7.878906 -22.640625 7.40625 -21.320312 6.6875 -19.75 C 5.976562 -18.175781 5.023438 -16.4375 3.828125 -14.53125 C 3.804688 -14.507812 3.789062 -14.488281 3.78125 -14.46875 C 3.300781 -12.519531 2.828125 -10.535156 2.359375 -8.515625 C 1.890625 -6.492188 1.441406 -4.507812 1.015625 -2.5625 C 0.597656 -0.613281 0.21875 1.21875 -0.125 2.9375 C -0.476562 4.65625 -0.78125 6.179688 -1.03125 7.515625 C -1.28125 8.859375 -1.460938 9.9375 -1.578125 10.75 C -1.554688 10.75 -1.535156 10.75 -1.515625 10.75 C -1.367188 10.800781 -1.265625 10.890625 -1.203125 11.015625 C -1.140625 11.148438 -1.132812 11.289062 -1.1875 11.4375 C -1.3125 11.789062 -1.441406 12.109375 -1.578125 12.390625 C -1.722656 12.671875 -1.914062 12.8125 -2.15625 12.8125 C -2.207031 12.8125 -2.269531 12.800781 -2.34375 12.78125 C -2.507812 12.726562 -2.628906 12.613281 -2.703125 12.4375 C -2.773438 12.269531 -2.78125 11.921875 -2.71875 11.390625 C -2.664062 10.867188 -2.550781 10.066406 -2.375 8.984375 C -2.039062 7.003906 -1.539062 4.414062 -0.875 1.21875 C -0.40625 -1.03125 0.0859375 -3.316406 0.609375 -5.640625 C 1.140625 -7.960938 1.660156 -10.203125 2.171875 -12.359375 C 2.691406 -14.515625 3.191406 -16.476562 3.671875 -18.25 C 3.753906 -18.59375 3.890625 -19.078125 4.078125 -19.703125 C 4.265625 -20.328125 4.476562 -21 4.71875 -21.71875 C 4.957031 -22.4375 5.222656 -23.125 5.515625 -23.78125 C 5.804688 -24.445312 6.109375 -24.992188 6.421875 -25.421875 C 6.734375 -25.859375 7.046875 -26.101562 7.359375 -26.15625 C 7.671875 -26.207031 7.921875 -26.097656 8.109375 -25.828125 Z M 4.734375 -18.15625 C 5.617188 -19.8125 6.238281 -21.191406 6.59375 -22.296875 C 6.957031 -23.398438 7.164062 -24.203125 7.21875 -24.703125 C 6.957031 -24.328125 6.609375 -23.628906 6.171875 -22.609375 C 5.734375 -21.585938 5.253906 -20.101562 4.734375 -18.15625 Z M 4.734375 -18.15625 "/></g></g></g><g fill="#ffde59" fill-opacity="0.4"><g transform="translate(61.399578, 64.312905)"><g><path d="M 9.3125 -6.140625 C 9.445312 -6.066406 9.519531 -5.957031 9.53125 -5.8125 C 9.550781 -5.664062 9.523438 -5.539062 9.453125 -5.4375 C 8.367188 -3.925781 7.375 -2.675781 6.46875 -1.6875 C 5.570312 -0.707031 4.675781 0.101562 3.78125 0.75 C 3.09375 1.21875 2.421875 1.453125 1.765625 1.453125 C 1.253906 1.453125 0.800781 1.316406 0.40625 1.046875 C 0.15625 0.859375 -0.09375 0.53125 -0.34375 0.0625 C -0.59375 -0.40625 -0.722656 -1.082031 -0.734375 -1.96875 C -0.753906 -2.863281 -0.535156 -4.035156 -0.078125 -5.484375 C -0.078125 -5.484375 -0.078125 -5.492188 -0.078125 -5.515625 C 0.472656 -7.273438 1.117188 -8.617188 1.859375 -9.546875 C 2.609375 -10.472656 3.25 -10.945312 3.78125 -10.96875 C 4.195312 -10.988281 4.472656 -10.804688 4.609375 -10.421875 C 4.804688 -9.890625 4.5625 -9.128906 3.875 -8.140625 C 3.195312 -7.160156 2.195312 -6.117188 0.875 -5.015625 C 0.476562 -3.734375 0.285156 -2.726562 0.296875 -2 C 0.316406 -1.269531 0.414062 -0.742188 0.59375 -0.421875 C 0.78125 -0.0976562 0.929688 0.101562 1.046875 0.1875 C 1.597656 0.59375 2.304688 0.484375 3.171875 -0.140625 C 4.015625 -0.722656 4.867188 -1.488281 5.734375 -2.4375 C 6.597656 -3.382812 7.546875 -4.582031 8.578125 -6.03125 C 8.660156 -6.144531 8.773438 -6.210938 8.921875 -6.234375 C 9.078125 -6.265625 9.207031 -6.234375 9.3125 -6.140625 Z M 3.578125 -9.8125 C 3.378906 -9.6875 3.101562 -9.414062 2.75 -9 C 2.40625 -8.582031 2.050781 -7.976562 1.6875 -7.1875 C 2.34375 -7.832031 2.804688 -8.378906 3.078125 -8.828125 C 3.359375 -9.285156 3.523438 -9.613281 3.578125 -9.8125 Z M 3.578125 -9.8125 "/></g></g></g><g fill="#ffde59" fill-opacity="0.4"><g transform="translate(69.418724, 64.312905)"><g><path d="M 13.484375 -6.0625 C 13.566406 -5.945312 13.585938 -5.816406 13.546875 -5.671875 C 13.515625 -5.523438 13.445312 -5.414062 13.34375 -5.34375 C 12 -4.46875 10.648438 -3.519531 9.296875 -2.5 C 7.953125 -1.476562 6.632812 -0.320312 5.34375 0.96875 C 4.257812 7.445312 3.078125 12.710938 1.796875 16.765625 C 1.515625 17.585938 1.210938 18.425781 0.890625 19.28125 C 0.566406 20.132812 0.21875 20.929688 -0.15625 21.671875 C -0.53125 22.421875 -0.925781 23.046875 -1.34375 23.546875 C -1.769531 24.054688 -2.203125 24.375 -2.640625 24.5 C -2.773438 24.539062 -2.914062 24.5625 -3.0625 24.5625 C -3.476562 24.5625 -3.84375 24.375 -4.15625 24 C -4.539062 23.507812 -4.789062 22.757812 -4.90625 21.75 C -5.03125 20.738281 -5.007812 19.550781 -4.84375 18.1875 C -4.6875 16.832031 -4.375 15.390625 -3.90625 13.859375 C -3.4375 12.335938 -2.804688 10.820312 -2.015625 9.3125 C -1.054688 7.5 -0.0390625 5.863281 1.03125 4.40625 C 2.101562 2.957031 3.21875 1.632812 4.375 0.4375 C 4.65625 -1.289062 4.929688 -3.097656 5.203125 -4.984375 C 4.960938 -4.617188 4.707031 -4.25 4.4375 -3.875 C 4.164062 -3.5 3.890625 -3.144531 3.609375 -2.8125 C 3.242188 -2.375 2.90625 -2.085938 2.59375 -1.953125 C 2.28125 -1.828125 2.007812 -1.78125 1.78125 -1.8125 C 1.5625 -1.851562 1.398438 -1.910156 1.296875 -1.984375 C 0.890625 -2.222656 0.613281 -2.648438 0.46875 -3.265625 C 0.320312 -3.878906 0.300781 -4.609375 0.40625 -5.453125 C 0.519531 -6.296875 0.757812 -7.179688 1.125 -8.109375 C 1.1875 -8.234375 1.285156 -8.320312 1.421875 -8.375 C 1.554688 -8.4375 1.6875 -8.4375 1.8125 -8.375 C 1.945312 -8.320312 2.046875 -8.226562 2.109375 -8.09375 C 2.171875 -7.96875 2.175781 -7.832031 2.125 -7.6875 C 1.757812 -6.820312 1.535156 -6.046875 1.453125 -5.359375 C 1.367188 -4.671875 1.367188 -4.109375 1.453125 -3.671875 C 1.546875 -3.242188 1.675781 -2.984375 1.84375 -2.890625 C 2.050781 -2.765625 2.363281 -2.957031 2.78125 -3.46875 C 3.144531 -3.914062 3.507812 -4.40625 3.875 -4.9375 C 4.25 -5.46875 4.585938 -5.972656 4.890625 -6.453125 C 5.191406 -6.941406 5.4375 -7.34375 5.625 -7.65625 C 5.769531 -7.914062 5.976562 -8 6.25 -7.90625 C 6.53125 -7.800781 6.648438 -7.609375 6.609375 -7.328125 C 6.296875 -5.035156 5.976562 -2.859375 5.65625 -0.796875 C 6.8125 -1.878906 7.984375 -2.863281 9.171875 -3.75 C 10.367188 -4.632812 11.566406 -5.460938 12.765625 -6.234375 C 12.867188 -6.304688 12.992188 -6.328125 13.140625 -6.296875 C 13.296875 -6.265625 13.410156 -6.1875 13.484375 -6.0625 Z M 0.765625 16.453125 C 1.941406 12.773438 3.035156 8.082031 4.046875 2.375 C 3.128906 3.394531 2.238281 4.515625 1.375 5.734375 C 0.507812 6.960938 -0.304688 8.320312 -1.078125 9.8125 C -1.898438 11.40625 -2.53125 12.945312 -2.96875 14.4375 C -3.414062 15.925781 -3.695312 17.285156 -3.8125 18.515625 C -3.9375 19.753906 -3.945312 20.789062 -3.84375 21.625 C -3.738281 22.457031 -3.566406 23.019531 -3.328125 23.3125 C -3.242188 23.425781 -3.164062 23.488281 -3.09375 23.5 C -3.03125 23.507812 -2.984375 23.503906 -2.953125 23.484375 C -2.878906 23.460938 -2.738281 23.375 -2.53125 23.21875 C -2.332031 23.0625 -2.066406 22.75 -1.734375 22.28125 C -1.398438 21.8125 -1.019531 21.113281 -0.59375 20.1875 C -0.175781 19.257812 0.273438 18.015625 0.765625 16.453125 Z M 0.765625 16.453125 "/></g></g></g><g fill="#ffde59" fill-opacity="0.4"><g transform="translate(81.62657, 64.312905)"><g/></g></g><g fill="#ffde59" fill-opacity="0.4"><g transform="translate(90.08663, 64.312905)"><g><path d="M 21.328125 -26.515625 C 21.785156 -26.242188 22.238281 -25.863281 22.6875 -25.375 C 23.144531 -24.882812 23.535156 -24.257812 23.859375 -23.5 C 24.191406 -22.738281 24.410156 -21.8125 24.515625 -20.71875 C 24.617188 -19.625 24.566406 -18.332031 24.359375 -16.84375 C 23.847656 -13.351562 22.878906 -9.941406 21.453125 -6.609375 C 20.035156 -3.285156 18.238281 -0.242188 16.0625 2.515625 C 14.832031 4.054688 13.570312 5.398438 12.28125 6.546875 C 11 7.691406 9.757812 8.578125 8.5625 9.203125 C 7.375 9.828125 6.3125 10.140625 5.375 10.140625 C 5.351562 10.140625 5.332031 10.140625 5.3125 10.140625 C 5.082031 10.140625 4.851562 10.113281 4.625 10.0625 C 4.5 10.789062 4.394531 11.457031 4.3125 12.0625 C 4.226562 12.675781 4.171875 13.203125 4.140625 13.640625 C 4.171875 13.546875 4.207031 13.457031 4.25 13.375 C 4.300781 13.21875 4.394531 13.113281 4.53125 13.0625 C 4.664062 13.007812 4.800781 13.007812 4.9375 13.0625 C 5.082031 13.113281 5.179688 13.207031 5.234375 13.34375 C 5.285156 13.488281 5.285156 13.625 5.234375 13.75 C 4.941406 14.46875 4.6875 15 4.46875 15.34375 C 4.25 15.695312 4.007812 15.875 3.75 15.875 C 3.695312 15.875 3.632812 15.859375 3.5625 15.828125 C 3.425781 15.785156 3.3125 15.695312 3.21875 15.5625 C 3.132812 15.425781 3.082031 15.160156 3.0625 14.765625 C 3.039062 14.367188 3.070312 13.757812 3.15625 12.9375 C 3.238281 12.125 3.398438 11.023438 3.640625 9.640625 C 2.890625 9.128906 2.445312 8.285156 2.3125 7.109375 C 2.289062 6.960938 2.328125 6.828125 2.421875 6.703125 C 2.515625 6.585938 2.632812 6.519531 2.78125 6.5 C 2.925781 6.488281 3.050781 6.523438 3.15625 6.609375 C 3.269531 6.703125 3.335938 6.820312 3.359375 6.96875 C 3.429688 7.582031 3.585938 8.050781 3.828125 8.375 C 4.085938 6.90625 4.414062 5.125 4.8125 3.03125 C 5.207031 0.9375 5.6875 -1.535156 6.25 -4.390625 C 6.820312 -7.253906 7.492188 -10.566406 8.265625 -14.328125 C 8.628906 -16.179688 8.976562 -17.9375 9.3125 -19.59375 C 9.644531 -21.25 9.945312 -22.738281 10.21875 -24.0625 C 9.925781 -23.875 9.65625 -23.691406 9.40625 -23.515625 C 8.351562 -22.753906 7.351562 -21.851562 6.40625 -20.8125 C 5.457031 -19.78125 4.644531 -18.613281 3.96875 -17.3125 C 3.289062 -16.019531 2.828125 -14.628906 2.578125 -13.140625 C 2.328125 -11.660156 2.382812 -10.101562 2.75 -8.46875 C 2.769531 -8.3125 2.742188 -8.175781 2.671875 -8.0625 C 2.597656 -7.945312 2.488281 -7.867188 2.34375 -7.828125 C 2.195312 -7.804688 2.0625 -7.832031 1.9375 -7.90625 C 1.820312 -7.976562 1.742188 -8.085938 1.703125 -8.234375 C 1.316406 -10.003906 1.253906 -11.6875 1.515625 -13.28125 C 1.773438 -14.882812 2.265625 -16.375 2.984375 -17.75 C 3.710938 -19.125 4.582031 -20.375 5.59375 -21.5 C 6.601562 -22.625 7.660156 -23.578125 8.765625 -24.359375 C 9.335938 -24.765625 9.90625 -25.132812 10.46875 -25.46875 C 10.613281 -26.238281 10.742188 -26.898438 10.859375 -27.453125 C 10.878906 -27.597656 10.945312 -27.710938 11.0625 -27.796875 C 11.1875 -27.878906 11.320312 -27.898438 11.46875 -27.859375 C 11.613281 -27.847656 11.726562 -27.78125 11.8125 -27.65625 C 11.894531 -27.539062 11.925781 -27.410156 11.90625 -27.265625 C 11.832031 -26.929688 11.757812 -26.535156 11.6875 -26.078125 C 13.488281 -26.941406 15.242188 -27.414062 16.953125 -27.5 C 18.660156 -27.59375 20.117188 -27.265625 21.328125 -26.515625 Z M 23.3125 -16.984375 C 23.613281 -19.128906 23.550781 -20.929688 23.125 -22.390625 C 22.695312 -23.847656 21.914062 -24.929688 20.78125 -25.640625 C 19.644531 -26.316406 18.238281 -26.578125 16.5625 -26.421875 C 14.894531 -26.265625 13.1875 -25.71875 11.4375 -24.78125 C 11.164062 -23.382812 10.84375 -21.773438 10.46875 -19.953125 C 10.101562 -18.140625 9.707031 -16.191406 9.28125 -14.109375 C 8.914062 -12.304688 8.523438 -10.378906 8.109375 -8.328125 C 7.703125 -6.285156 7.296875 -4.222656 6.890625 -2.140625 C 6.484375 -0.0664062 6.097656 1.921875 5.734375 3.828125 C 5.367188 5.742188 5.054688 7.472656 4.796875 9.015625 C 4.960938 9.046875 5.132812 9.070312 5.3125 9.09375 C 5.332031 9.09375 5.351562 9.09375 5.375 9.09375 C 6.050781 9.09375 6.910156 8.832031 7.953125 8.3125 C 8.992188 7.800781 10.132812 7.015625 11.375 5.953125 C 12.625 4.890625 13.90625 3.519531 15.21875 1.84375 C 15.84375 1.070312 16.546875 0.0859375 17.328125 -1.109375 C 18.109375 -2.316406 18.890625 -3.710938 19.671875 -5.296875 C 20.460938 -6.890625 21.1875 -8.664062 21.84375 -10.625 C 22.5 -12.582031 22.988281 -14.703125 23.3125 -16.984375 Z M 23.3125 -16.984375 "/></g></g></g><g fill="#ffde59" fill-opacity="0.4"><g transform="translate(113.53781, 64.312905)"><g><path d="M 11.546875 -6.125 C 11.671875 -6.0625 11.753906 -5.960938 11.796875 -5.828125 C 11.847656 -5.691406 11.847656 -5.5625 11.796875 -5.4375 C 11.441406 -4.71875 11.054688 -4 10.640625 -3.28125 C 10.234375 -2.5625 9.804688 -1.898438 9.359375 -1.296875 C 8.910156 -0.703125 8.445312 -0.226562 7.96875 0.125 C 7.488281 0.476562 7.007812 0.65625 6.53125 0.65625 C 6.4375 0.65625 6.335938 0.648438 6.234375 0.640625 C 4.992188 0.398438 4.226562 -1.253906 3.9375 -4.328125 C 3.625 -3.898438 3.257812 -3.425781 2.84375 -2.90625 C 2.4375 -2.382812 2.003906 -1.863281 1.546875 -1.34375 C 1.472656 -1.269531 1.351562 -1.15625 1.1875 -1 C 1.019531 -0.84375 0.828125 -0.71875 0.609375 -0.625 C 0.390625 -0.539062 0.164062 -0.550781 -0.0625 -0.65625 C -0.5 -0.820312 -0.707031 -1.300781 -0.6875 -2.09375 C -0.6875 -2.550781 -0.597656 -3.117188 -0.421875 -3.796875 C -0.253906 -4.484375 -0.0078125 -5.171875 0.3125 -5.859375 C 0.632812 -6.546875 1.007812 -7.15625 1.4375 -7.6875 C 1.875 -8.21875 2.359375 -8.578125 2.890625 -8.765625 C 3.222656 -8.890625 3.628906 -8.910156 4.109375 -8.828125 C 4.585938 -8.742188 5.082031 -8.398438 5.59375 -7.796875 C 5.6875 -7.691406 5.726562 -7.5625 5.71875 -7.40625 C 5.707031 -7.257812 5.648438 -7.144531 5.546875 -7.0625 C 5.429688 -6.96875 5.300781 -6.925781 5.15625 -6.9375 C 5.007812 -6.945312 4.890625 -7.003906 4.796875 -7.109375 C 4.359375 -7.628906 3.976562 -7.875 3.65625 -7.84375 C 3.332031 -7.8125 3.0625 -7.710938 2.84375 -7.546875 C 2.4375 -7.253906 2.066406 -6.832031 1.734375 -6.28125 C 1.398438 -5.726562 1.125 -5.148438 0.90625 -4.546875 C 0.6875 -3.941406 0.53125 -3.375 0.4375 -2.84375 C 0.34375 -2.320312 0.316406 -1.941406 0.359375 -1.703125 C 0.410156 -1.742188 0.46875 -1.789062 0.53125 -1.84375 C 0.601562 -1.894531 0.675781 -1.96875 0.75 -2.0625 C 1.300781 -2.675781 1.804688 -3.28125 2.265625 -3.875 C 2.722656 -4.46875 3.117188 -4.992188 3.453125 -5.453125 C 3.535156 -5.585938 3.617188 -5.710938 3.703125 -5.828125 C 3.785156 -5.953125 3.863281 -6.054688 3.9375 -6.140625 C 4.082031 -6.328125 4.273438 -6.382812 4.515625 -6.3125 C 4.753906 -6.257812 4.882812 -6.101562 4.90625 -5.84375 C 4.957031 -4.644531 5.050781 -3.679688 5.1875 -2.953125 C 5.332031 -2.234375 5.484375 -1.691406 5.640625 -1.328125 C 5.804688 -0.972656 5.960938 -0.726562 6.109375 -0.59375 C 6.265625 -0.46875 6.378906 -0.40625 6.453125 -0.40625 C 6.796875 -0.332031 7.351562 -0.691406 8.125 -1.484375 C 8.894531 -2.273438 9.796875 -3.738281 10.828125 -5.875 C 10.898438 -6.019531 11.003906 -6.113281 11.140625 -6.15625 C 11.285156 -6.207031 11.421875 -6.195312 11.546875 -6.125 Z M 11.546875 -6.125 "/></g></g></g><g fill="#ffde59" fill-opacity="0.4"><g transform="translate(123.789092, 64.312905)"><g><path d="M 13.484375 -6.0625 C 13.566406 -5.945312 13.585938 -5.816406 13.546875 -5.671875 C 13.515625 -5.523438 13.445312 -5.414062 13.34375 -5.34375 C 12 -4.46875 10.648438 -3.519531 9.296875 -2.5 C 7.953125 -1.476562 6.632812 -0.320312 5.34375 0.96875 C 4.257812 7.445312 3.078125 12.710938 1.796875 16.765625 C 1.515625 17.585938 1.210938 18.425781 0.890625 19.28125 C 0.566406 20.132812 0.21875 20.929688 -0.15625 21.671875 C -0.53125 22.421875 -0.925781 23.046875 -1.34375 23.546875 C -1.769531 24.054688 -2.203125 24.375 -2.640625 24.5 C -2.773438 24.539062 -2.914062 24.5625 -3.0625 24.5625 C -3.476562 24.5625 -3.84375 24.375 -4.15625 24 C -4.539062 23.507812 -4.789062 22.757812 -4.90625 21.75 C -5.03125 20.738281 -5.007812 19.550781 -4.84375 18.1875 C -4.6875 16.832031 -4.375 15.390625 -3.90625 13.859375 C -3.4375 12.335938 -2.804688 10.820312 -2.015625 9.3125 C -1.054688 7.5 -0.0390625 5.863281 1.03125 4.40625 C 2.101562 2.957031 3.21875 1.632812 4.375 0.4375 C 4.65625 -1.289062 4.929688 -3.097656 5.203125 -4.984375 C 4.960938 -4.617188 4.707031 -4.25 4.4375 -3.875 C 4.164062 -3.5 3.890625 -3.144531 3.609375 -2.8125 C 3.242188 -2.375 2.90625 -2.085938 2.59375 -1.953125 C 2.28125 -1.828125 2.007812 -1.78125 1.78125 -1.8125 C 1.5625 -1.851562 1.398438 -1.910156 1.296875 -1.984375 C 0.890625 -2.222656 0.613281 -2.648438 0.46875 -3.265625 C 0.320312 -3.878906 0.300781 -4.609375 0.40625 -5.453125 C 0.519531 -6.296875 0.757812 -7.179688 1.125 -8.109375 C 1.1875 -8.234375 1.285156 -8.320312 1.421875 -8.375 C 1.554688 -8.4375 1.6875 -8.4375 1.8125 -8.375 C 1.945312 -8.320312 2.046875 -8.226562 2.109375 -8.09375 C 2.171875 -7.96875 2.175781 -7.832031 2.125 -7.6875 C 1.757812 -6.820312 1.535156 -6.046875 1.453125 -5.359375 C 1.367188 -4.671875 1.367188 -4.109375 1.453125 -3.671875 C 1.546875 -3.242188 1.675781 -2.984375 1.84375 -2.890625 C 2.050781 -2.765625 2.363281 -2.957031 2.78125 -3.46875 C 3.144531 -3.914062 3.507812 -4.40625 3.875 -4.9375 C 4.25 -5.46875 4.585938 -5.972656 4.890625 -6.453125 C 5.191406 -6.941406 5.4375 -7.34375 5.625 -7.65625 C 5.769531 -7.914062 5.976562 -8 6.25 -7.90625 C 6.53125 -7.800781 6.648438 -7.609375 6.609375 -7.328125 C 6.296875 -5.035156 5.976562 -2.859375 5.65625 -0.796875 C 6.8125 -1.878906 7.984375 -2.863281 9.171875 -3.75 C 10.367188 -4.632812 11.566406 -5.460938 12.765625 -6.234375 C 12.867188 -6.304688 12.992188 -6.328125 13.140625 -6.296875 C 13.296875 -6.265625 13.410156 -6.1875 13.484375 -6.0625 Z M 0.765625 16.453125 C 1.941406 12.773438 3.035156 8.082031 4.046875 2.375 C 3.128906 3.394531 2.238281 4.515625 1.375 5.734375 C 0.507812 6.960938 -0.304688 8.320312 -1.078125 9.8125 C -1.898438 11.40625 -2.53125 12.945312 -2.96875 14.4375 C -3.414062 15.925781 -3.695312 17.285156 -3.8125 18.515625 C -3.9375 19.753906 -3.945312 20.789062 -3.84375 21.625 C -3.738281 22.457031 -3.566406 23.019531 -3.328125 23.3125 C -3.242188 23.425781 -3.164062 23.488281 -3.09375 23.5 C -3.03125 23.507812 -2.984375 23.503906 -2.953125 23.484375 C -2.878906 23.460938 -2.738281 23.375 -2.53125 23.21875 C -2.332031 23.0625 -2.066406 22.75 -1.734375 22.28125 C -1.398438 21.8125 -1.019531 21.113281 -0.59375 20.1875 C -0.175781 19.257812 0.273438 18.015625 0.765625 16.453125 Z M 0.765625 16.453125 "/></g></g></g><g fill="#ffde59" fill-opacity="0.4"><g transform="translate(135.996938, 64.312905)"><g/></g></g><g fill="#ffde59" fill-opacity="0.4"><g transform="translate(144.456999, 64.312905)"><g><path d="M 22.40625 -6.421875 C 22.53125 -6.367188 22.613281 -6.269531 22.65625 -6.125 C 22.707031 -5.988281 22.707031 -5.859375 22.65625 -5.734375 C 20.820312 -1.785156 18.992188 1.554688 17.171875 4.296875 C 15.347656 7.035156 13.597656 9.113281 11.921875 10.53125 C 10.253906 11.957031 8.695312 12.671875 7.25 12.671875 C 6.820312 12.671875 6.410156 12.609375 6.015625 12.484375 C 5.015625 12.191406 4.171875 11.539062 3.484375 10.53125 C 2.796875 9.519531 2.269531 8.222656 1.90625 6.640625 C 1.550781 5.054688 1.375 3.25 1.375 1.21875 C 1.375 -0.800781 1.566406 -3 1.953125 -5.375 C 2.210938 -6.96875 2.582031 -8.671875 3.0625 -10.484375 C 3.539062 -12.296875 4.082031 -14.046875 4.6875 -15.734375 C 5.03125 -16.691406 5.445312 -17.734375 5.9375 -18.859375 C 6.425781 -19.992188 6.972656 -21.113281 7.578125 -22.21875 C 8.179688 -23.320312 8.851562 -24.3125 9.59375 -25.1875 C 10.175781 -25.90625 10.703125 -26.40625 11.171875 -26.6875 C 11.640625 -26.976562 12.046875 -27.128906 12.390625 -27.140625 C 12.742188 -27.160156 13.039062 -27.117188 13.28125 -27.015625 C 13.882812 -26.722656 14.3125 -26.113281 14.5625 -25.1875 C 14.8125 -24.269531 14.9375 -23.128906 14.9375 -21.765625 C 14.9375 -20.410156 14.835938 -18.914062 14.640625 -17.28125 C 14.453125 -15.644531 14.195312 -13.957031 13.875 -12.21875 C 13.550781 -10.488281 13.207031 -8.796875 12.84375 -7.140625 C 12.800781 -7.015625 12.71875 -6.910156 12.59375 -6.828125 C 12.46875 -6.742188 12.335938 -6.71875 12.203125 -6.75 C 12.054688 -6.789062 11.941406 -6.867188 11.859375 -6.984375 C 11.773438 -7.109375 11.753906 -7.242188 11.796875 -7.390625 C 12.515625 -10.566406 13.035156 -13.296875 13.359375 -15.578125 C 13.679688 -17.867188 13.847656 -19.757812 13.859375 -21.25 C 13.878906 -22.738281 13.789062 -23.867188 13.59375 -24.640625 C 13.40625 -25.410156 13.144531 -25.878906 12.8125 -26.046875 C 12.5625 -26.171875 12.222656 -26.09375 11.796875 -25.8125 C 11.367188 -25.539062 10.910156 -25.113281 10.421875 -24.53125 C 9.722656 -23.6875 9.050781 -22.6875 8.40625 -21.53125 C 7.757812 -20.375 7.15625 -19.109375 6.59375 -17.734375 C 6.039062 -16.367188 5.53125 -14.957031 5.0625 -13.5 C 4.59375 -12.050781 4.179688 -10.617188 3.828125 -9.203125 C 3.484375 -7.785156 3.207031 -6.453125 3 -5.203125 C 2.632812 -2.984375 2.445312 -0.898438 2.4375 1.046875 C 2.425781 2.992188 2.585938 4.738281 2.921875 6.28125 C 3.234375 7.71875 3.679688 8.878906 4.265625 9.765625 C 4.859375 10.660156 5.550781 11.226562 6.34375 11.46875 C 8.082031 12.019531 10.1875 11.007812 12.65625 8.4375 C 15.550781 5.40625 18.5625 0.535156 21.6875 -6.171875 C 21.75 -6.296875 21.847656 -6.382812 21.984375 -6.4375 C 22.117188 -6.5 22.257812 -6.492188 22.40625 -6.421875 Z M 22.40625 -6.421875 "/></g></g></g><g fill="#ffde59" fill-opacity="0.4"><g transform="translate(165.731163, 64.312905)"><g><path d="M 12.09375 -6.25 C 12.226562 -6.175781 12.320312 -6.070312 12.375 -5.9375 C 12.425781 -5.800781 12.414062 -5.671875 12.34375 -5.546875 C 12 -4.785156 11.570312 -3.9375 11.0625 -3 C 10.5625 -2.0625 10.023438 -1.117188 9.453125 -0.171875 C 8.878906 0.765625 8.296875 1.625 7.703125 2.40625 C 7.117188 3.1875 6.550781 3.820312 6 4.3125 C 5.457031 4.800781 4.960938 5.046875 4.515625 5.046875 C 4.390625 5.046875 4.269531 5.019531 4.15625 4.96875 C 3.769531 4.8125 3.515625 4.457031 3.390625 3.90625 C 3.273438 3.363281 3.296875 2.578125 3.453125 1.546875 C 3.703125 -0.304688 4.378906 -2.9375 5.484375 -6.34375 C 5.460938 -6.34375 5.445312 -6.335938 5.4375 -6.328125 C 5.4375 -6.316406 5.425781 -6.3125 5.40625 -6.3125 C 5.03125 -6.050781 4.585938 -5.78125 4.078125 -5.5 C 3.566406 -5.226562 3.035156 -5.046875 2.484375 -4.953125 C 1.929688 -4.867188 1.40625 -4.988281 0.90625 -5.3125 C 0.207031 -5.8125 -0.144531 -6.5 -0.15625 -7.375 C -0.175781 -8.257812 0.148438 -9.226562 0.828125 -10.28125 C 1.046875 -10.613281 1.332031 -10.976562 1.6875 -11.375 C 2.050781 -11.78125 2.429688 -12.09375 2.828125 -12.3125 C 3.222656 -12.539062 3.578125 -12.550781 3.890625 -12.34375 C 4.054688 -12.25 4.175781 -12.09375 4.25 -11.875 C 4.332031 -11.65625 4.328125 -11.316406 4.234375 -10.859375 C 4.148438 -10.398438 3.929688 -9.785156 3.578125 -9.015625 C 3.234375 -8.242188 2.710938 -7.242188 2.015625 -6.015625 C 2.429688 -5.953125 2.898438 -6.066406 3.421875 -6.359375 C 3.953125 -6.660156 4.421875 -6.9375 4.828125 -7.1875 C 5.210938 -7.445312 5.53125 -7.632812 5.78125 -7.75 C 6.039062 -7.875 6.28125 -7.851562 6.5 -7.6875 C 6.707031 -7.519531 6.789062 -7.316406 6.75 -7.078125 C 6.71875 -6.835938 6.679688 -6.65625 6.640625 -6.53125 C 6.035156 -4.625 5.566406 -3.035156 5.234375 -1.765625 C 4.898438 -0.492188 4.671875 0.523438 4.546875 1.296875 C 4.429688 2.066406 4.375 2.644531 4.375 3.03125 C 4.375 3.414062 4.398438 3.664062 4.453125 3.78125 C 4.515625 3.90625 4.546875 3.976562 4.546875 4 C 4.765625 4.03125 5.21875 3.671875 5.90625 2.921875 C 6.601562 2.179688 7.425781 1.066406 8.375 -0.421875 C 9.332031 -1.921875 10.335938 -3.773438 11.390625 -5.984375 C 11.460938 -6.128906 11.566406 -6.222656 11.703125 -6.265625 C 11.835938 -6.316406 11.96875 -6.3125 12.09375 -6.25 Z M 1 -8.125 C 0.882812 -7.738281 0.847656 -7.421875 0.890625 -7.171875 C 0.941406 -6.929688 1.015625 -6.738281 1.109375 -6.59375 C 1.691406 -7.613281 2.132812 -8.445312 2.4375 -9.09375 C 2.738281 -9.738281 2.941406 -10.234375 3.046875 -10.578125 C 3.160156 -10.929688 3.226562 -11.179688 3.25 -11.328125 C 3.050781 -11.210938 2.800781 -11 2.5 -10.6875 C 2.195312 -10.375 1.898438 -10 1.609375 -9.5625 C 1.328125 -9.125 1.125 -8.644531 1 -8.125 Z M 1 -8.125 "/></g></g></g><g fill="#ffde59" fill-opacity="0.4"><g transform="translate(176.726483, 64.312905)"><g><path d="M 9.984375 -6.015625 C 10.109375 -5.921875 10.175781 -5.800781 10.1875 -5.65625 C 10.207031 -5.507812 10.175781 -5.378906 10.09375 -5.265625 C 9.613281 -4.660156 9.054688 -4.117188 8.421875 -3.640625 C 7.785156 -3.160156 7.125 -2.804688 6.4375 -2.578125 C 5.75 -2.347656 5.082031 -2.304688 4.4375 -2.453125 C 4.175781 -1.804688 3.8125 -1.304688 3.34375 -0.953125 C 2.875 -0.609375 2.398438 -0.4375 1.921875 -0.4375 C 1.921875 -0.4375 1.914062 -0.4375 1.90625 -0.4375 C 1.40625 -0.457031 0.96875 -0.628906 0.59375 -0.953125 C 0.21875 -1.273438 -0.0390625 -1.71875 -0.1875 -2.28125 C -0.351562 -2.925781 -0.378906 -3.535156 -0.265625 -4.109375 C -0.160156 -4.691406 0.0351562 -5.203125 0.328125 -5.640625 C 0.617188 -6.085938 0.953125 -6.429688 1.328125 -6.671875 C 1.453125 -6.765625 1.597656 -6.78125 1.765625 -6.71875 C 1.929688 -7.125 2.164062 -7.4375 2.46875 -7.65625 C 2.769531 -7.882812 3.085938 -7.96875 3.421875 -7.90625 C 3.617188 -7.875 3.835938 -7.75 4.078125 -7.53125 C 4.316406 -7.320312 4.507812 -6.945312 4.65625 -6.40625 C 4.800781 -5.863281 4.847656 -5.070312 4.796875 -4.03125 C 4.773438 -3.84375 4.75 -3.65625 4.71875 -3.46875 C 5.207031 -3.375 5.726562 -3.425781 6.28125 -3.625 C 6.832031 -3.832031 7.363281 -4.144531 7.875 -4.5625 C 8.394531 -4.976562 8.847656 -5.429688 9.234375 -5.921875 C 9.328125 -6.035156 9.445312 -6.097656 9.59375 -6.109375 C 9.738281 -6.128906 9.867188 -6.097656 9.984375 -6.015625 Z M 1.921875 -1.515625 C 2.160156 -1.515625 2.425781 -1.625 2.71875 -1.84375 C 3.019531 -2.0625 3.265625 -2.394531 3.453125 -2.84375 C 2.785156 -3.207031 2.304688 -3.628906 2.015625 -4.109375 C 1.734375 -4.585938 1.585938 -5.066406 1.578125 -5.546875 C 1.191406 -5.171875 0.9375 -4.695312 0.8125 -4.125 C 0.695312 -3.5625 0.703125 -3.050781 0.828125 -2.59375 C 0.878906 -2.382812 0.988281 -2.148438 1.15625 -1.890625 C 1.320312 -1.640625 1.578125 -1.515625 1.921875 -1.515625 Z M 3.71875 -4.078125 C 3.757812 -4.816406 3.742188 -5.382812 3.671875 -5.78125 C 3.609375 -6.1875 3.53125 -6.460938 3.4375 -6.609375 C 3.351562 -6.753906 3.289062 -6.835938 3.25 -6.859375 C 3.226562 -6.859375 3.21875 -6.859375 3.21875 -6.859375 C 3.164062 -6.859375 3.082031 -6.800781 2.96875 -6.6875 C 2.863281 -6.582031 2.773438 -6.421875 2.703125 -6.203125 C 2.585938 -5.847656 2.59375 -5.460938 2.71875 -5.046875 C 2.851562 -4.640625 3.1875 -4.257812 3.71875 -3.90625 C 3.71875 -3.96875 3.71875 -4.023438 3.71875 -4.078125 Z M 3.71875 -4.078125 "/></g></g></g><g fill="#ffde59" fill-opacity="0.4"><g transform="translate(185.544788, 64.312905)"><g><path d="M 9.125 -6.25 C 9.226562 -6.175781 9.300781 -6.066406 9.34375 -5.921875 C 9.382812 -5.773438 9.359375 -5.648438 9.265625 -5.546875 C 8.378906 -4.179688 7.503906 -2.921875 6.640625 -1.765625 C 5.773438 -0.609375 4.925781 0.328125 4.09375 1.046875 C 3.257812 1.765625 2.445312 2.125 1.65625 2.125 C 1.488281 2.125 1.320312 2.101562 1.15625 2.0625 C 0.5 1.914062 -0.00390625 1.53125 -0.359375 0.90625 C -0.628906 0.414062 -0.785156 -0.15625 -0.828125 -0.8125 C -0.878906 -1.46875 -0.847656 -2.132812 -0.734375 -2.8125 C -0.628906 -3.488281 -0.46875 -4.125 -0.25 -4.71875 C 0.113281 -5.726562 0.578125 -6.507812 1.140625 -7.0625 C 1.703125 -7.613281 2.234375 -7.804688 2.734375 -7.640625 C 2.816406 -7.617188 2.945312 -7.535156 3.125 -7.390625 C 3.300781 -7.242188 3.4375 -6.992188 3.53125 -6.640625 C 3.625 -6.296875 3.578125 -5.789062 3.390625 -5.125 C 3.347656 -4.976562 3.269531 -4.867188 3.15625 -4.796875 C 3.039062 -4.722656 2.90625 -4.703125 2.75 -4.734375 C 2.601562 -4.773438 2.492188 -4.859375 2.421875 -4.984375 C 2.347656 -5.117188 2.332031 -5.25 2.375 -5.375 C 2.476562 -5.8125 2.515625 -6.125 2.484375 -6.3125 C 2.460938 -6.507812 2.429688 -6.617188 2.390625 -6.640625 C 2.316406 -6.640625 2.101562 -6.488281 1.75 -6.1875 C 1.40625 -5.882812 1.070312 -5.265625 0.75 -4.328125 C 0.414062 -3.460938 0.234375 -2.582031 0.203125 -1.6875 C 0.179688 -0.800781 0.304688 -0.109375 0.578125 0.390625 C 0.765625 0.734375 1.03125 0.941406 1.375 1.015625 C 1.875 1.128906 2.4375 0.957031 3.0625 0.5 C 3.6875 0.0507812 4.3125 -0.550781 4.9375 -1.3125 C 5.570312 -2.070312 6.1875 -2.882812 6.78125 -3.75 C 7.382812 -4.613281 7.914062 -5.40625 8.375 -6.125 C 8.445312 -6.226562 8.554688 -6.296875 8.703125 -6.328125 C 8.859375 -6.367188 9 -6.34375 9.125 -6.25 Z M 9.125 -6.25 "/></g></g></g><g fill="#ffde59" fill-opacity="0.4"><g transform="translate(193.701726, 64.312905)"><g><path d="M 13.0625 -6.3125 C 13.175781 -6.238281 13.25 -6.128906 13.28125 -5.984375 C 13.320312 -5.835938 13.304688 -5.695312 13.234375 -5.5625 C 12.347656 -4.15625 11.566406 -3.007812 10.890625 -2.125 C 10.210938 -1.238281 9.628906 -0.566406 9.140625 -0.109375 C 8.648438 0.347656 8.238281 0.660156 7.90625 0.828125 C 7.582031 0.992188 7.316406 1.078125 7.109375 1.078125 C 6.910156 1.078125 6.753906 1.066406 6.640625 1.046875 C 6.222656 0.929688 5.910156 0.675781 5.703125 0.28125 C 5.503906 -0.101562 5.367188 -0.507812 5.296875 -0.9375 C 5.234375 -1.363281 5.195312 -1.6875 5.1875 -1.90625 C 5.144531 -2.539062 5.066406 -2.96875 4.953125 -3.1875 C 4.847656 -3.414062 4.769531 -3.53125 4.71875 -3.53125 C 4.695312 -3.53125 4.6875 -3.53125 4.6875 -3.53125 C 4.445312 -3.53125 4.050781 -3.191406 3.5 -2.515625 C 2.945312 -1.847656 2.296875 -0.800781 1.546875 0.625 C 0.804688 2.0625 0.0351562 3.929688 -0.765625 6.234375 C -0.835938 6.472656 -1.003906 6.59375 -1.265625 6.59375 C -1.304688 6.59375 -1.34375 6.59375 -1.375 6.59375 C -1.664062 6.519531 -1.804688 6.332031 -1.796875 6.03125 C -1.773438 5.71875 -1.691406 5.15625 -1.546875 4.34375 C -1.398438 3.539062 -1.203125 2.570312 -0.953125 1.4375 C -0.703125 0.3125 -0.425781 -0.910156 -0.125 -2.234375 C 0.175781 -3.554688 0.488281 -4.894531 0.8125 -6.25 C 1.132812 -7.613281 1.441406 -8.914062 1.734375 -10.15625 C 2.023438 -11.394531 2.289062 -12.507812 2.53125 -13.5 C 2.769531 -14.5 2.960938 -15.296875 3.109375 -15.890625 C 3.253906 -16.484375 3.328125 -16.789062 3.328125 -16.8125 C 3.753906 -18.5 4.222656 -20.035156 4.734375 -21.421875 C 5.253906 -22.816406 5.765625 -23.9375 6.265625 -24.78125 C 6.773438 -25.625 7.222656 -26.082031 7.609375 -26.15625 C 7.921875 -26.207031 8.160156 -26.113281 8.328125 -25.875 C 8.578125 -25.507812 8.550781 -24.742188 8.25 -23.578125 C 7.945312 -22.410156 7.394531 -20.9375 6.59375 -19.15625 C 5.800781 -17.375 4.789062 -15.378906 3.5625 -13.171875 C 3.226562 -11.796875 2.863281 -10.289062 2.46875 -8.65625 C 2.070312 -7.019531 1.6875 -5.375 1.3125 -3.71875 C 0.9375 -2.0625 0.59375 -0.535156 0.28125 0.859375 C 0.769531 -0.191406 1.273438 -1.140625 1.796875 -1.984375 C 2.328125 -2.828125 2.851562 -3.484375 3.375 -3.953125 C 3.894531 -4.421875 4.382812 -4.628906 4.84375 -4.578125 C 5.25 -4.523438 5.546875 -4.320312 5.734375 -3.96875 C 5.929688 -3.625 6.0625 -3.253906 6.125 -2.859375 C 6.195312 -2.460938 6.234375 -2.171875 6.234375 -1.984375 C 6.285156 -1.304688 6.375 -0.8125 6.5 -0.5 C 6.632812 -0.1875 6.765625 -0.0195312 6.890625 0 C 6.929688 0.0195312 7.054688 0 7.265625 -0.0625 C 7.472656 -0.132812 7.78125 -0.34375 8.1875 -0.6875 C 8.601562 -1.039062 9.148438 -1.644531 9.828125 -2.5 C 10.515625 -3.351562 11.347656 -4.566406 12.328125 -6.140625 C 12.398438 -6.253906 12.507812 -6.328125 12.65625 -6.359375 C 12.800781 -6.398438 12.9375 -6.382812 13.0625 -6.3125 Z M 7.421875 -24.609375 C 7.109375 -24.148438 6.6875 -23.335938 6.15625 -22.171875 C 5.632812 -21.003906 5.109375 -19.421875 4.578125 -17.421875 C 5.515625 -19.273438 6.195312 -20.796875 6.625 -21.984375 C 7.0625 -23.179688 7.328125 -24.054688 7.421875 -24.609375 Z M 7.421875 -24.609375 "/></g></g></g><g fill="#ffde59" fill-opacity="0.4"><g transform="translate(205.578877, 64.312905)"><g><path d="M 9.3125 -6.140625 C 9.445312 -6.066406 9.519531 -5.957031 9.53125 -5.8125 C 9.550781 -5.664062 9.523438 -5.539062 9.453125 -5.4375 C 8.367188 -3.925781 7.375 -2.675781 6.46875 -1.6875 C 5.570312 -0.707031 4.675781 0.101562 3.78125 0.75 C 3.09375 1.21875 2.421875 1.453125 1.765625 1.453125 C 1.253906 1.453125 0.800781 1.316406 0.40625 1.046875 C 0.15625 0.859375 -0.09375 0.53125 -0.34375 0.0625 C -0.59375 -0.40625 -0.722656 -1.082031 -0.734375 -1.96875 C -0.753906 -2.863281 -0.535156 -4.035156 -0.078125 -5.484375 C -0.078125 -5.484375 -0.078125 -5.492188 -0.078125 -5.515625 C 0.472656 -7.273438 1.117188 -8.617188 1.859375 -9.546875 C 2.609375 -10.472656 3.25 -10.945312 3.78125 -10.96875 C 4.195312 -10.988281 4.472656 -10.804688 4.609375 -10.421875 C 4.804688 -9.890625 4.5625 -9.128906 3.875 -8.140625 C 3.195312 -7.160156 2.195312 -6.117188 0.875 -5.015625 C 0.476562 -3.734375 0.285156 -2.726562 0.296875 -2 C 0.316406 -1.269531 0.414062 -0.742188 0.59375 -0.421875 C 0.78125 -0.0976562 0.929688 0.101562 1.046875 0.1875 C 1.597656 0.59375 2.304688 0.484375 3.171875 -0.140625 C 4.015625 -0.722656 4.867188 -1.488281 5.734375 -2.4375 C 6.597656 -3.382812 7.546875 -4.582031 8.578125 -6.03125 C 8.660156 -6.144531 8.773438 -6.210938 8.921875 -6.234375 C 9.078125 -6.265625 9.207031 -6.234375 9.3125 -6.140625 Z M 3.578125 -9.8125 C 3.378906 -9.6875 3.101562 -9.414062 2.75 -9 C 2.40625 -8.582031 2.050781 -7.976562 1.6875 -7.1875 C 2.34375 -7.832031 2.804688 -8.378906 3.078125 -8.828125 C 3.359375 -9.285156 3.523438 -9.613281 3.578125 -9.8125 Z M 3.578125 -9.8125 "/></g></g></g><g clip-path="url(#794d2a80fd)"><g fill="#ffde59" fill-opacity="0.4"><g transform="translate(213.598023, 64.312905)"><g><path d="M 23.265625 -16.265625 C 23.359375 -16.148438 23.394531 -16.019531 23.375 -15.875 C 23.351562 -15.726562 23.28125 -15.609375 23.15625 -15.515625 C 22.9375 -15.367188 22.722656 -15.378906 22.515625 -15.546875 C 22.273438 -15.640625 21.726562 -15.703125 20.875 -15.734375 C 20.019531 -15.773438 18.945312 -15.800781 17.65625 -15.8125 C 16.375 -15.820312 14.960938 -15.816406 13.421875 -15.796875 C 11.878906 -15.773438 10.296875 -15.75 8.671875 -15.71875 C 7.046875 -15.695312 5.46875 -15.664062 3.9375 -15.625 C 3.375 -13.238281 2.78125 -10.644531 2.15625 -7.84375 C 1.53125 -5.039062 0.910156 -2.195312 0.296875 0.6875 C -0.484375 4.46875 -1.085938 7.570312 -1.515625 10 C -1.953125 12.425781 -2.238281 14.179688 -2.375 15.265625 C -2.332031 15.265625 -2.296875 15.273438 -2.265625 15.296875 C -2.117188 15.335938 -2.015625 15.425781 -1.953125 15.5625 C -1.898438 15.695312 -1.898438 15.828125 -1.953125 15.953125 C -2.066406 16.265625 -2.191406 16.554688 -2.328125 16.828125 C -2.460938 17.097656 -2.648438 17.234375 -2.890625 17.234375 C -2.953125 17.234375 -3.019531 17.222656 -3.09375 17.203125 C -3.34375 17.109375 -3.484375 16.910156 -3.515625 16.609375 C -3.546875 16.304688 -3.523438 15.890625 -3.453125 15.359375 C -3.367188 14.578125 -3.203125 13.460938 -2.953125 12.015625 C -2.734375 10.660156 -2.445312 9.070312 -2.09375 7.25 C -1.75 5.425781 -1.34375 3.429688 -0.875 1.265625 C -0.269531 -1.671875 0.347656 -4.59375 0.984375 -7.5 C 1.628906 -10.40625 2.25 -13.101562 2.84375 -15.59375 C 1.957031 -15.582031 1.117188 -15.566406 0.328125 -15.546875 C -0.460938 -15.523438 -1.175781 -15.503906 -1.8125 -15.484375 C -3.050781 -15.453125 -4.128906 -15.425781 -5.046875 -15.40625 C -5.960938 -15.382812 -6.613281 -15.375 -7 -15.375 C -7.144531 -15.375 -7.269531 -15.425781 -7.375 -15.53125 C -7.476562 -15.632812 -7.53125 -15.757812 -7.53125 -15.90625 C -7.53125 -16.050781 -7.476562 -16.171875 -7.375 -16.265625 C -7.269531 -16.367188 -7.144531 -16.421875 -7 -16.421875 C -6.613281 -16.421875 -5.960938 -16.4375 -5.046875 -16.46875 C -4.140625 -16.5 -3.070312 -16.53125 -1.84375 -16.5625 C -0.96875 -16.582031 -0.117188 -16.597656 0.703125 -16.609375 C 1.535156 -16.628906 2.335938 -16.648438 3.109375 -16.671875 C 3.390625 -17.847656 3.660156 -18.953125 3.921875 -19.984375 C 4.191406 -21.023438 4.445312 -21.976562 4.6875 -22.84375 C 4.71875 -22.988281 4.796875 -23.097656 4.921875 -23.171875 C 5.054688 -23.253906 5.1875 -23.273438 5.3125 -23.234375 C 5.46875 -23.203125 5.582031 -23.117188 5.65625 -22.984375 C 5.726562 -22.859375 5.742188 -22.722656 5.703125 -22.578125 C 5.265625 -20.941406 4.757812 -18.984375 4.1875 -16.703125 C 7.050781 -16.753906 9.503906 -16.796875 11.546875 -16.828125 C 13.585938 -16.859375 15.296875 -16.875 16.671875 -16.875 C 18.054688 -16.875 19.175781 -16.851562 20.03125 -16.8125 C 20.882812 -16.78125 21.53125 -16.738281 21.96875 -16.6875 C 22.40625 -16.644531 22.71875 -16.585938 22.90625 -16.515625 C 23.09375 -16.441406 23.210938 -16.359375 23.265625 -16.265625 Z M 23.265625 -16.265625 "/></g></g></g></g><g fill="#57cc99" fill-opacity="1"><g transform="translate(8.814617, 63.094575)"><g><path d="M 26.921875 -6.3125 C 27.015625 -6.1875 27.046875 -6.050781 27.015625 -5.90625 C 26.992188 -5.769531 26.921875 -5.65625 26.796875 -5.5625 C 23.941406 -3.53125 21.335938 -1.601562 18.984375 0.21875 C 19.222656 0.96875 19.253906 1.796875 19.078125 2.703125 C 18.773438 4.265625 18.242188 5.71875 17.484375 7.0625 C 16.722656 8.414062 15.832031 9.648438 14.8125 10.765625 C 13.789062 11.878906 12.722656 12.832031 11.609375 13.625 C 10.503906 14.425781 9.445312 15.050781 8.4375 15.5 C 7.425781 15.945312 6.550781 16.203125 5.8125 16.265625 C 5.707031 16.285156 5.609375 16.296875 5.515625 16.296875 C 4.941406 16.296875 4.535156 16.175781 4.296875 15.9375 C 4.054688 15.707031 3.898438 15.492188 3.828125 15.296875 C 3.410156 14.140625 4.398438 12.234375 6.796875 9.578125 C 9.191406 6.921875 12.820312 3.691406 17.6875 -0.109375 C 17.082031 -1.191406 15.863281 -2.191406 14.03125 -3.109375 C 12.207031 -4.035156 9.789062 -5.101562 6.78125 -6.3125 C 6.425781 -6.457031 6.066406 -6.601562 5.703125 -6.75 C 5.335938 -6.894531 4.960938 -7.050781 4.578125 -7.21875 C 3.253906 -7.769531 2.332031 -8.515625 1.8125 -9.453125 C 1.300781 -10.390625 1.238281 -11.460938 1.625 -12.671875 C 1.914062 -13.609375 2.425781 -14.5625 3.15625 -15.53125 C 3.894531 -16.507812 4.789062 -17.484375 5.84375 -18.453125 C 6.894531 -19.421875 8.035156 -20.335938 9.265625 -21.203125 C 10.492188 -22.078125 11.75 -22.875 13.03125 -23.59375 C 14.320312 -24.3125 15.582031 -24.914062 16.8125 -25.40625 C 18.039062 -25.90625 19.175781 -26.253906 20.21875 -26.453125 C 21.257812 -26.660156 22.132812 -26.679688 22.84375 -26.515625 C 23.144531 -26.441406 23.472656 -26.300781 23.828125 -26.09375 C 24.179688 -25.894531 24.460938 -25.570312 24.671875 -25.125 C 24.890625 -24.675781 24.953125 -24.054688 24.859375 -23.265625 C 24.828125 -23.117188 24.753906 -23.003906 24.640625 -22.921875 C 24.523438 -22.835938 24.394531 -22.804688 24.25 -22.828125 C 24.101562 -22.835938 23.984375 -22.898438 23.890625 -23.015625 C 23.804688 -23.140625 23.769531 -23.273438 23.78125 -23.421875 C 23.894531 -24.191406 23.8125 -24.707031 23.53125 -24.96875 C 23.257812 -25.226562 22.957031 -25.394531 22.625 -25.46875 C 21.925781 -25.632812 21.003906 -25.578125 19.859375 -25.296875 C 18.710938 -25.023438 17.429688 -24.5625 16.015625 -23.90625 C 14.597656 -23.257812 13.144531 -22.457031 11.65625 -21.5 C 10.070312 -20.507812 8.648438 -19.472656 7.390625 -18.390625 C 6.140625 -17.316406 5.101562 -16.265625 4.28125 -15.234375 C 3.46875 -14.210938 2.921875 -13.257812 2.640625 -12.375 C 2.035156 -10.476562 2.816406 -9.082031 4.984375 -8.1875 C 5.367188 -8.039062 5.738281 -7.894531 6.09375 -7.75 C 6.457031 -7.601562 6.820312 -7.453125 7.1875 -7.296875 C 9.050781 -6.546875 10.738281 -5.832031 12.25 -5.15625 C 13.769531 -4.488281 15.066406 -3.804688 16.140625 -3.109375 C 17.210938 -2.410156 18.015625 -1.628906 18.546875 -0.765625 C 20.859375 -2.566406 23.40625 -4.453125 26.1875 -6.421875 C 26.3125 -6.515625 26.441406 -6.546875 26.578125 -6.515625 C 26.722656 -6.492188 26.835938 -6.425781 26.921875 -6.3125 Z M 18.046875 2.484375 C 18.160156 1.929688 18.171875 1.414062 18.078125 0.9375 C 14.160156 4.007812 11.054688 6.710938 8.765625 9.046875 C 7.421875 10.421875 6.390625 11.644531 5.671875 12.71875 C 4.960938 13.789062 4.679688 14.53125 4.828125 14.9375 C 4.878906 15.082031 5.003906 15.164062 5.203125 15.1875 C 5.410156 15.21875 5.585938 15.226562 5.734375 15.21875 C 6.335938 15.175781 7.097656 14.941406 8.015625 14.515625 C 8.941406 14.097656 9.914062 13.515625 10.9375 12.765625 C 11.96875 12.023438 12.96875 11.140625 13.9375 10.109375 C 14.914062 9.085938 15.769531 7.929688 16.5 6.640625 C 17.238281 5.359375 17.753906 3.972656 18.046875 2.484375 Z M 18.046875 2.484375 "/></g></g></g><g fill="#57cc99" fill-opacity="1"><g transform="translate(34.663275, 63.094575)"><g><path d="M 15.546875 -6.171875 C 15.648438 -6.078125 15.707031 -5.957031 15.71875 -5.8125 C 15.726562 -5.664062 15.6875 -5.539062 15.59375 -5.4375 C 13.257812 -2.695312 11.414062 -1.582031 10.0625 -2.09375 C 9.082031 -2.457031 8.554688 -3.625 8.484375 -5.59375 C 8.285156 -5.226562 8.070312 -4.8125 7.84375 -4.34375 C 7.613281 -3.875 7.425781 -3.492188 7.28125 -3.203125 C 7.164062 -2.921875 7.050781 -2.671875 6.9375 -2.453125 C 6.832031 -2.234375 6.734375 -2.050781 6.640625 -1.90625 C 6.585938 -1.789062 6.488281 -1.628906 6.34375 -1.421875 C 6.207031 -1.210938 6.035156 -1.03125 5.828125 -0.875 C 5.617188 -0.71875 5.375 -0.675781 5.09375 -0.75 C 4.769531 -0.832031 4.523438 -1.070312 4.359375 -1.46875 C 4.191406 -1.863281 4.085938 -2.296875 4.046875 -2.765625 C 4.015625 -3.234375 4 -3.613281 4 -3.90625 C 4 -4.144531 4 -4.375 4 -4.59375 C 4 -4.820312 4.007812 -5.023438 4.03125 -5.203125 C 3.382812 -4.285156 2.765625 -3.332031 2.171875 -2.34375 C 1.585938 -1.363281 0.960938 -0.242188 0.296875 1.015625 C 0.078125 1.441406 -0.15625 1.65625 -0.40625 1.65625 C -0.5 1.65625 -0.582031 1.628906 -0.65625 1.578125 C -0.75 1.535156 -0.832031 1.472656 -0.90625 1.390625 C -0.976562 1.304688 -1.019531 1.140625 -1.03125 0.890625 C -1.039062 0.648438 -1.003906 0.273438 -0.921875 -0.234375 C -0.835938 -0.753906 -0.675781 -1.472656 -0.4375 -2.390625 C -0.164062 -3.515625 0.15625 -4.628906 0.53125 -5.734375 C 0.914062 -6.835938 1.300781 -7.828125 1.6875 -8.703125 C 1.738281 -8.859375 1.832031 -8.960938 1.96875 -9.015625 C 2.101562 -9.066406 2.238281 -9.054688 2.375 -8.984375 C 2.519531 -8.929688 2.613281 -8.832031 2.65625 -8.6875 C 2.707031 -8.550781 2.703125 -8.421875 2.640625 -8.296875 C 2.148438 -7.140625 1.707031 -5.929688 1.3125 -4.671875 C 0.914062 -3.410156 0.609375 -2.3125 0.390625 -1.375 C 0.953125 -2.382812 1.507812 -3.328125 2.0625 -4.203125 C 2.613281 -5.078125 3.191406 -5.925781 3.796875 -6.75 C 3.859375 -6.820312 3.957031 -6.921875 4.09375 -7.046875 C 4.226562 -7.179688 4.414062 -7.210938 4.65625 -7.140625 C 4.894531 -7.046875 5.023438 -6.867188 5.046875 -6.609375 C 5.078125 -6.359375 5.085938 -5.925781 5.078125 -5.3125 C 5.078125 -5.113281 5.070312 -4.894531 5.0625 -4.65625 C 5.050781 -4.414062 5.046875 -4.164062 5.046875 -3.90625 C 5.046875 -3.363281 5.082031 -2.914062 5.15625 -2.5625 C 5.226562 -2.21875 5.289062 -1.976562 5.34375 -1.84375 C 5.382812 -1.882812 5.4375 -1.945312 5.5 -2.03125 C 5.5625 -2.125 5.640625 -2.242188 5.734375 -2.390625 C 5.804688 -2.523438 5.890625 -2.703125 5.984375 -2.921875 C 6.085938 -3.140625 6.207031 -3.378906 6.34375 -3.640625 C 6.820312 -4.671875 7.210938 -5.457031 7.515625 -6 C 7.816406 -6.550781 8.078125 -6.925781 8.296875 -7.125 C 8.515625 -7.332031 8.742188 -7.410156 8.984375 -7.359375 C 9.273438 -7.285156 9.441406 -7.101562 9.484375 -6.8125 C 9.535156 -6.53125 9.5625 -6.304688 9.5625 -6.140625 C 9.539062 -5.273438 9.609375 -4.578125 9.765625 -4.046875 C 9.921875 -3.515625 10.148438 -3.195312 10.453125 -3.09375 C 10.773438 -2.957031 11.300781 -3.097656 12.03125 -3.515625 C 12.757812 -3.941406 13.679688 -4.8125 14.796875 -6.125 C 14.890625 -6.226562 15.007812 -6.285156 15.15625 -6.296875 C 15.300781 -6.304688 15.429688 -6.265625 15.546875 -6.171875 Z M 15.546875 -6.171875 "/></g></g></g><g fill="#57cc99" fill-opacity="1"><g transform="translate(49.020576, 63.094575)"><g><path d="M 8.078125 -6.28125 C 8.203125 -6.207031 8.273438 -6.097656 8.296875 -5.953125 C 8.328125 -5.804688 8.304688 -5.671875 8.234375 -5.546875 C 7.890625 -4.992188 7.453125 -4.375 6.921875 -3.6875 C 6.390625 -3.007812 5.8125 -2.363281 5.1875 -1.75 C 4.5625 -1.132812 3.9375 -0.625 3.3125 -0.21875 C 2.695312 0.1875 2.132812 0.390625 1.625 0.390625 C 1.40625 0.390625 1.210938 0.351562 1.046875 0.28125 C 0.421875 0 0.078125 -0.664062 0.015625 -1.71875 C -0.046875 -2.78125 0.164062 -4.273438 0.65625 -6.203125 C 0.695312 -6.347656 0.78125 -6.457031 0.90625 -6.53125 C 1.039062 -6.601562 1.171875 -6.625 1.296875 -6.59375 C 1.441406 -6.550781 1.550781 -6.460938 1.625 -6.328125 C 1.695312 -6.203125 1.71875 -6.078125 1.6875 -5.953125 C 1.382812 -4.773438 1.195312 -3.84375 1.125 -3.15625 C 1.050781 -2.46875 1.035156 -1.945312 1.078125 -1.59375 C 1.128906 -1.25 1.203125 -1.015625 1.296875 -0.890625 C 1.390625 -0.773438 1.441406 -0.71875 1.453125 -0.71875 C 1.691406 -0.601562 2.039062 -0.675781 2.5 -0.9375 C 2.96875 -1.207031 3.484375 -1.601562 4.046875 -2.125 C 4.617188 -2.65625 5.191406 -3.265625 5.765625 -3.953125 C 6.347656 -4.640625 6.867188 -5.363281 7.328125 -6.125 C 7.421875 -6.25 7.535156 -6.320312 7.671875 -6.34375 C 7.816406 -6.375 7.953125 -6.351562 8.078125 -6.28125 Z M 1.578125 -8.484375 C 1.203125 -8.503906 1.007812 -8.609375 1 -8.796875 C 1 -8.992188 1.082031 -9.191406 1.25 -9.390625 C 1.425781 -9.597656 1.609375 -9.738281 1.796875 -9.8125 C 2.085938 -9.90625 2.300781 -9.882812 2.4375 -9.75 C 2.570312 -9.625 2.632812 -9.457031 2.625 -9.25 C 2.625 -9.050781 2.535156 -8.867188 2.359375 -8.703125 C 2.179688 -8.546875 1.921875 -8.472656 1.578125 -8.484375 Z M 1.578125 -8.484375 "/></g></g></g><g fill="#57cc99" fill-opacity="1"><g transform="translate(55.992549, 63.094575)"><g><path d="M 8.109375 -25.828125 C 8.347656 -25.472656 8.347656 -24.765625 8.109375 -23.703125 C 7.878906 -22.640625 7.40625 -21.320312 6.6875 -19.75 C 5.976562 -18.175781 5.023438 -16.4375 3.828125 -14.53125 C 3.804688 -14.507812 3.789062 -14.488281 3.78125 -14.46875 C 3.300781 -12.519531 2.828125 -10.535156 2.359375 -8.515625 C 1.890625 -6.492188 1.441406 -4.507812 1.015625 -2.5625 C 0.597656 -0.613281 0.21875 1.21875 -0.125 2.9375 C -0.476562 4.65625 -0.78125 6.179688 -1.03125 7.515625 C -1.28125 8.859375 -1.460938 9.9375 -1.578125 10.75 C -1.554688 10.75 -1.535156 10.75 -1.515625 10.75 C -1.367188 10.800781 -1.265625 10.890625 -1.203125 11.015625 C -1.140625 11.148438 -1.132812 11.289062 -1.1875 11.4375 C -1.3125 11.789062 -1.441406 12.109375 -1.578125 12.390625 C -1.722656 12.671875 -1.914062 12.8125 -2.15625 12.8125 C -2.207031 12.8125 -2.269531 12.800781 -2.34375 12.78125 C -2.507812 12.726562 -2.628906 12.613281 -2.703125 12.4375 C -2.773438 12.269531 -2.78125 11.921875 -2.71875 11.390625 C -2.664062 10.867188 -2.550781 10.066406 -2.375 8.984375 C -2.039062 7.003906 -1.539062 4.414062 -0.875 1.21875 C -0.40625 -1.03125 0.0859375 -3.316406 0.609375 -5.640625 C 1.140625 -7.960938 1.660156 -10.203125 2.171875 -12.359375 C 2.691406 -14.515625 3.191406 -16.476562 3.671875 -18.25 C 3.753906 -18.59375 3.890625 -19.078125 4.078125 -19.703125 C 4.265625 -20.328125 4.476562 -21 4.71875 -21.71875 C 4.957031 -22.4375 5.222656 -23.125 5.515625 -23.78125 C 5.804688 -24.445312 6.109375 -24.992188 6.421875 -25.421875 C 6.734375 -25.859375 7.046875 -26.101562 7.359375 -26.15625 C 7.671875 -26.207031 7.921875 -26.097656 8.109375 -25.828125 Z M 4.734375 -18.15625 C 5.617188 -19.8125 6.238281 -21.191406 6.59375 -22.296875 C 6.957031 -23.398438 7.164062 -24.203125 7.21875 -24.703125 C 6.957031 -24.328125 6.609375 -23.628906 6.171875 -22.609375 C 5.734375 -21.585938 5.253906 -20.101562 4.734375 -18.15625 Z M 4.734375 -18.15625 "/></g></g></g><g fill="#57cc99" fill-opacity="1"><g transform="translate(60.18125, 63.094575)"><g><path d="M 9.3125 -6.140625 C 9.445312 -6.066406 9.519531 -5.957031 9.53125 -5.8125 C 9.550781 -5.664062 9.523438 -5.539062 9.453125 -5.4375 C 8.367188 -3.925781 7.375 -2.675781 6.46875 -1.6875 C 5.570312 -0.707031 4.675781 0.101562 3.78125 0.75 C 3.09375 1.21875 2.421875 1.453125 1.765625 1.453125 C 1.253906 1.453125 0.800781 1.316406 0.40625 1.046875 C 0.15625 0.859375 -0.09375 0.53125 -0.34375 0.0625 C -0.59375 -0.40625 -0.722656 -1.082031 -0.734375 -1.96875 C -0.753906 -2.863281 -0.535156 -4.035156 -0.078125 -5.484375 C -0.078125 -5.484375 -0.078125 -5.492188 -0.078125 -5.515625 C 0.472656 -7.273438 1.117188 -8.617188 1.859375 -9.546875 C 2.609375 -10.472656 3.25 -10.945312 3.78125 -10.96875 C 4.195312 -10.988281 4.472656 -10.804688 4.609375 -10.421875 C 4.804688 -9.890625 4.5625 -9.128906 3.875 -8.140625 C 3.195312 -7.160156 2.195312 -6.117188 0.875 -5.015625 C 0.476562 -3.734375 0.285156 -2.726562 0.296875 -2 C 0.316406 -1.269531 0.414062 -0.742188 0.59375 -0.421875 C 0.78125 -0.0976562 0.929688 0.101562 1.046875 0.1875 C 1.597656 0.59375 2.304688 0.484375 3.171875 -0.140625 C 4.015625 -0.722656 4.867188 -1.488281 5.734375 -2.4375 C 6.597656 -3.382812 7.546875 -4.582031 8.578125 -6.03125 C 8.660156 -6.144531 8.773438 -6.210938 8.921875 -6.234375 C 9.078125 -6.265625 9.207031 -6.234375 9.3125 -6.140625 Z M 3.578125 -9.8125 C 3.378906 -9.6875 3.101562 -9.414062 2.75 -9 C 2.40625 -8.582031 2.050781 -7.976562 1.6875 -7.1875 C 2.34375 -7.832031 2.804688 -8.378906 3.078125 -8.828125 C 3.359375 -9.285156 3.523438 -9.613281 3.578125 -9.8125 Z M 3.578125 -9.8125 "/></g></g></g><g fill="#57cc99" fill-opacity="1"><g transform="translate(68.200395, 63.094575)"><g><path d="M 13.484375 -6.0625 C 13.566406 -5.945312 13.585938 -5.816406 13.546875 -5.671875 C 13.515625 -5.523438 13.445312 -5.414062 13.34375 -5.34375 C 12 -4.46875 10.648438 -3.519531 9.296875 -2.5 C 7.953125 -1.476562 6.632812 -0.320312 5.34375 0.96875 C 4.257812 7.445312 3.078125 12.710938 1.796875 16.765625 C 1.515625 17.585938 1.210938 18.425781 0.890625 19.28125 C 0.566406 20.132812 0.21875 20.929688 -0.15625 21.671875 C -0.53125 22.421875 -0.925781 23.046875 -1.34375 23.546875 C -1.769531 24.054688 -2.203125 24.375 -2.640625 24.5 C -2.773438 24.539062 -2.914062 24.5625 -3.0625 24.5625 C -3.476562 24.5625 -3.84375 24.375 -4.15625 24 C -4.539062 23.507812 -4.789062 22.757812 -4.90625 21.75 C -5.03125 20.738281 -5.007812 19.550781 -4.84375 18.1875 C -4.6875 16.832031 -4.375 15.390625 -3.90625 13.859375 C -3.4375 12.335938 -2.804688 10.820312 -2.015625 9.3125 C -1.054688 7.5 -0.0390625 5.863281 1.03125 4.40625 C 2.101562 2.957031 3.21875 1.632812 4.375 0.4375 C 4.65625 -1.289062 4.929688 -3.097656 5.203125 -4.984375 C 4.960938 -4.617188 4.707031 -4.25 4.4375 -3.875 C 4.164062 -3.5 3.890625 -3.144531 3.609375 -2.8125 C 3.242188 -2.375 2.90625 -2.085938 2.59375 -1.953125 C 2.28125 -1.828125 2.007812 -1.78125 1.78125 -1.8125 C 1.5625 -1.851562 1.398438 -1.910156 1.296875 -1.984375 C 0.890625 -2.222656 0.613281 -2.648438 0.46875 -3.265625 C 0.320312 -3.878906 0.300781 -4.609375 0.40625 -5.453125 C 0.519531 -6.296875 0.757812 -7.179688 1.125 -8.109375 C 1.1875 -8.234375 1.285156 -8.320312 1.421875 -8.375 C 1.554688 -8.4375 1.6875 -8.4375 1.8125 -8.375 C 1.945312 -8.320312 2.046875 -8.226562 2.109375 -8.09375 C 2.171875 -7.96875 2.175781 -7.832031 2.125 -7.6875 C 1.757812 -6.820312 1.535156 -6.046875 1.453125 -5.359375 C 1.367188 -4.671875 1.367188 -4.109375 1.453125 -3.671875 C 1.546875 -3.242188 1.675781 -2.984375 1.84375 -2.890625 C 2.050781 -2.765625 2.363281 -2.957031 2.78125 -3.46875 C 3.144531 -3.914062 3.507812 -4.40625 3.875 -4.9375 C 4.25 -5.46875 4.585938 -5.972656 4.890625 -6.453125 C 5.191406 -6.941406 5.4375 -7.34375 5.625 -7.65625 C 5.769531 -7.914062 5.976562 -8 6.25 -7.90625 C 6.53125 -7.800781 6.648438 -7.609375 6.609375 -7.328125 C 6.296875 -5.035156 5.976562 -2.859375 5.65625 -0.796875 C 6.8125 -1.878906 7.984375 -2.863281 9.171875 -3.75 C 10.367188 -4.632812 11.566406 -5.460938 12.765625 -6.234375 C 12.867188 -6.304688 12.992188 -6.328125 13.140625 -6.296875 C 13.296875 -6.265625 13.410156 -6.1875 13.484375 -6.0625 Z M 0.765625 16.453125 C 1.941406 12.773438 3.035156 8.082031 4.046875 2.375 C 3.128906 3.394531 2.238281 4.515625 1.375 5.734375 C 0.507812 6.960938 -0.304688 8.320312 -1.078125 9.8125 C -1.898438 11.40625 -2.53125 12.945312 -2.96875 14.4375 C -3.414062 15.925781 -3.695312 17.285156 -3.8125 18.515625 C -3.9375 19.753906 -3.945312 20.789062 -3.84375 21.625 C -3.738281 22.457031 -3.566406 23.019531 -3.328125 23.3125 C -3.242188 23.425781 -3.164062 23.488281 -3.09375 23.5 C -3.03125 23.507812 -2.984375 23.503906 -2.953125 23.484375 C -2.878906 23.460938 -2.738281 23.375 -2.53125 23.21875 C -2.332031 23.0625 -2.066406 22.75 -1.734375 22.28125 C -1.398438 21.8125 -1.019531 21.113281 -0.59375 20.1875 C -0.175781 19.257812 0.273438 18.015625 0.765625 16.453125 Z M 0.765625 16.453125 "/></g></g></g><g fill="#57cc99" fill-opacity="1"><g transform="translate(80.408241, 63.094575)"><g/></g></g><g fill="#57cc99" fill-opacity="1"><g transform="translate(88.868302, 63.094575)"><g><path d="M 21.328125 -26.515625 C 21.785156 -26.242188 22.238281 -25.863281 22.6875 -25.375 C 23.144531 -24.882812 23.535156 -24.257812 23.859375 -23.5 C 24.191406 -22.738281 24.410156 -21.8125 24.515625 -20.71875 C 24.617188 -19.625 24.566406 -18.332031 24.359375 -16.84375 C 23.847656 -13.351562 22.878906 -9.941406 21.453125 -6.609375 C 20.035156 -3.285156 18.238281 -0.242188 16.0625 2.515625 C 14.832031 4.054688 13.570312 5.398438 12.28125 6.546875 C 11 7.691406 9.757812 8.578125 8.5625 9.203125 C 7.375 9.828125 6.3125 10.140625 5.375 10.140625 C 5.351562 10.140625 5.332031 10.140625 5.3125 10.140625 C 5.082031 10.140625 4.851562 10.113281 4.625 10.0625 C 4.5 10.789062 4.394531 11.457031 4.3125 12.0625 C 4.226562 12.675781 4.171875 13.203125 4.140625 13.640625 C 4.171875 13.546875 4.207031 13.457031 4.25 13.375 C 4.300781 13.21875 4.394531 13.113281 4.53125 13.0625 C 4.664062 13.007812 4.800781 13.007812 4.9375 13.0625 C 5.082031 13.113281 5.179688 13.207031 5.234375 13.34375 C 5.285156 13.488281 5.285156 13.625 5.234375 13.75 C 4.941406 14.46875 4.6875 15 4.46875 15.34375 C 4.25 15.695312 4.007812 15.875 3.75 15.875 C 3.695312 15.875 3.632812 15.859375 3.5625 15.828125 C 3.425781 15.785156 3.3125 15.695312 3.21875 15.5625 C 3.132812 15.425781 3.082031 15.160156 3.0625 14.765625 C 3.039062 14.367188 3.070312 13.757812 3.15625 12.9375 C 3.238281 12.125 3.398438 11.023438 3.640625 9.640625 C 2.890625 9.128906 2.445312 8.285156 2.3125 7.109375 C 2.289062 6.960938 2.328125 6.828125 2.421875 6.703125 C 2.515625 6.585938 2.632812 6.519531 2.78125 6.5 C 2.925781 6.488281 3.050781 6.523438 3.15625 6.609375 C 3.269531 6.703125 3.335938 6.820312 3.359375 6.96875 C 3.429688 7.582031 3.585938 8.050781 3.828125 8.375 C 4.085938 6.90625 4.414062 5.125 4.8125 3.03125 C 5.207031 0.9375 5.6875 -1.535156 6.25 -4.390625 C 6.820312 -7.253906 7.492188 -10.566406 8.265625 -14.328125 C 8.628906 -16.179688 8.976562 -17.9375 9.3125 -19.59375 C 9.644531 -21.25 9.945312 -22.738281 10.21875 -24.0625 C 9.925781 -23.875 9.65625 -23.691406 9.40625 -23.515625 C 8.351562 -22.753906 7.351562 -21.851562 6.40625 -20.8125 C 5.457031 -19.78125 4.644531 -18.613281 3.96875 -17.3125 C 3.289062 -16.019531 2.828125 -14.628906 2.578125 -13.140625 C 2.328125 -11.660156 2.382812 -10.101562 2.75 -8.46875 C 2.769531 -8.3125 2.742188 -8.175781 2.671875 -8.0625 C 2.597656 -7.945312 2.488281 -7.867188 2.34375 -7.828125 C 2.195312 -7.804688 2.0625 -7.832031 1.9375 -7.90625 C 1.820312 -7.976562 1.742188 -8.085938 1.703125 -8.234375 C 1.316406 -10.003906 1.253906 -11.6875 1.515625 -13.28125 C 1.773438 -14.882812 2.265625 -16.375 2.984375 -17.75 C 3.710938 -19.125 4.582031 -20.375 5.59375 -21.5 C 6.601562 -22.625 7.660156 -23.578125 8.765625 -24.359375 C 9.335938 -24.765625 9.90625 -25.132812 10.46875 -25.46875 C 10.613281 -26.238281 10.742188 -26.898438 10.859375 -27.453125 C 10.878906 -27.597656 10.945312 -27.710938 11.0625 -27.796875 C 11.1875 -27.878906 11.320312 -27.898438 11.46875 -27.859375 C 11.613281 -27.847656 11.726562 -27.78125 11.8125 -27.65625 C 11.894531 -27.539062 11.925781 -27.410156 11.90625 -27.265625 C 11.832031 -26.929688 11.757812 -26.535156 11.6875 -26.078125 C 13.488281 -26.941406 15.242188 -27.414062 16.953125 -27.5 C 18.660156 -27.59375 20.117188 -27.265625 21.328125 -26.515625 Z M 23.3125 -16.984375 C 23.613281 -19.128906 23.550781 -20.929688 23.125 -22.390625 C 22.695312 -23.847656 21.914062 -24.929688 20.78125 -25.640625 C 19.644531 -26.316406 18.238281 -26.578125 16.5625 -26.421875 C 14.894531 -26.265625 13.1875 -25.71875 11.4375 -24.78125 C 11.164062 -23.382812 10.84375 -21.773438 10.46875 -19.953125 C 10.101562 -18.140625 9.707031 -16.191406 9.28125 -14.109375 C 8.914062 -12.304688 8.523438 -10.378906 8.109375 -8.328125 C 7.703125 -6.285156 7.296875 -4.222656 6.890625 -2.140625 C 6.484375 -0.0664062 6.097656 1.921875 5.734375 3.828125 C 5.367188 5.742188 5.054688 7.472656 4.796875 9.015625 C 4.960938 9.046875 5.132812 9.070312 5.3125 9.09375 C 5.332031 9.09375 5.351562 9.09375 5.375 9.09375 C 6.050781 9.09375 6.910156 8.832031 7.953125 8.3125 C 8.992188 7.800781 10.132812 7.015625 11.375 5.953125 C 12.625 4.890625 13.90625 3.519531 15.21875 1.84375 C 15.84375 1.070312 16.546875 0.0859375 17.328125 -1.109375 C 18.109375 -2.316406 18.890625 -3.710938 19.671875 -5.296875 C 20.460938 -6.890625 21.1875 -8.664062 21.84375 -10.625 C 22.5 -12.582031 22.988281 -14.703125 23.3125 -16.984375 Z M 23.3125 -16.984375 "/></g></g></g><g fill="#57cc99" fill-opacity="1"><g transform="translate(112.319481, 63.094575)"><g><path d="M 11.546875 -6.125 C 11.671875 -6.0625 11.753906 -5.960938 11.796875 -5.828125 C 11.847656 -5.691406 11.847656 -5.5625 11.796875 -5.4375 C 11.441406 -4.71875 11.054688 -4 10.640625 -3.28125 C 10.234375 -2.5625 9.804688 -1.898438 9.359375 -1.296875 C 8.910156 -0.703125 8.445312 -0.226562 7.96875 0.125 C 7.488281 0.476562 7.007812 0.65625 6.53125 0.65625 C 6.4375 0.65625 6.335938 0.648438 6.234375 0.640625 C 4.992188 0.398438 4.226562 -1.253906 3.9375 -4.328125 C 3.625 -3.898438 3.257812 -3.425781 2.84375 -2.90625 C 2.4375 -2.382812 2.003906 -1.863281 1.546875 -1.34375 C 1.472656 -1.269531 1.351562 -1.15625 1.1875 -1 C 1.019531 -0.84375 0.828125 -0.71875 0.609375 -0.625 C 0.390625 -0.539062 0.164062 -0.550781 -0.0625 -0.65625 C -0.5 -0.820312 -0.707031 -1.300781 -0.6875 -2.09375 C -0.6875 -2.550781 -0.597656 -3.117188 -0.421875 -3.796875 C -0.253906 -4.484375 -0.0078125 -5.171875 0.3125 -5.859375 C 0.632812 -6.546875 1.007812 -7.15625 1.4375 -7.6875 C 1.875 -8.21875 2.359375 -8.578125 2.890625 -8.765625 C 3.222656 -8.890625 3.628906 -8.910156 4.109375 -8.828125 C 4.585938 -8.742188 5.082031 -8.398438 5.59375 -7.796875 C 5.6875 -7.691406 5.726562 -7.5625 5.71875 -7.40625 C 5.707031 -7.257812 5.648438 -7.144531 5.546875 -7.0625 C 5.429688 -6.96875 5.300781 -6.925781 5.15625 -6.9375 C 5.007812 -6.945312 4.890625 -7.003906 4.796875 -7.109375 C 4.359375 -7.628906 3.976562 -7.875 3.65625 -7.84375 C 3.332031 -7.8125 3.0625 -7.710938 2.84375 -7.546875 C 2.4375 -7.253906 2.066406 -6.832031 1.734375 -6.28125 C 1.398438 -5.726562 1.125 -5.148438 0.90625 -4.546875 C 0.6875 -3.941406 0.53125 -3.375 0.4375 -2.84375 C 0.34375 -2.320312 0.316406 -1.941406 0.359375 -1.703125 C 0.410156 -1.742188 0.46875 -1.789062 0.53125 -1.84375 C 0.601562 -1.894531 0.675781 -1.96875 0.75 -2.0625 C 1.300781 -2.675781 1.804688 -3.28125 2.265625 -3.875 C 2.722656 -4.46875 3.117188 -4.992188 3.453125 -5.453125 C 3.535156 -5.585938 3.617188 -5.710938 3.703125 -5.828125 C 3.785156 -5.953125 3.863281 -6.054688 3.9375 -6.140625 C 4.082031 -6.328125 4.273438 -6.382812 4.515625 -6.3125 C 4.753906 -6.257812 4.882812 -6.101562 4.90625 -5.84375 C 4.957031 -4.644531 5.050781 -3.679688 5.1875 -2.953125 C 5.332031 -2.234375 5.484375 -1.691406 5.640625 -1.328125 C 5.804688 -0.972656 5.960938 -0.726562 6.109375 -0.59375 C 6.265625 -0.46875 6.378906 -0.40625 6.453125 -0.40625 C 6.796875 -0.332031 7.351562 -0.691406 8.125 -1.484375 C 8.894531 -2.273438 9.796875 -3.738281 10.828125 -5.875 C 10.898438 -6.019531 11.003906 -6.113281 11.140625 -6.15625 C 11.285156 -6.207031 11.421875 -6.195312 11.546875 -6.125 Z M 11.546875 -6.125 "/></g></g></g><g fill="#57cc99" fill-opacity="1"><g transform="translate(122.570764, 63.094575)"><g><path d="M 13.484375 -6.0625 C 13.566406 -5.945312 13.585938 -5.816406 13.546875 -5.671875 C 13.515625 -5.523438 13.445312 -5.414062 13.34375 -5.34375 C 12 -4.46875 10.648438 -3.519531 9.296875 -2.5 C 7.953125 -1.476562 6.632812 -0.320312 5.34375 0.96875 C 4.257812 7.445312 3.078125 12.710938 1.796875 16.765625 C 1.515625 17.585938 1.210938 18.425781 0.890625 19.28125 C 0.566406 20.132812 0.21875 20.929688 -0.15625 21.671875 C -0.53125 22.421875 -0.925781 23.046875 -1.34375 23.546875 C -1.769531 24.054688 -2.203125 24.375 -2.640625 24.5 C -2.773438 24.539062 -2.914062 24.5625 -3.0625 24.5625 C -3.476562 24.5625 -3.84375 24.375 -4.15625 24 C -4.539062 23.507812 -4.789062 22.757812 -4.90625 21.75 C -5.03125 20.738281 -5.007812 19.550781 -4.84375 18.1875 C -4.6875 16.832031 -4.375 15.390625 -3.90625 13.859375 C -3.4375 12.335938 -2.804688 10.820312 -2.015625 9.3125 C -1.054688 7.5 -0.0390625 5.863281 1.03125 4.40625 C 2.101562 2.957031 3.21875 1.632812 4.375 0.4375 C 4.65625 -1.289062 4.929688 -3.097656 5.203125 -4.984375 C 4.960938 -4.617188 4.707031 -4.25 4.4375 -3.875 C 4.164062 -3.5 3.890625 -3.144531 3.609375 -2.8125 C 3.242188 -2.375 2.90625 -2.085938 2.59375 -1.953125 C 2.28125 -1.828125 2.007812 -1.78125 1.78125 -1.8125 C 1.5625 -1.851562 1.398438 -1.910156 1.296875 -1.984375 C 0.890625 -2.222656 0.613281 -2.648438 0.46875 -3.265625 C 0.320312 -3.878906 0.300781 -4.609375 0.40625 -5.453125 C 0.519531 -6.296875 0.757812 -7.179688 1.125 -8.109375 C 1.1875 -8.234375 1.285156 -8.320312 1.421875 -8.375 C 1.554688 -8.4375 1.6875 -8.4375 1.8125 -8.375 C 1.945312 -8.320312 2.046875 -8.226562 2.109375 -8.09375 C 2.171875 -7.96875 2.175781 -7.832031 2.125 -7.6875 C 1.757812 -6.820312 1.535156 -6.046875 1.453125 -5.359375 C 1.367188 -4.671875 1.367188 -4.109375 1.453125 -3.671875 C 1.546875 -3.242188 1.675781 -2.984375 1.84375 -2.890625 C 2.050781 -2.765625 2.363281 -2.957031 2.78125 -3.46875 C 3.144531 -3.914062 3.507812 -4.40625 3.875 -4.9375 C 4.25 -5.46875 4.585938 -5.972656 4.890625 -6.453125 C 5.191406 -6.941406 5.4375 -7.34375 5.625 -7.65625 C 5.769531 -7.914062 5.976562 -8 6.25 -7.90625 C 6.53125 -7.800781 6.648438 -7.609375 6.609375 -7.328125 C 6.296875 -5.035156 5.976562 -2.859375 5.65625 -0.796875 C 6.8125 -1.878906 7.984375 -2.863281 9.171875 -3.75 C 10.367188 -4.632812 11.566406 -5.460938 12.765625 -6.234375 C 12.867188 -6.304688 12.992188 -6.328125 13.140625 -6.296875 C 13.296875 -6.265625 13.410156 -6.1875 13.484375 -6.0625 Z M 0.765625 16.453125 C 1.941406 12.773438 3.035156 8.082031 4.046875 2.375 C 3.128906 3.394531 2.238281 4.515625 1.375 5.734375 C 0.507812 6.960938 -0.304688 8.320312 -1.078125 9.8125 C -1.898438 11.40625 -2.53125 12.945312 -2.96875 14.4375 C -3.414062 15.925781 -3.695312 17.285156 -3.8125 18.515625 C -3.9375 19.753906 -3.945312 20.789062 -3.84375 21.625 C -3.738281 22.457031 -3.566406 23.019531 -3.328125 23.3125 C -3.242188 23.425781 -3.164062 23.488281 -3.09375 23.5 C -3.03125 23.507812 -2.984375 23.503906 -2.953125 23.484375 C -2.878906 23.460938 -2.738281 23.375 -2.53125 23.21875 C -2.332031 23.0625 -2.066406 22.75 -1.734375 22.28125 C -1.398438 21.8125 -1.019531 21.113281 -0.59375 20.1875 C -0.175781 19.257812 0.273438 18.015625 0.765625 16.453125 Z M 0.765625 16.453125 "/></g></g></g><g fill="#57cc99" fill-opacity="1"><g transform="translate(134.77861, 63.094575)"><g/></g></g><g fill="#57cc99" fill-opacity="1"><g transform="translate(143.23867, 63.094575)"><g><path d="M 22.40625 -6.421875 C 22.53125 -6.367188 22.613281 -6.269531 22.65625 -6.125 C 22.707031 -5.988281 22.707031 -5.859375 22.65625 -5.734375 C 20.820312 -1.785156 18.992188 1.554688 17.171875 4.296875 C 15.347656 7.035156 13.597656 9.113281 11.921875 10.53125 C 10.253906 11.957031 8.695312 12.671875 7.25 12.671875 C 6.820312 12.671875 6.410156 12.609375 6.015625 12.484375 C 5.015625 12.191406 4.171875 11.539062 3.484375 10.53125 C 2.796875 9.519531 2.269531 8.222656 1.90625 6.640625 C 1.550781 5.054688 1.375 3.25 1.375 1.21875 C 1.375 -0.800781 1.566406 -3 1.953125 -5.375 C 2.210938 -6.96875 2.582031 -8.671875 3.0625 -10.484375 C 3.539062 -12.296875 4.082031 -14.046875 4.6875 -15.734375 C 5.03125 -16.691406 5.445312 -17.734375 5.9375 -18.859375 C 6.425781 -19.992188 6.972656 -21.113281 7.578125 -22.21875 C 8.179688 -23.320312 8.851562 -24.3125 9.59375 -25.1875 C 10.175781 -25.90625 10.703125 -26.40625 11.171875 -26.6875 C 11.640625 -26.976562 12.046875 -27.128906 12.390625 -27.140625 C 12.742188 -27.160156 13.039062 -27.117188 13.28125 -27.015625 C 13.882812 -26.722656 14.3125 -26.113281 14.5625 -25.1875 C 14.8125 -24.269531 14.9375 -23.128906 14.9375 -21.765625 C 14.9375 -20.410156 14.835938 -18.914062 14.640625 -17.28125 C 14.453125 -15.644531 14.195312 -13.957031 13.875 -12.21875 C 13.550781 -10.488281 13.207031 -8.796875 12.84375 -7.140625 C 12.800781 -7.015625 12.71875 -6.910156 12.59375 -6.828125 C 12.46875 -6.742188 12.335938 -6.71875 12.203125 -6.75 C 12.054688 -6.789062 11.941406 -6.867188 11.859375 -6.984375 C 11.773438 -7.109375 11.753906 -7.242188 11.796875 -7.390625 C 12.515625 -10.566406 13.035156 -13.296875 13.359375 -15.578125 C 13.679688 -17.867188 13.847656 -19.757812 13.859375 -21.25 C 13.878906 -22.738281 13.789062 -23.867188 13.59375 -24.640625 C 13.40625 -25.410156 13.144531 -25.878906 12.8125 -26.046875 C 12.5625 -26.171875 12.222656 -26.09375 11.796875 -25.8125 C 11.367188 -25.539062 10.910156 -25.113281 10.421875 -24.53125 C 9.722656 -23.6875 9.050781 -22.6875 8.40625 -21.53125 C 7.757812 -20.375 7.15625 -19.109375 6.59375 -17.734375 C 6.039062 -16.367188 5.53125 -14.957031 5.0625 -13.5 C 4.59375 -12.050781 4.179688 -10.617188 3.828125 -9.203125 C 3.484375 -7.785156 3.207031 -6.453125 3 -5.203125 C 2.632812 -2.984375 2.445312 -0.898438 2.4375 1.046875 C 2.425781 2.992188 2.585938 4.738281 2.921875 6.28125 C 3.234375 7.71875 3.679688 8.878906 4.265625 9.765625 C 4.859375 10.660156 5.550781 11.226562 6.34375 11.46875 C 8.082031 12.019531 10.1875 11.007812 12.65625 8.4375 C 15.550781 5.40625 18.5625 0.535156 21.6875 -6.171875 C 21.75 -6.296875 21.847656 -6.382812 21.984375 -6.4375 C 22.117188 -6.5 22.257812 -6.492188 22.40625 -6.421875 Z M 22.40625 -6.421875 "/></g></g></g><g fill="#57cc99" fill-opacity="1"><g transform="translate(164.512834, 63.094575)"><g><path d="M 12.09375 -6.25 C 12.226562 -6.175781 12.320312 -6.070312 12.375 -5.9375 C 12.425781 -5.800781 12.414062 -5.671875 12.34375 -5.546875 C 12 -4.785156 11.570312 -3.9375 11.0625 -3 C 10.5625 -2.0625 10.023438 -1.117188 9.453125 -0.171875 C 8.878906 0.765625 8.296875 1.625 7.703125 2.40625 C 7.117188 3.1875 6.550781 3.820312 6 4.3125 C 5.457031 4.800781 4.960938 5.046875 4.515625 5.046875 C 4.390625 5.046875 4.269531 5.019531 4.15625 4.96875 C 3.769531 4.8125 3.515625 4.457031 3.390625 3.90625 C 3.273438 3.363281 3.296875 2.578125 3.453125 1.546875 C 3.703125 -0.304688 4.378906 -2.9375 5.484375 -6.34375 C 5.460938 -6.34375 5.445312 -6.335938 5.4375 -6.328125 C 5.4375 -6.316406 5.425781 -6.3125 5.40625 -6.3125 C 5.03125 -6.050781 4.585938 -5.78125 4.078125 -5.5 C 3.566406 -5.226562 3.035156 -5.046875 2.484375 -4.953125 C 1.929688 -4.867188 1.40625 -4.988281 0.90625 -5.3125 C 0.207031 -5.8125 -0.144531 -6.5 -0.15625 -7.375 C -0.175781 -8.257812 0.148438 -9.226562 0.828125 -10.28125 C 1.046875 -10.613281 1.332031 -10.976562 1.6875 -11.375 C 2.050781 -11.78125 2.429688 -12.09375 2.828125 -12.3125 C 3.222656 -12.539062 3.578125 -12.550781 3.890625 -12.34375 C 4.054688 -12.25 4.175781 -12.09375 4.25 -11.875 C 4.332031 -11.65625 4.328125 -11.316406 4.234375 -10.859375 C 4.148438 -10.398438 3.929688 -9.785156 3.578125 -9.015625 C 3.234375 -8.242188 2.710938 -7.242188 2.015625 -6.015625 C 2.429688 -5.953125 2.898438 -6.066406 3.421875 -6.359375 C 3.953125 -6.660156 4.421875 -6.9375 4.828125 -7.1875 C 5.210938 -7.445312 5.53125 -7.632812 5.78125 -7.75 C 6.039062 -7.875 6.28125 -7.851562 6.5 -7.6875 C 6.707031 -7.519531 6.789062 -7.316406 6.75 -7.078125 C 6.71875 -6.835938 6.679688 -6.65625 6.640625 -6.53125 C 6.035156 -4.625 5.566406 -3.035156 5.234375 -1.765625 C 4.898438 -0.492188 4.671875 0.523438 4.546875 1.296875 C 4.429688 2.066406 4.375 2.644531 4.375 3.03125 C 4.375 3.414062 4.398438 3.664062 4.453125 3.78125 C 4.515625 3.90625 4.546875 3.976562 4.546875 4 C 4.765625 4.03125 5.21875 3.671875 5.90625 2.921875 C 6.601562 2.179688 7.425781 1.066406 8.375 -0.421875 C 9.332031 -1.921875 10.335938 -3.773438 11.390625 -5.984375 C 11.460938 -6.128906 11.566406 -6.222656 11.703125 -6.265625 C 11.835938 -6.316406 11.96875 -6.3125 12.09375 -6.25 Z M 1 -8.125 C 0.882812 -7.738281 0.847656 -7.421875 0.890625 -7.171875 C 0.941406 -6.929688 1.015625 -6.738281 1.109375 -6.59375 C 1.691406 -7.613281 2.132812 -8.445312 2.4375 -9.09375 C 2.738281 -9.738281 2.941406 -10.234375 3.046875 -10.578125 C 3.160156 -10.929688 3.226562 -11.179688 3.25 -11.328125 C 3.050781 -11.210938 2.800781 -11 2.5 -10.6875 C 2.195312 -10.375 1.898438 -10 1.609375 -9.5625 C 1.328125 -9.125 1.125 -8.644531 1 -8.125 Z M 1 -8.125 "/></g></g></g><g fill="#57cc99" fill-opacity="1"><g transform="translate(175.508155, 63.094575)"><g><path d="M 9.984375 -6.015625 C 10.109375 -5.921875 10.175781 -5.800781 10.1875 -5.65625 C 10.207031 -5.507812 10.175781 -5.378906 10.09375 -5.265625 C 9.613281 -4.660156 9.054688 -4.117188 8.421875 -3.640625 C 7.785156 -3.160156 7.125 -2.804688 6.4375 -2.578125 C 5.75 -2.347656 5.082031 -2.304688 4.4375 -2.453125 C 4.175781 -1.804688 3.8125 -1.304688 3.34375 -0.953125 C 2.875 -0.609375 2.398438 -0.4375 1.921875 -0.4375 C 1.921875 -0.4375 1.914062 -0.4375 1.90625 -0.4375 C 1.40625 -0.457031 0.96875 -0.628906 0.59375 -0.953125 C 0.21875 -1.273438 -0.0390625 -1.71875 -0.1875 -2.28125 C -0.351562 -2.925781 -0.378906 -3.535156 -0.265625 -4.109375 C -0.160156 -4.691406 0.0351562 -5.203125 0.328125 -5.640625 C 0.617188 -6.085938 0.953125 -6.429688 1.328125 -6.671875 C 1.453125 -6.765625 1.597656 -6.78125 1.765625 -6.71875 C 1.929688 -7.125 2.164062 -7.4375 2.46875 -7.65625 C 2.769531 -7.882812 3.085938 -7.96875 3.421875 -7.90625 C 3.617188 -7.875 3.835938 -7.75 4.078125 -7.53125 C 4.316406 -7.320312 4.507812 -6.945312 4.65625 -6.40625 C 4.800781 -5.863281 4.847656 -5.070312 4.796875 -4.03125 C 4.773438 -3.84375 4.75 -3.65625 4.71875 -3.46875 C 5.207031 -3.375 5.726562 -3.425781 6.28125 -3.625 C 6.832031 -3.832031 7.363281 -4.144531 7.875 -4.5625 C 8.394531 -4.976562 8.847656 -5.429688 9.234375 -5.921875 C 9.328125 -6.035156 9.445312 -6.097656 9.59375 -6.109375 C 9.738281 -6.128906 9.867188 -6.097656 9.984375 -6.015625 Z M 1.921875 -1.515625 C 2.160156 -1.515625 2.425781 -1.625 2.71875 -1.84375 C 3.019531 -2.0625 3.265625 -2.394531 3.453125 -2.84375 C 2.785156 -3.207031 2.304688 -3.628906 2.015625 -4.109375 C 1.734375 -4.585938 1.585938 -5.066406 1.578125 -5.546875 C 1.191406 -5.171875 0.9375 -4.695312 0.8125 -4.125 C 0.695312 -3.5625 0.703125 -3.050781 0.828125 -2.59375 C 0.878906 -2.382812 0.988281 -2.148438 1.15625 -1.890625 C 1.320312 -1.640625 1.578125 -1.515625 1.921875 -1.515625 Z M 3.71875 -4.078125 C 3.757812 -4.816406 3.742188 -5.382812 3.671875 -5.78125 C 3.609375 -6.1875 3.53125 -6.460938 3.4375 -6.609375 C 3.351562 -6.753906 3.289062 -6.835938 3.25 -6.859375 C 3.226562 -6.859375 3.21875 -6.859375 3.21875 -6.859375 C 3.164062 -6.859375 3.082031 -6.800781 2.96875 -6.6875 C 2.863281 -6.582031 2.773438 -6.421875 2.703125 -6.203125 C 2.585938 -5.847656 2.59375 -5.460938 2.71875 -5.046875 C 2.851562 -4.640625 3.1875 -4.257812 3.71875 -3.90625 C 3.71875 -3.96875 3.71875 -4.023438 3.71875 -4.078125 Z M 3.71875 -4.078125 "/></g></g></g><g fill="#57cc99" fill-opacity="1"><g transform="translate(184.32646, 63.094575)"><g><path d="M 9.125 -6.25 C 9.226562 -6.175781 9.300781 -6.066406 9.34375 -5.921875 C 9.382812 -5.773438 9.359375 -5.648438 9.265625 -5.546875 C 8.378906 -4.179688 7.503906 -2.921875 6.640625 -1.765625 C 5.773438 -0.609375 4.925781 0.328125 4.09375 1.046875 C 3.257812 1.765625 2.445312 2.125 1.65625 2.125 C 1.488281 2.125 1.320312 2.101562 1.15625 2.0625 C 0.5 1.914062 -0.00390625 1.53125 -0.359375 0.90625 C -0.628906 0.414062 -0.785156 -0.15625 -0.828125 -0.8125 C -0.878906 -1.46875 -0.847656 -2.132812 -0.734375 -2.8125 C -0.628906 -3.488281 -0.46875 -4.125 -0.25 -4.71875 C 0.113281 -5.726562 0.578125 -6.507812 1.140625 -7.0625 C 1.703125 -7.613281 2.234375 -7.804688 2.734375 -7.640625 C 2.816406 -7.617188 2.945312 -7.535156 3.125 -7.390625 C 3.300781 -7.242188 3.4375 -6.992188 3.53125 -6.640625 C 3.625 -6.296875 3.578125 -5.789062 3.390625 -5.125 C 3.347656 -4.976562 3.269531 -4.867188 3.15625 -4.796875 C 3.039062 -4.722656 2.90625 -4.703125 2.75 -4.734375 C 2.601562 -4.773438 2.492188 -4.859375 2.421875 -4.984375 C 2.347656 -5.117188 2.332031 -5.25 2.375 -5.375 C 2.476562 -5.8125 2.515625 -6.125 2.484375 -6.3125 C 2.460938 -6.507812 2.429688 -6.617188 2.390625 -6.640625 C 2.316406 -6.640625 2.101562 -6.488281 1.75 -6.1875 C 1.40625 -5.882812 1.070312 -5.265625 0.75 -4.328125 C 0.414062 -3.460938 0.234375 -2.582031 0.203125 -1.6875 C 0.179688 -0.800781 0.304688 -0.109375 0.578125 0.390625 C 0.765625 0.734375 1.03125 0.941406 1.375 1.015625 C 1.875 1.128906 2.4375 0.957031 3.0625 0.5 C 3.6875 0.0507812 4.3125 -0.550781 4.9375 -1.3125 C 5.570312 -2.070312 6.1875 -2.882812 6.78125 -3.75 C 7.382812 -4.613281 7.914062 -5.40625 8.375 -6.125 C 8.445312 -6.226562 8.554688 -6.296875 8.703125 -6.328125 C 8.859375 -6.367188 9 -6.34375 9.125 -6.25 Z M 9.125 -6.25 "/></g></g></g><g fill="#57cc99" fill-opacity="1"><g transform="translate(192.483398, 63.094575)"><g><path d="M 13.0625 -6.3125 C 13.175781 -6.238281 13.25 -6.128906 13.28125 -5.984375 C 13.320312 -5.835938 13.304688 -5.695312 13.234375 -5.5625 C 12.347656 -4.15625 11.566406 -3.007812 10.890625 -2.125 C 10.210938 -1.238281 9.628906 -0.566406 9.140625 -0.109375 C 8.648438 0.347656 8.238281 0.660156 7.90625 0.828125 C 7.582031 0.992188 7.316406 1.078125 7.109375 1.078125 C 6.910156 1.078125 6.753906 1.066406 6.640625 1.046875 C 6.222656 0.929688 5.910156 0.675781 5.703125 0.28125 C 5.503906 -0.101562 5.367188 -0.507812 5.296875 -0.9375 C 5.234375 -1.363281 5.195312 -1.6875 5.1875 -1.90625 C 5.144531 -2.539062 5.066406 -2.96875 4.953125 -3.1875 C 4.847656 -3.414062 4.769531 -3.53125 4.71875 -3.53125 C 4.695312 -3.53125 4.6875 -3.53125 4.6875 -3.53125 C 4.445312 -3.53125 4.050781 -3.191406 3.5 -2.515625 C 2.945312 -1.847656 2.296875 -0.800781 1.546875 0.625 C 0.804688 2.0625 0.0351562 3.929688 -0.765625 6.234375 C -0.835938 6.472656 -1.003906 6.59375 -1.265625 6.59375 C -1.304688 6.59375 -1.34375 6.59375 -1.375 6.59375 C -1.664062 6.519531 -1.804688 6.332031 -1.796875 6.03125 C -1.773438 5.71875 -1.691406 5.15625 -1.546875 4.34375 C -1.398438 3.539062 -1.203125 2.570312 -0.953125 1.4375 C -0.703125 0.3125 -0.425781 -0.910156 -0.125 -2.234375 C 0.175781 -3.554688 0.488281 -4.894531 0.8125 -6.25 C 1.132812 -7.613281 1.441406 -8.914062 1.734375 -10.15625 C 2.023438 -11.394531 2.289062 -12.507812 2.53125 -13.5 C 2.769531 -14.5 2.960938 -15.296875 3.109375 -15.890625 C 3.253906 -16.484375 3.328125 -16.789062 3.328125 -16.8125 C 3.753906 -18.5 4.222656 -20.035156 4.734375 -21.421875 C 5.253906 -22.816406 5.765625 -23.9375 6.265625 -24.78125 C 6.773438 -25.625 7.222656 -26.082031 7.609375 -26.15625 C 7.921875 -26.207031 8.160156 -26.113281 8.328125 -25.875 C 8.578125 -25.507812 8.550781 -24.742188 8.25 -23.578125 C 7.945312 -22.410156 7.394531 -20.9375 6.59375 -19.15625 C 5.800781 -17.375 4.789062 -15.378906 3.5625 -13.171875 C 3.226562 -11.796875 2.863281 -10.289062 2.46875 -8.65625 C 2.070312 -7.019531 1.6875 -5.375 1.3125 -3.71875 C 0.9375 -2.0625 0.59375 -0.535156 0.28125 0.859375 C 0.769531 -0.191406 1.273438 -1.140625 1.796875 -1.984375 C 2.328125 -2.828125 2.851562 -3.484375 3.375 -3.953125 C 3.894531 -4.421875 4.382812 -4.628906 4.84375 -4.578125 C 5.25 -4.523438 5.546875 -4.320312 5.734375 -3.96875 C 5.929688 -3.625 6.0625 -3.253906 6.125 -2.859375 C 6.195312 -2.460938 6.234375 -2.171875 6.234375 -1.984375 C 6.285156 -1.304688 6.375 -0.8125 6.5 -0.5 C 6.632812 -0.1875 6.765625 -0.0195312 6.890625 0 C 6.929688 0.0195312 7.054688 0 7.265625 -0.0625 C 7.472656 -0.132812 7.78125 -0.34375 8.1875 -0.6875 C 8.601562 -1.039062 9.148438 -1.644531 9.828125 -2.5 C 10.515625 -3.351562 11.347656 -4.566406 12.328125 -6.140625 C 12.398438 -6.253906 12.507812 -6.328125 12.65625 -6.359375 C 12.800781 -6.398438 12.9375 -6.382812 13.0625 -6.3125 Z M 7.421875 -24.609375 C 7.109375 -24.148438 6.6875 -23.335938 6.15625 -22.171875 C 5.632812 -21.003906 5.109375 -19.421875 4.578125 -17.421875 C 5.515625 -19.273438 6.195312 -20.796875 6.625 -21.984375 C 7.0625 -23.179688 7.328125 -24.054688 7.421875 -24.609375 Z M 7.421875 -24.609375 "/></g></g></g><g fill="#57cc99" fill-opacity="1"><g transform="translate(204.360549, 63.094575)"><g><path d="M 9.3125 -6.140625 C 9.445312 -6.066406 9.519531 -5.957031 9.53125 -5.8125 C 9.550781 -5.664062 9.523438 -5.539062 9.453125 -5.4375 C 8.367188 -3.925781 7.375 -2.675781 6.46875 -1.6875 C 5.570312 -0.707031 4.675781 0.101562 3.78125 0.75 C 3.09375 1.21875 2.421875 1.453125 1.765625 1.453125 C 1.253906 1.453125 0.800781 1.316406 0.40625 1.046875 C 0.15625 0.859375 -0.09375 0.53125 -0.34375 0.0625 C -0.59375 -0.40625 -0.722656 -1.082031 -0.734375 -1.96875 C -0.753906 -2.863281 -0.535156 -4.035156 -0.078125 -5.484375 C -0.078125 -5.484375 -0.078125 -5.492188 -0.078125 -5.515625 C 0.472656 -7.273438 1.117188 -8.617188 1.859375 -9.546875 C 2.609375 -10.472656 3.25 -10.945312 3.78125 -10.96875 C 4.195312 -10.988281 4.472656 -10.804688 4.609375 -10.421875 C 4.804688 -9.890625 4.5625 -9.128906 3.875 -8.140625 C 3.195312 -7.160156 2.195312 -6.117188 0.875 -5.015625 C 0.476562 -3.734375 0.285156 -2.726562 0.296875 -2 C 0.316406 -1.269531 0.414062 -0.742188 0.59375 -0.421875 C 0.78125 -0.0976562 0.929688 0.101562 1.046875 0.1875 C 1.597656 0.59375 2.304688 0.484375 3.171875 -0.140625 C 4.015625 -0.722656 4.867188 -1.488281 5.734375 -2.4375 C 6.597656 -3.382812 7.546875 -4.582031 8.578125 -6.03125 C 8.660156 -6.144531 8.773438 -6.210938 8.921875 -6.234375 C 9.078125 -6.265625 9.207031 -6.234375 9.3125 -6.140625 Z M 3.578125 -9.8125 C 3.378906 -9.6875 3.101562 -9.414062 2.75 -9 C 2.40625 -8.582031 2.050781 -7.976562 1.6875 -7.1875 C 2.34375 -7.832031 2.804688 -8.378906 3.078125 -8.828125 C 3.359375 -9.285156 3.523438 -9.613281 3.578125 -9.8125 Z M 3.578125 -9.8125 "/></g></g></g><g clip-path="url(#63cd08998a)"><g fill="#57cc99" fill-opacity="1"><g transform="translate(212.379694, 63.094575)"><g><path d="M 23.265625 -16.265625 C 23.359375 -16.148438 23.394531 -16.019531 23.375 -15.875 C 23.351562 -15.726562 23.28125 -15.609375 23.15625 -15.515625 C 22.9375 -15.367188 22.722656 -15.378906 22.515625 -15.546875 C 22.273438 -15.640625 21.726562 -15.703125 20.875 -15.734375 C 20.019531 -15.773438 18.945312 -15.800781 17.65625 -15.8125 C 16.375 -15.820312 14.960938 -15.816406 13.421875 -15.796875 C 11.878906 -15.773438 10.296875 -15.75 8.671875 -15.71875 C 7.046875 -15.695312 5.46875 -15.664062 3.9375 -15.625 C 3.375 -13.238281 2.78125 -10.644531 2.15625 -7.84375 C 1.53125 -5.039062 0.910156 -2.195312 0.296875 0.6875 C -0.484375 4.46875 -1.085938 7.570312 -1.515625 10 C -1.953125 12.425781 -2.238281 14.179688 -2.375 15.265625 C -2.332031 15.265625 -2.296875 15.273438 -2.265625 15.296875 C -2.117188 15.335938 -2.015625 15.425781 -1.953125 15.5625 C -1.898438 15.695312 -1.898438 15.828125 -1.953125 15.953125 C -2.066406 16.265625 -2.191406 16.554688 -2.328125 16.828125 C -2.460938 17.097656 -2.648438 17.234375 -2.890625 17.234375 C -2.953125 17.234375 -3.019531 17.222656 -3.09375 17.203125 C -3.34375 17.109375 -3.484375 16.910156 -3.515625 16.609375 C -3.546875 16.304688 -3.523438 15.890625 -3.453125 15.359375 C -3.367188 14.578125 -3.203125 13.460938 -2.953125 12.015625 C -2.734375 10.660156 -2.445312 9.070312 -2.09375 7.25 C -1.75 5.425781 -1.34375 3.429688 -0.875 1.265625 C -0.269531 -1.671875 0.347656 -4.59375 0.984375 -7.5 C 1.628906 -10.40625 2.25 -13.101562 2.84375 -15.59375 C 1.957031 -15.582031 1.117188 -15.566406 0.328125 -15.546875 C -0.460938 -15.523438 -1.175781 -15.503906 -1.8125 -15.484375 C -3.050781 -15.453125 -4.128906 -15.425781 -5.046875 -15.40625 C -5.960938 -15.382812 -6.613281 -15.375 -7 -15.375 C -7.144531 -15.375 -7.269531 -15.425781 -7.375 -15.53125 C -7.476562 -15.632812 -7.53125 -15.757812 -7.53125 -15.90625 C -7.53125 -16.050781 -7.476562 -16.171875 -7.375 -16.265625 C -7.269531 -16.367188 -7.144531 -16.421875 -7 -16.421875 C -6.613281 -16.421875 -5.960938 -16.4375 -5.046875 -16.46875 C -4.140625 -16.5 -3.070312 -16.53125 -1.84375 -16.5625 C -0.96875 -16.582031 -0.117188 -16.597656 0.703125 -16.609375 C 1.535156 -16.628906 2.335938 -16.648438 3.109375 -16.671875 C 3.390625 -17.847656 3.660156 -18.953125 3.921875 -19.984375 C 4.191406 -21.023438 4.445312 -21.976562 4.6875 -22.84375 C 4.71875 -22.988281 4.796875 -23.097656 4.921875 -23.171875 C 5.054688 -23.253906 5.1875 -23.273438 5.3125 -23.234375 C 5.46875 -23.203125 5.582031 -23.117188 5.65625 -22.984375 C 5.726562 -22.859375 5.742188 -22.722656 5.703125 -22.578125 C 5.265625 -20.941406 4.757812 -18.984375 4.1875 -16.703125 C 7.050781 -16.753906 9.503906 -16.796875 11.546875 -16.828125 C 13.585938 -16.859375 15.296875 -16.875 16.671875 -16.875 C 18.054688 -16.875 19.175781 -16.851562 20.03125 -16.8125 C 20.882812 -16.78125 21.53125 -16.738281 21.96875 -16.6875 C 22.40625 -16.644531 22.71875 -16.585938 22.90625 -16.515625 C 23.09375 -16.441406 23.210938 -16.359375 23.265625 -16.265625 Z M 23.265625 -16.265625 "/></g></g></g></g></svg>