<svg xmlns="http://www.w3.org/2000/svg" xmlns:xlink="http://www.w3.org/1999/xlink" width="300" zoomAndPan="magnify" viewBox="0 0 224.87999 74.999997" height="100" preserveAspectRatio="xMidYMid meet" version="1.0"><defs><g/><clipPath id="07b22fe242"><path d="M 0 13 L 224.761719 13 L 224.761719 65 L 0 65 Z M 0 13 " clip-rule="nonzero"/></clipPath><clipPath id="2d3104b757"><path d="M 215 13 L 224.761719 13 L 224.761719 33 L 215 33 Z M 215 13 " clip-rule="nonzero"/></clipPath><clipPath id="2caf571112"><path d="M 214 11 L 224.761719 11 L 224.761719 32 L 214 32 Z M 214 11 " clip-rule="nonzero"/></clipPath><clipPath id="b77b4cb7b2"><rect x="0" width="225" y="0" height="52"/></clipPath></defs><g clip-path="url(#07b22fe242)"><g transform="matrix(1, 0, 0, 1, 0, 13)"><g clip-path="url(#b77b4cb7b2)"><g fill="#6b4423" fill-opacity="1"><g transform="translate(1.278185, 32.451146)"><g><path d="M 9.375 -0.0625 C 8.90625 0 8.335938 0.0078125 7.671875 -0.03125 C 7.015625 -0.0703125 6.316406 -0.1875 5.578125 -0.375 C 4.847656 -0.570312 4.144531 -0.851562 3.46875 -1.21875 C 3.101562 -1.425781 2.707031 -1.722656 2.28125 -2.109375 C 1.863281 -2.492188 1.5 -2.925781 1.1875 -3.40625 C 0.875 -3.894531 0.71875 -4.390625 0.71875 -4.890625 C 0.71875 -5.160156 0.773438 -5.421875 0.890625 -5.671875 C 1.066406 -6.097656 1.394531 -6.320312 1.875 -6.34375 C 2.363281 -6.375 2.769531 -6.273438 3.09375 -6.046875 C 3.363281 -5.847656 3.535156 -5.613281 3.609375 -5.34375 C 3.691406 -5.082031 3.773438 -4.820312 3.859375 -4.5625 C 3.941406 -4.300781 4.117188 -4.070312 4.390625 -3.875 C 4.953125 -3.53125 5.640625 -3.285156 6.453125 -3.140625 C 7.265625 -2.992188 8.066406 -2.984375 8.859375 -3.109375 C 9.660156 -3.234375 10.296875 -3.519531 10.765625 -3.96875 C 11.023438 -4.238281 11.234375 -4.570312 11.390625 -4.96875 C 11.546875 -5.375 11.625 -5.789062 11.625 -6.21875 C 11.625 -7.101562 11.335938 -7.738281 10.765625 -8.125 C 10.203125 -8.507812 9.46875 -8.828125 8.5625 -9.078125 C 6.925781 -9.523438 5.71875 -10.140625 4.9375 -10.921875 C 4.15625 -11.703125 3.835938 -12.804688 3.984375 -14.234375 C 4.140625 -15.421875 4.570312 -16.421875 5.28125 -17.234375 C 6 -18.046875 6.878906 -18.660156 7.921875 -19.078125 C 8.960938 -19.492188 10.035156 -19.703125 11.140625 -19.703125 C 11.753906 -19.703125 12.347656 -19.640625 12.921875 -19.515625 C 13.503906 -19.398438 14.054688 -19.21875 14.578125 -18.96875 C 14.847656 -18.851562 15.035156 -18.703125 15.140625 -18.515625 C 15.242188 -18.335938 15.296875 -18.144531 15.296875 -17.9375 C 15.296875 -17.5625 15.144531 -17.210938 14.84375 -16.890625 C 14.550781 -16.566406 14.179688 -16.40625 13.734375 -16.40625 C 13.328125 -16.40625 12.929688 -16.488281 12.546875 -16.65625 C 12.160156 -16.832031 11.773438 -16.941406 11.390625 -16.984375 C 10.984375 -17.015625 10.570312 -17 10.15625 -16.9375 C 9.75 -16.882812 9.363281 -16.769531 9 -16.59375 C 8.726562 -16.46875 8.414062 -16.222656 8.0625 -15.859375 C 7.71875 -15.503906 7.425781 -15.113281 7.1875 -14.6875 C 6.945312 -14.269531 6.828125 -13.867188 6.828125 -13.484375 C 6.828125 -13.035156 6.96875 -12.707031 7.25 -12.5 C 7.539062 -12.300781 7.878906 -12.164062 8.265625 -12.09375 C 8.648438 -12.03125 8.988281 -11.972656 9.28125 -11.921875 C 10.070312 -11.804688 10.84375 -11.59375 11.59375 -11.28125 C 12.34375 -10.96875 12.953125 -10.472656 13.421875 -9.796875 C 13.828125 -9.242188 14.113281 -8.609375 14.28125 -7.890625 C 14.457031 -7.179688 14.546875 -6.46875 14.546875 -5.75 C 14.546875 -5.195312 14.472656 -4.609375 14.328125 -3.984375 C 14.179688 -3.367188 13.921875 -2.789062 13.546875 -2.25 C 13.171875 -1.71875 12.644531 -1.253906 11.96875 -0.859375 C 11.300781 -0.460938 10.4375 -0.195312 9.375 -0.0625 Z M 9.375 -0.0625 "/></g></g></g><g fill="#6b4423" fill-opacity="1"><g transform="translate(17.301007, 32.451146)"><g><path d="M 4.25 0 C 4.039062 0 3.820312 -0.0546875 3.59375 -0.171875 C 3.28125 -0.367188 3.066406 -0.648438 2.953125 -1.015625 C 2.835938 -1.378906 2.769531 -1.765625 2.75 -2.171875 C 2.726562 -2.578125 2.6875 -2.929688 2.625 -3.234375 C 2.550781 -3.859375 2.457031 -4.625 2.34375 -5.53125 C 2.226562 -6.4375 2.113281 -7.40625 2 -8.4375 C 1.894531 -9.476562 1.789062 -10.507812 1.6875 -11.53125 C 1.582031 -12.5625 1.503906 -13.5 1.453125 -14.34375 C 1.429688 -14.726562 1.566406 -15.050781 1.859375 -15.3125 C 2.160156 -15.570312 2.492188 -15.703125 2.859375 -15.703125 C 3.265625 -15.703125 3.5625 -15.582031 3.75 -15.34375 C 3.945312 -15.101562 4.070312 -14.804688 4.125 -14.453125 C 4.1875 -14.109375 4.226562 -13.773438 4.25 -13.453125 C 4.925781 -14.066406 5.671875 -14.492188 6.484375 -14.734375 C 7.304688 -14.972656 8.113281 -14.992188 8.90625 -14.796875 C 9.695312 -14.609375 10.375 -14.148438 10.9375 -13.421875 C 11.570312 -14.035156 12.328125 -14.566406 13.203125 -15.015625 C 14.078125 -15.472656 14.96875 -15.703125 15.875 -15.703125 C 16.800781 -15.703125 17.519531 -15.472656 18.03125 -15.015625 C 18.539062 -14.566406 18.921875 -13.992188 19.171875 -13.296875 C 19.421875 -12.609375 19.613281 -11.914062 19.75 -11.21875 C 20.082031 -9.769531 20.257812 -8.300781 20.28125 -6.8125 C 20.3125 -5.332031 20.234375 -3.945312 20.046875 -2.65625 C 20.003906 -2.351562 19.9375 -2.015625 19.84375 -1.640625 C 19.757812 -1.273438 19.617188 -0.960938 19.421875 -0.703125 C 19.222656 -0.441406 18.921875 -0.3125 18.515625 -0.3125 C 18.453125 -0.3125 18.382812 -0.316406 18.3125 -0.328125 C 18.25 -0.335938 18.179688 -0.351562 18.109375 -0.375 C 17.742188 -0.46875 17.492188 -0.632812 17.359375 -0.875 C 17.234375 -1.125 17.171875 -1.398438 17.171875 -1.703125 C 17.171875 -1.921875 17.191406 -2.128906 17.234375 -2.328125 C 17.273438 -2.523438 17.304688 -2.710938 17.328125 -2.890625 C 17.492188 -3.972656 17.570312 -5.128906 17.5625 -6.359375 C 17.5625 -7.597656 17.453125 -8.773438 17.234375 -9.890625 C 17.160156 -10.347656 17.066406 -10.851562 16.953125 -11.40625 C 16.847656 -11.957031 16.664062 -12.4375 16.40625 -12.84375 L 16.015625 -12.953125 C 15.941406 -12.953125 15.851562 -12.945312 15.75 -12.9375 C 15.644531 -12.925781 15.550781 -12.921875 15.46875 -12.921875 C 15.125 -12.921875 14.757812 -12.820312 14.375 -12.625 C 13.988281 -12.425781 13.628906 -12.191406 13.296875 -11.921875 C 12.972656 -11.648438 12.710938 -11.398438 12.515625 -11.171875 C 12.328125 -10.953125 12.242188 -10.832031 12.265625 -10.8125 C 12.265625 -10.582031 12.328125 -10.289062 12.453125 -9.9375 C 12.578125 -9.59375 12.703125 -9.238281 12.828125 -8.875 C 12.953125 -8.507812 13.015625 -8.179688 13.015625 -7.890625 C 13.015625 -7.429688 12.867188 -7.082031 12.578125 -6.84375 C 12.285156 -6.601562 11.976562 -6.484375 11.65625 -6.484375 C 11.40625 -6.484375 11.164062 -6.546875 10.9375 -6.671875 C 10.71875 -6.796875 10.550781 -6.984375 10.4375 -7.234375 C 10.269531 -7.554688 10.15625 -7.925781 10.09375 -8.34375 C 10.03125 -8.757812 9.941406 -9.148438 9.828125 -9.515625 C 9.640625 -9.628906 9.488281 -9.796875 9.375 -10.015625 C 9.257812 -10.242188 9.203125 -10.472656 9.203125 -10.703125 C 9.203125 -11.023438 9.082031 -11.34375 8.84375 -11.65625 C 8.613281 -11.976562 8.304688 -12.191406 7.921875 -12.296875 C 7.628906 -12.367188 7.296875 -12.296875 6.921875 -12.078125 C 6.546875 -11.859375 6.1875 -11.5625 5.84375 -11.1875 C 5.5 -10.820312 5.210938 -10.453125 4.984375 -10.078125 C 4.765625 -9.703125 4.65625 -9.398438 4.65625 -9.171875 C 4.769531 -8.285156 4.863281 -7.40625 4.9375 -6.53125 C 5.019531 -5.664062 5.128906 -4.835938 5.265625 -4.046875 C 5.316406 -3.617188 5.382812 -3.175781 5.46875 -2.71875 C 5.5625 -2.257812 5.609375 -1.804688 5.609375 -1.359375 C 5.609375 -0.972656 5.472656 -0.648438 5.203125 -0.390625 C 4.929688 -0.128906 4.613281 0 4.25 0 Z M 4.25 0 "/></g></g></g><g fill="#6b4423" fill-opacity="1"><g transform="translate(38.327349, 32.451146)"><g><path d="M 3.53125 -16.015625 C 3.300781 -16.015625 3.066406 -16.078125 2.828125 -16.203125 C 2.578125 -16.347656 2.398438 -16.519531 2.296875 -16.71875 C 2.191406 -16.925781 2.140625 -17.140625 2.140625 -17.359375 C 2.140625 -17.742188 2.28125 -18.09375 2.5625 -18.40625 C 2.84375 -18.726562 3.175781 -18.890625 3.5625 -18.890625 C 3.789062 -18.890625 4.019531 -18.832031 4.25 -18.71875 C 4.5 -18.582031 4.675781 -18.40625 4.78125 -18.1875 C 4.894531 -17.976562 4.953125 -17.769531 4.953125 -17.5625 C 4.953125 -17.175781 4.8125 -16.820312 4.53125 -16.5 C 4.25 -16.175781 3.914062 -16.015625 3.53125 -16.015625 Z M 2.859375 0 C 2.472656 0 2.144531 -0.132812 1.875 -0.40625 C 1.707031 -0.582031 1.59375 -0.800781 1.53125 -1.0625 C 1.476562 -1.332031 1.453125 -1.613281 1.453125 -1.90625 C 1.453125 -2.195312 1.460938 -2.484375 1.484375 -2.765625 C 1.515625 -3.046875 1.53125 -3.28125 1.53125 -3.46875 C 1.53125 -4.820312 1.535156 -6.285156 1.546875 -7.859375 C 1.554688 -9.441406 1.570312 -10.910156 1.59375 -12.265625 C 1.613281 -12.691406 1.773438 -13.035156 2.078125 -13.296875 C 2.390625 -13.554688 2.738281 -13.6875 3.125 -13.6875 C 3.507812 -13.6875 3.835938 -13.550781 4.109375 -13.28125 C 4.285156 -13.101562 4.398438 -12.878906 4.453125 -12.609375 C 4.515625 -12.335938 4.546875 -12.054688 4.546875 -11.765625 C 4.546875 -11.484375 4.53125 -11.207031 4.5 -10.9375 C 4.46875 -10.664062 4.453125 -10.421875 4.453125 -10.203125 C 4.429688 -8.859375 4.425781 -7.394531 4.4375 -5.8125 C 4.445312 -4.226562 4.429688 -2.765625 4.390625 -1.421875 C 4.378906 -0.992188 4.21875 -0.648438 3.90625 -0.390625 C 3.59375 -0.128906 3.242188 0 2.859375 0 Z M 2.859375 0 "/></g></g></g><g fill="#6b4423" fill-opacity="1"><g transform="translate(43.996067, 32.451146)"><g><path d="M 5.71875 -0.0625 C 5.394531 -0.0625 5.078125 -0.109375 4.765625 -0.203125 C 4.460938 -0.296875 4.203125 -0.390625 3.984375 -0.484375 C 3.078125 -0.953125 2.460938 -1.597656 2.140625 -2.421875 C 1.828125 -3.253906 1.65625 -4.066406 1.625 -4.859375 C 1.539062 -6.222656 1.488281 -7.59375 1.46875 -8.96875 C 1.457031 -10.351562 1.453125 -11.734375 1.453125 -13.109375 L 1.453125 -18.078125 C 1.453125 -18.484375 1.472656 -18.910156 1.515625 -19.359375 C 1.566406 -19.816406 1.675781 -20.207031 1.84375 -20.53125 C 2.019531 -20.863281 2.289062 -21.03125 2.65625 -21.03125 C 3.332031 -21.03125 3.847656 -20.769531 4.203125 -20.25 C 4.566406 -19.726562 4.75 -19.140625 4.75 -18.484375 C 4.75 -18.015625 4.722656 -17.554688 4.671875 -17.109375 C 4.617188 -16.671875 4.59375 -16.300781 4.59375 -16 C 4.59375 -15.226562 4.585938 -14.453125 4.578125 -13.671875 C 4.566406 -12.890625 4.5625 -12.101562 4.5625 -11.3125 C 4.5625 -9.820312 4.585938 -8.5 4.640625 -7.34375 C 4.691406 -6.1875 4.75 -5.285156 4.8125 -4.640625 C 4.882812 -3.992188 4.9375 -3.671875 4.96875 -3.671875 C 4.988281 -3.671875 5.015625 -3.628906 5.046875 -3.546875 C 5.078125 -3.472656 5.070312 -3.492188 5.03125 -3.609375 C 5.1875 -3.335938 5.382812 -3.171875 5.625 -3.109375 C 5.863281 -3.046875 6.113281 -3 6.375 -2.96875 C 6.632812 -2.9375 6.863281 -2.867188 7.0625 -2.765625 C 7.269531 -2.660156 7.394531 -2.421875 7.4375 -2.046875 C 7.46875 -1.796875 7.488281 -1.617188 7.5 -1.515625 C 7.507812 -1.410156 7.515625 -1.320312 7.515625 -1.25 C 7.515625 -0.820312 7.332031 -0.515625 6.96875 -0.328125 C 6.601562 -0.148438 6.1875 -0.0625 5.71875 -0.0625 Z M 5.71875 -0.0625 "/></g></g></g><g fill="#6b4423" fill-opacity="1"><g transform="translate(52.238865, 32.451146)"><g><path d="M 5.640625 -0.0625 C 4.710938 -0.0625 3.941406 -0.328125 3.328125 -0.859375 C 2.710938 -1.390625 2.210938 -2.070312 1.828125 -2.90625 C 1.453125 -3.75 1.179688 -4.65625 1.015625 -5.625 C 0.859375 -6.59375 0.78125 -7.523438 0.78125 -8.421875 C 0.78125 -9.015625 0.820312 -9.710938 0.90625 -10.515625 C 1 -11.316406 1.175781 -12.148438 1.4375 -13.015625 C 1.707031 -13.878906 2.113281 -14.679688 2.65625 -15.421875 C 3.144531 -16.085938 3.738281 -16.648438 4.4375 -17.109375 C 5.144531 -17.578125 5.910156 -17.8125 6.734375 -17.8125 C 7.867188 -17.8125 8.789062 -17.453125 9.5 -16.734375 C 10.207031 -16.023438 10.6875 -15.171875 10.9375 -14.171875 C 11.03125 -13.847656 11.085938 -13.46875 11.109375 -13.03125 C 11.140625 -12.59375 11.15625 -12.179688 11.15625 -11.796875 C 11.15625 -11.410156 11.140625 -11.101562 11.109375 -10.875 C 11.046875 -10.46875 10.96875 -10.050781 10.875 -9.625 C 10.78125 -9.207031 10.507812 -8.921875 10.0625 -8.765625 C 9.582031 -8.566406 9.039062 -8.429688 8.4375 -8.359375 C 7.84375 -8.285156 7.273438 -8.195312 6.734375 -8.09375 C 6.179688 -8 5.628906 -7.875 5.078125 -7.71875 C 4.523438 -7.5625 4.046875 -7.546875 3.640625 -7.671875 C 3.660156 -7.378906 3.703125 -6.972656 3.765625 -6.453125 C 3.835938 -5.929688 3.945312 -5.398438 4.09375 -4.859375 C 4.238281 -4.316406 4.445312 -3.859375 4.71875 -3.484375 C 5 -3.109375 5.351562 -2.921875 5.78125 -2.921875 C 6.113281 -2.921875 6.476562 -3.050781 6.875 -3.3125 C 7.269531 -3.570312 7.660156 -3.890625 8.046875 -4.265625 C 8.429688 -4.640625 8.773438 -5 9.078125 -5.34375 C 9.367188 -5.695312 9.722656 -5.890625 10.140625 -5.921875 C 10.554688 -5.960938 10.914062 -5.832031 11.21875 -5.53125 C 11.488281 -5.238281 11.625 -4.925781 11.625 -4.59375 C 11.625 -4.207031 11.46875 -3.828125 11.15625 -3.453125 C 10.851562 -3.078125 10.566406 -2.742188 10.296875 -2.453125 C 9.679688 -1.859375 8.976562 -1.3125 8.1875 -0.8125 C 7.394531 -0.3125 6.546875 -0.0625 5.640625 -0.0625 Z M 3.734375 -10.4375 C 4.003906 -10.476562 4.347656 -10.535156 4.765625 -10.609375 C 5.191406 -10.691406 5.617188 -10.769531 6.046875 -10.84375 C 6.484375 -10.925781 6.863281 -11 7.1875 -11.0625 C 7.507812 -11.125 7.6875 -11.15625 7.71875 -11.15625 C 7.875 -11.195312 8.007812 -11.21875 8.125 -11.21875 C 8.238281 -11.21875 8.304688 -11.332031 8.328125 -11.5625 C 8.328125 -11.914062 8.332031 -12.125 8.34375 -12.1875 C 8.351562 -12.257812 8.359375 -12.328125 8.359375 -12.390625 C 8.359375 -12.460938 8.335938 -12.660156 8.296875 -12.984375 C 8.085938 -14.179688 7.710938 -14.816406 7.171875 -14.890625 C 6.628906 -14.972656 5.925781 -14.65625 5.0625 -13.9375 L 4.953125 -13.796875 C 4.617188 -13.296875 4.351562 -12.757812 4.15625 -12.1875 C 3.96875 -11.625 3.828125 -11.039062 3.734375 -10.4375 Z M 3.734375 -10.4375 "/></g></g></g><g fill="#6b4423" fill-opacity="1"><g transform="translate(64.646436, 32.451146)"><g><path d="M 3.234375 6.890625 C 2.753906 6.890625 2.257812 6.8125 1.75 6.65625 C 1.238281 6.5 0.800781 6.265625 0.4375 5.953125 C 0.0820312 5.648438 -0.09375 5.285156 -0.09375 4.859375 C -0.09375 4.742188 -0.0703125 4.625 -0.03125 4.5 C 0.0078125 4.375 0.0507812 4.265625 0.09375 4.171875 C 0.351562 3.722656 0.695312 3.5 1.125 3.5 C 1.238281 3.5 1.492188 3.546875 1.890625 3.640625 C 2.285156 3.734375 2.820312 3.84375 3.5 3.96875 C 3.820312 3.925781 4.171875 3.820312 4.546875 3.65625 C 4.929688 3.488281 5.273438 3.28125 5.578125 3.03125 C 5.890625 2.78125 6.113281 2.539062 6.25 2.3125 C 6.457031 1.90625 6.691406 1.515625 6.953125 1.140625 C 7.210938 0.765625 7.441406 0.394531 7.640625 0.03125 L 8.328125 -1.46875 L 7.484375 -2.40625 L 2.984375 -9.203125 C 2.785156 -9.472656 2.613281 -9.75 2.46875 -10.03125 C 2.320312 -10.320312 2.25 -10.613281 2.25 -10.90625 C 2.25 -11.332031 2.410156 -11.65625 2.734375 -11.875 C 3.066406 -12.09375 3.359375 -12.203125 3.609375 -12.203125 C 4.171875 -12.203125 4.703125 -11.835938 5.203125 -11.109375 C 5.921875 -9.984375 6.644531 -8.867188 7.375 -7.765625 C 8.101562 -6.671875 8.835938 -5.578125 9.578125 -4.484375 C 9.847656 -5.296875 10.113281 -6.113281 10.375 -6.9375 C 10.644531 -7.769531 10.878906 -8.597656 11.078125 -9.421875 C 11.191406 -9.847656 11.296875 -10.273438 11.390625 -10.703125 C 11.492188 -11.140625 11.648438 -11.507812 11.859375 -11.8125 C 12.066406 -12.113281 12.394531 -12.265625 12.84375 -12.265625 C 12.914062 -12.265625 12.984375 -12.257812 13.046875 -12.25 C 13.117188 -12.238281 13.195312 -12.222656 13.28125 -12.203125 C 13.945312 -12.023438 14.28125 -11.546875 14.28125 -10.765625 C 14.28125 -10.390625 14.234375 -10.007812 14.140625 -9.625 C 14.046875 -9.238281 13.957031 -8.910156 13.875 -8.640625 C 13.707031 -7.953125 13.460938 -7.066406 13.140625 -5.984375 C 12.828125 -4.910156 12.4375 -3.753906 11.96875 -2.515625 C 11.507812 -1.285156 10.988281 -0.0976562 10.40625 1.046875 C 9.832031 2.203125 9.207031 3.203125 8.53125 4.046875 C 7.820312 4.929688 7.003906 5.625 6.078125 6.125 C 5.148438 6.632812 4.203125 6.890625 3.234375 6.890625 Z M 3.234375 6.890625 "/></g></g></g><g fill="#6b4423" fill-opacity="1"><g transform="translate(79.570218, 32.451146)"><g/></g></g><g fill="#6b4423" fill-opacity="1"><g transform="translate(86.80075, 32.451146)"><g><path d="M 3.59375 0 C 3.03125 0 2.644531 -0.1875 2.4375 -0.5625 C 2.238281 -0.9375 2.128906 -1.363281 2.109375 -1.84375 C 2.085938 -2.132812 2.066406 -2.601562 2.046875 -3.25 C 2.035156 -3.894531 2.007812 -4.628906 1.96875 -5.453125 C 1.925781 -6.285156 1.882812 -7.117188 1.84375 -7.953125 C 1.8125 -8.785156 1.785156 -9.539062 1.765625 -10.21875 C 1.742188 -10.90625 1.722656 -11.421875 1.703125 -11.765625 C 1.679688 -12.328125 1.632812 -12.90625 1.5625 -13.5 C 1.488281 -14.101562 1.453125 -14.691406 1.453125 -15.265625 C 1.453125 -15.648438 1.476562 -16.019531 1.53125 -16.375 C 1.59375 -16.757812 1.820312 -17.097656 2.21875 -17.390625 C 2.625 -17.691406 3.113281 -17.945312 3.6875 -18.15625 C 4.257812 -18.375 4.828125 -18.539062 5.390625 -18.65625 C 5.960938 -18.769531 6.453125 -18.835938 6.859375 -18.859375 C 7.929688 -18.859375 8.953125 -18.65625 9.921875 -18.25 C 10.898438 -17.84375 11.785156 -17.285156 12.578125 -16.578125 C 13.367188 -15.878906 14.035156 -15.070312 14.578125 -14.15625 C 15.117188 -13.238281 15.484375 -12.257812 15.671875 -11.21875 C 15.921875 -9.96875 15.878906 -8.660156 15.546875 -7.296875 C 15.210938 -5.941406 14.578125 -4.691406 13.640625 -3.546875 C 12.703125 -2.410156 11.453125 -1.523438 9.890625 -0.890625 C 9.253906 -0.617188 8.585938 -0.414062 7.890625 -0.28125 C 7.203125 -0.15625 6.507812 -0.09375 5.8125 -0.09375 C 5.625 -0.09375 5.4375 -0.0976562 5.25 -0.109375 C 5.0625 -0.128906 4.875 -0.140625 4.6875 -0.140625 C 4.488281 -0.140625 4.304688 -0.113281 4.140625 -0.0625 C 3.984375 -0.0195312 3.800781 0 3.59375 0 Z M 6.078125 -3.1875 C 7.328125 -3.1875 8.445312 -3.488281 9.4375 -4.09375 C 10.4375 -4.695312 11.222656 -5.488281 11.796875 -6.46875 C 12.378906 -7.457031 12.671875 -8.507812 12.671875 -9.625 C 12.671875 -10.300781 12.546875 -10.984375 12.296875 -11.671875 C 12.054688 -12.359375 11.671875 -13.007812 11.140625 -13.625 C 10.503906 -14.375 9.816406 -14.90625 9.078125 -15.21875 C 8.347656 -15.539062 7.609375 -15.703125 6.859375 -15.703125 C 6.359375 -15.703125 5.867188 -15.628906 5.390625 -15.484375 C 4.921875 -15.335938 4.695312 -15.054688 4.71875 -14.640625 C 4.789062 -12.722656 4.863281 -10.8125 4.9375 -8.90625 C 5.019531 -7 5.097656 -5.097656 5.171875 -3.203125 Z M 6.078125 -3.1875 "/></g></g></g><g fill="#6b4423" fill-opacity="1"><g transform="translate(103.373093, 32.451146)"><g><path d="M 4.59375 -0.0625 C 3.34375 -0.226562 2.382812 -0.71875 1.71875 -1.53125 C 1.050781 -2.34375 0.71875 -3.226562 0.71875 -4.1875 C 0.71875 -5.039062 0.9375 -5.867188 1.375 -6.671875 C 1.820312 -7.484375 2.304688 -8.191406 2.828125 -8.796875 C 3.335938 -9.367188 3.882812 -9.875 4.46875 -10.3125 C 5.050781 -10.75 5.753906 -11.175781 6.578125 -11.59375 C 7.398438 -12.019531 8.398438 -12.503906 9.578125 -13.046875 C 9.378906 -13.722656 9.050781 -14.273438 8.59375 -14.703125 C 8.144531 -15.140625 7.65625 -15.425781 7.125 -15.5625 C 6.59375 -15.695312 6.09375 -15.648438 5.625 -15.421875 C 5.15625 -15.203125 4.796875 -14.765625 4.546875 -14.109375 C 4.441406 -13.859375 4.257812 -13.660156 4 -13.515625 C 3.738281 -13.367188 3.472656 -13.296875 3.203125 -13.296875 C 2.859375 -13.296875 2.523438 -13.421875 2.203125 -13.671875 C 1.890625 -13.929688 1.734375 -14.269531 1.734375 -14.6875 C 1.734375 -15.070312 1.835938 -15.457031 2.046875 -15.84375 C 2.265625 -16.226562 2.519531 -16.585938 2.8125 -16.921875 C 3.113281 -17.265625 3.390625 -17.523438 3.640625 -17.703125 C 4.085938 -18.023438 4.546875 -18.253906 5.015625 -18.390625 C 5.484375 -18.523438 5.960938 -18.59375 6.453125 -18.59375 C 7.359375 -18.59375 8.222656 -18.367188 9.046875 -17.921875 C 9.878906 -17.484375 10.601562 -16.894531 11.21875 -16.15625 C 11.832031 -15.414062 12.25 -14.582031 12.46875 -13.65625 C 12.625 -12.914062 12.707031 -12.296875 12.71875 -11.796875 C 12.738281 -11.296875 12.75 -10.851562 12.75 -10.46875 C 12.75 -9.238281 12.664062 -7.992188 12.5 -6.734375 C 12.34375 -5.484375 12.21875 -4.234375 12.125 -2.984375 C 12.101562 -2.597656 12.050781 -2.226562 11.96875 -1.875 C 11.894531 -1.53125 11.664062 -1.253906 11.28125 -1.046875 C 11.03125 -0.929688 10.835938 -0.878906 10.703125 -0.890625 C 10.566406 -0.910156 10.226562 -0.960938 9.6875 -1.046875 C 9.644531 -1.023438 9.59375 -1 9.53125 -0.96875 C 9.476562 -0.9375 9.425781 -0.90625 9.375 -0.875 C 8.488281 -0.5 7.65625 -0.25 6.875 -0.125 C 6.101562 0 5.34375 0.0195312 4.59375 -0.0625 Z M 5.53125 -2.953125 C 5.988281 -2.953125 6.441406 -3.015625 6.890625 -3.140625 C 7.347656 -3.265625 7.789062 -3.414062 8.21875 -3.59375 C 8.632812 -3.664062 8.875 -3.710938 8.9375 -3.734375 C 9 -3.753906 9.101562 -3.742188 9.25 -3.703125 C 9.332031 -4.742188 9.441406 -5.78125 9.578125 -6.8125 C 9.710938 -7.84375 9.785156 -8.878906 9.796875 -9.921875 C 9.085938 -9.578125 8.363281 -9.207031 7.625 -8.8125 C 6.894531 -8.414062 6.226562 -7.945312 5.625 -7.40625 C 5.019531 -6.863281 4.515625 -6.21875 4.109375 -5.46875 C 3.972656 -5.21875 3.863281 -4.957031 3.78125 -4.6875 C 3.707031 -4.414062 3.679688 -4.132812 3.703125 -3.84375 C 3.816406 -3.476562 4.015625 -3.25 4.296875 -3.15625 C 4.578125 -3.070312 4.988281 -3.003906 5.53125 -2.953125 Z M 5.53125 -2.953125 "/></g></g></g><g fill="#6b4423" fill-opacity="1"><g transform="translate(116.850769, 32.451146)"><g><path d="M 3.234375 6.890625 C 2.753906 6.890625 2.257812 6.8125 1.75 6.65625 C 1.238281 6.5 0.800781 6.265625 0.4375 5.953125 C 0.0820312 5.648438 -0.09375 5.285156 -0.09375 4.859375 C -0.09375 4.742188 -0.0703125 4.625 -0.03125 4.5 C 0.0078125 4.375 0.0507812 4.265625 0.09375 4.171875 C 0.351562 3.722656 0.695312 3.5 1.125 3.5 C 1.238281 3.5 1.492188 3.546875 1.890625 3.640625 C 2.285156 3.734375 2.820312 3.84375 3.5 3.96875 C 3.820312 3.925781 4.171875 3.820312 4.546875 3.65625 C 4.929688 3.488281 5.273438 3.28125 5.578125 3.03125 C 5.890625 2.78125 6.113281 2.539062 6.25 2.3125 C 6.457031 1.90625 6.691406 1.515625 6.953125 1.140625 C 7.210938 0.765625 7.441406 0.394531 7.640625 0.03125 L 8.328125 -1.46875 L 7.484375 -2.40625 L 2.984375 -9.203125 C 2.785156 -9.472656 2.613281 -9.75 2.46875 -10.03125 C 2.320312 -10.320312 2.25 -10.613281 2.25 -10.90625 C 2.25 -11.332031 2.410156 -11.65625 2.734375 -11.875 C 3.066406 -12.09375 3.359375 -12.203125 3.609375 -12.203125 C 4.171875 -12.203125 4.703125 -11.835938 5.203125 -11.109375 C 5.921875 -9.984375 6.644531 -8.867188 7.375 -7.765625 C 8.101562 -6.671875 8.835938 -5.578125 9.578125 -4.484375 C 9.847656 -5.296875 10.113281 -6.113281 10.375 -6.9375 C 10.644531 -7.769531 10.878906 -8.597656 11.078125 -9.421875 C 11.191406 -9.847656 11.296875 -10.273438 11.390625 -10.703125 C 11.492188 -11.140625 11.648438 -11.507812 11.859375 -11.8125 C 12.066406 -12.113281 12.394531 -12.265625 12.84375 -12.265625 C 12.914062 -12.265625 12.984375 -12.257812 13.046875 -12.25 C 13.117188 -12.238281 13.195312 -12.222656 13.28125 -12.203125 C 13.945312 -12.023438 14.28125 -11.546875 14.28125 -10.765625 C 14.28125 -10.390625 14.234375 -10.007812 14.140625 -9.625 C 14.046875 -9.238281 13.957031 -8.910156 13.875 -8.640625 C 13.707031 -7.953125 13.460938 -7.066406 13.140625 -5.984375 C 12.828125 -4.910156 12.4375 -3.753906 11.96875 -2.515625 C 11.507812 -1.285156 10.988281 -0.0976562 10.40625 1.046875 C 9.832031 2.203125 9.207031 3.203125 8.53125 4.046875 C 7.820312 4.929688 7.003906 5.625 6.078125 6.125 C 5.148438 6.632812 4.203125 6.890625 3.234375 6.890625 Z M 3.234375 6.890625 "/></g></g></g><g fill="#6b4423" fill-opacity="1"><g transform="translate(131.774552, 32.451146)"><g/></g></g><g fill="#6b4423" fill-opacity="1"><g transform="translate(139.005084, 32.451146)"><g><path d="M 10.671875 -0.578125 C 9.835938 -0.148438 8.910156 0.0351562 7.890625 -0.015625 C 6.867188 -0.0664062 5.914062 -0.359375 5.03125 -0.890625 C 4.082031 -1.492188 3.347656 -2.234375 2.828125 -3.109375 C 2.304688 -3.984375 1.945312 -4.910156 1.75 -5.890625 C 1.550781 -6.878906 1.453125 -7.84375 1.453125 -8.78125 C 1.460938 -9.726562 1.507812 -10.570312 1.59375 -11.3125 C 1.6875 -12.25 1.890625 -13.191406 2.203125 -14.140625 C 2.523438 -15.085938 2.957031 -15.957031 3.5 -16.75 C 4.039062 -17.539062 4.707031 -18.175781 5.5 -18.65625 C 6.289062 -19.132812 7.210938 -19.375 8.265625 -19.375 C 8.597656 -19.375 9.007812 -19.316406 9.5 -19.203125 C 9.988281 -19.085938 10.472656 -18.914062 10.953125 -18.6875 C 11.441406 -18.457031 11.84375 -18.160156 12.15625 -17.796875 C 12.476562 -17.441406 12.640625 -17.015625 12.640625 -16.515625 C 12.640625 -16.085938 12.488281 -15.710938 12.1875 -15.390625 C 11.894531 -15.078125 11.523438 -14.921875 11.078125 -14.921875 C 10.765625 -14.921875 10.515625 -14.988281 10.328125 -15.125 C 10.148438 -15.257812 9.914062 -15.5 9.625 -15.84375 C 9.488281 -16 9.304688 -16.109375 9.078125 -16.171875 C 8.847656 -16.242188 8.597656 -16.28125 8.328125 -16.28125 C 8.015625 -16.28125 7.695312 -16.234375 7.375 -16.140625 C 7.0625 -16.054688 6.832031 -15.941406 6.6875 -15.796875 C 5.914062 -15.078125 5.34375 -14.15625 4.96875 -13.03125 C 4.601562 -11.914062 4.421875 -10.765625 4.421875 -9.578125 C 4.421875 -8.609375 4.535156 -7.660156 4.765625 -6.734375 C 5.003906 -5.804688 5.34375 -5.007812 5.78125 -4.34375 C 6.03125 -3.96875 6.363281 -3.671875 6.78125 -3.453125 C 7.195312 -3.234375 7.632812 -3.125 8.09375 -3.125 C 8.832031 -3.125 9.46875 -3.394531 10 -3.9375 C 10.175781 -4.101562 10.382812 -4.300781 10.625 -4.53125 C 10.863281 -4.769531 11.160156 -4.890625 11.515625 -4.890625 C 11.742188 -4.890625 11.984375 -4.820312 12.234375 -4.6875 C 12.773438 -4.394531 13.046875 -4.007812 13.046875 -3.53125 C 13.046875 -3.144531 12.90625 -2.75 12.625 -2.34375 C 12.34375 -1.9375 12.019531 -1.570312 11.65625 -1.25 C 11.289062 -0.9375 10.960938 -0.710938 10.671875 -0.578125 Z M 10.671875 -0.578125 "/></g></g></g><g fill="#6b4423" fill-opacity="1"><g transform="translate(152.771987, 32.451146)"><g><path d="M 4.828125 -1.265625 C 4.828125 -0.847656 4.675781 -0.53125 4.375 -0.3125 C 4.082031 -0.101562 3.742188 -0.00390625 3.359375 -0.015625 C 2.972656 -0.0234375 2.628906 -0.148438 2.328125 -0.390625 C 2.023438 -0.628906 1.863281 -0.988281 1.84375 -1.46875 C 1.789062 -2.914062 1.738281 -4.363281 1.6875 -5.8125 C 1.644531 -7.257812 1.59375 -8.707031 1.53125 -10.15625 L 1.453125 -12.953125 C 1.429688 -13.335938 1.566406 -13.660156 1.859375 -13.921875 C 2.160156 -14.179688 2.492188 -14.3125 2.859375 -14.3125 C 3.421875 -14.3125 3.804688 -14.207031 4.015625 -14 C 4.234375 -13.800781 4.359375 -13.53125 4.390625 -13.1875 C 4.429688 -12.84375 4.460938 -12.457031 4.484375 -12.03125 C 4.710938 -12.207031 5.023438 -12.398438 5.421875 -12.609375 C 5.816406 -12.816406 6.234375 -13 6.671875 -13.15625 C 7.117188 -13.3125 7.546875 -13.390625 7.953125 -13.390625 C 8.492188 -13.390625 8.882812 -13.234375 9.125 -12.921875 C 9.363281 -12.617188 9.484375 -12.285156 9.484375 -11.921875 C 9.484375 -11.566406 9.351562 -11.300781 9.09375 -11.125 C 8.832031 -10.957031 8.53125 -10.820312 8.1875 -10.71875 C 7.84375 -10.625 7.535156 -10.519531 7.265625 -10.40625 C 6.753906 -10.238281 6.285156 -9.992188 5.859375 -9.671875 C 5.441406 -9.359375 5.0625 -9 4.71875 -8.59375 C 4.632812 -8.488281 4.570312 -8.34375 4.53125 -8.15625 C 4.5 -7.976562 4.484375 -7.785156 4.484375 -7.578125 C 4.484375 -7.171875 4.515625 -6.738281 4.578125 -6.28125 C 4.648438 -5.832031 4.695312 -5.484375 4.71875 -5.234375 C 4.738281 -4.578125 4.757812 -3.914062 4.78125 -3.25 C 4.8125 -2.582031 4.828125 -1.921875 4.828125 -1.265625 Z M 4.828125 -1.265625 "/></g></g></g><g fill="#6b4423" fill-opacity="1"><g transform="translate(162.981478, 32.451146)"><g><path d="M 6.109375 0 C 5.273438 0 4.476562 -0.164062 3.71875 -0.5 C 2.957031 -0.84375 2.289062 -1.328125 1.71875 -1.953125 C 1.15625 -2.578125 0.753906 -3.320312 0.515625 -4.1875 C 0.367188 -4.8125 0.296875 -5.441406 0.296875 -6.078125 C 0.296875 -7.035156 0.445312 -8 0.75 -8.96875 C 1.0625 -9.945312 1.515625 -10.828125 2.109375 -11.609375 C 2.710938 -12.390625 3.4375 -12.984375 4.28125 -13.390625 C 4.707031 -13.597656 5.132812 -13.742188 5.5625 -13.828125 C 6 -13.921875 6.441406 -13.96875 6.890625 -13.96875 C 7.390625 -13.96875 7.882812 -13.914062 8.375 -13.8125 C 8.863281 -13.707031 9.335938 -13.554688 9.796875 -13.359375 C 10.191406 -13.203125 10.554688 -13.007812 10.890625 -12.78125 C 11.222656 -12.550781 11.515625 -12.269531 11.765625 -11.9375 C 11.878906 -11.8125 12.003906 -11.59375 12.140625 -11.28125 C 12.273438 -10.96875 12.394531 -10.671875 12.5 -10.390625 C 12.613281 -10.117188 12.671875 -9.953125 12.671875 -9.890625 C 12.828125 -9.234375 12.90625 -8.609375 12.90625 -8.015625 C 12.90625 -7.023438 12.734375 -6.039062 12.390625 -5.0625 C 12.054688 -4.082031 11.570312 -3.195312 10.9375 -2.40625 C 10.3125 -1.613281 9.546875 -1.003906 8.640625 -0.578125 C 8.242188 -0.390625 7.832031 -0.242188 7.40625 -0.140625 C 6.976562 -0.046875 6.546875 0 6.109375 0 Z M 6.5 -2.953125 C 7.175781 -3.085938 7.75 -3.378906 8.21875 -3.828125 C 8.695312 -4.285156 9.078125 -4.828125 9.359375 -5.453125 C 9.640625 -6.078125 9.828125 -6.695312 9.921875 -7.3125 C 9.960938 -7.5625 9.988281 -7.863281 10 -8.21875 C 10.019531 -8.582031 9.972656 -8.800781 9.859375 -8.875 C 9.722656 -9.007812 9.613281 -9.164062 9.53125 -9.34375 C 9.445312 -9.53125 9.410156 -9.722656 9.421875 -9.921875 C 9.460938 -10.171875 9.34375 -10.367188 9.0625 -10.515625 C 8.78125 -10.660156 8.472656 -10.769531 8.140625 -10.84375 C 7.804688 -10.925781 7.550781 -10.972656 7.375 -10.984375 C 7.300781 -10.984375 7.234375 -10.988281 7.171875 -11 C 7.109375 -11.007812 7.039062 -11.015625 6.96875 -11.015625 C 6.289062 -11.015625 5.71875 -10.84375 5.25 -10.5 C 4.78125 -10.164062 4.394531 -9.726562 4.09375 -9.1875 C 3.789062 -8.65625 3.5625 -8.070312 3.40625 -7.4375 C 3.375 -7.238281 3.34375 -7.035156 3.3125 -6.828125 C 3.28125 -6.628906 3.265625 -6.425781 3.265625 -6.21875 C 3.265625 -5.601562 3.378906 -5.035156 3.609375 -4.515625 C 3.847656 -3.992188 4.207031 -3.585938 4.6875 -3.296875 C 5.164062 -3.003906 5.769531 -2.890625 6.5 -2.953125 Z M 6.5 -2.953125 "/></g></g></g><g fill="#6b4423" fill-opacity="1"><g transform="translate(176.603768, 32.451146)"><g><path d="M 7.34375 -0.0625 C 6.144531 -0.113281 5.054688 -0.453125 4.078125 -1.078125 C 3.109375 -1.710938 2.414062 -2.613281 2 -3.78125 C 1.800781 -4.289062 1.660156 -4.816406 1.578125 -5.359375 C 1.492188 -5.910156 1.453125 -6.46875 1.453125 -7.03125 C 1.453125 -8.257812 1.65625 -9.476562 2.0625 -10.6875 C 2.476562 -11.90625 3.09375 -12.984375 3.90625 -13.921875 C 4.71875 -14.859375 5.710938 -15.519531 6.890625 -15.90625 C 7.210938 -16 7.625 -16.046875 8.125 -16.046875 C 8.601562 -16.046875 9.097656 -15.992188 9.609375 -15.890625 C 10.128906 -15.785156 10.566406 -15.609375 10.921875 -15.359375 C 11.273438 -15.109375 11.453125 -14.78125 11.453125 -14.375 C 11.453125 -14.125 11.363281 -13.832031 11.1875 -13.5 C 11.050781 -13.25 10.898438 -13.078125 10.734375 -12.984375 C 10.578125 -12.890625 10.398438 -12.84375 10.203125 -12.84375 C 9.816406 -12.84375 9.5 -12.941406 9.25 -13.140625 C 9 -13.347656 8.710938 -13.453125 8.390625 -13.453125 C 8.035156 -13.453125 7.695312 -13.351562 7.375 -13.15625 C 6.71875 -12.832031 6.144531 -12.332031 5.65625 -11.65625 C 5.164062 -10.976562 4.785156 -10.21875 4.515625 -9.375 C 4.242188 -8.539062 4.109375 -7.71875 4.109375 -6.90625 C 4.109375 -5.425781 4.585938 -4.234375 5.546875 -3.328125 C 5.835938 -3.054688 6.257812 -2.890625 6.8125 -2.828125 C 7.363281 -2.773438 7.925781 -2.765625 8.5 -2.796875 C 9.082031 -2.835938 9.554688 -2.878906 9.921875 -2.921875 C 10.347656 -2.960938 10.675781 -2.832031 10.90625 -2.53125 C 11.132812 -2.226562 11.25 -1.882812 11.25 -1.5 C 11.25 -1.15625 11.132812 -0.847656 10.90625 -0.578125 C 10.632812 -0.328125 10.253906 -0.160156 9.765625 -0.078125 C 9.285156 -0.00390625 8.816406 0.0195312 8.359375 0 C 7.910156 -0.0195312 7.570312 -0.0390625 7.34375 -0.0625 Z M 7.34375 -0.0625 "/></g></g></g><g fill="#6b4423" fill-opacity="1"><g transform="translate(188.779951, 32.451146)"><g><path d="M 11.921875 0 C 11.378906 0 11.003906 -0.1875 10.796875 -0.5625 C 10.597656 -0.9375 10.5 -1.382812 10.5 -1.90625 C 10.5 -2.425781 10.503906 -2.835938 10.515625 -3.140625 C 10.523438 -3.441406 10.535156 -3.710938 10.546875 -3.953125 C 10.566406 -4.191406 10.578125 -4.46875 10.578125 -4.78125 C 10.578125 -5.101562 10.570312 -5.550781 10.5625 -6.125 L 10.46875 -8.4375 C 10.394531 -9.0625 10.3125 -9.539062 10.21875 -9.875 C 10.132812 -10.21875 10.023438 -10.460938 9.890625 -10.609375 C 9.703125 -10.785156 9.5 -10.988281 9.28125 -11.21875 C 9.070312 -11.445312 8.859375 -11.582031 8.640625 -11.625 L 7.4375 -11.921875 C 7.070312 -11.921875 6.675781 -11.789062 6.25 -11.53125 C 5.820312 -11.269531 5.484375 -11.003906 5.234375 -10.734375 C 4.921875 -10.398438 4.722656 -10.003906 4.640625 -9.546875 C 4.554688 -9.097656 4.515625 -8.644531 4.515625 -8.1875 C 4.515625 -7.375 4.566406 -6.484375 4.671875 -5.515625 C 4.773438 -4.554688 4.828125 -3.738281 4.828125 -3.0625 C 4.828125 -2.65625 4.796875 -2.253906 4.734375 -1.859375 C 4.679688 -1.460938 4.570312 -1.132812 4.40625 -0.875 C 4.25 -0.613281 4.003906 -0.484375 3.671875 -0.484375 C 3.460938 -0.484375 3.203125 -0.5625 2.890625 -0.71875 C 2.566406 -0.894531 2.347656 -1.144531 2.234375 -1.46875 C 2.128906 -1.800781 2.078125 -2.15625 2.078125 -2.53125 C 2.078125 -2.90625 2.066406 -3.25 2.046875 -3.5625 L 1.96875 -6.109375 L 1.453125 -20.828125 C 1.453125 -21.191406 1.554688 -21.484375 1.765625 -21.703125 C 1.972656 -21.921875 2.210938 -22.066406 2.484375 -22.140625 C 2.753906 -22.222656 2.96875 -22.238281 3.125 -22.1875 C 3.5625 -22.082031 3.84375 -21.847656 3.96875 -21.484375 C 4.101562 -21.117188 4.175781 -20.742188 4.1875 -20.359375 C 4.226562 -19.242188 4.269531 -18.125 4.3125 -17 C 4.363281 -15.882812 4.398438 -14.769531 4.421875 -13.65625 C 4.890625 -13.957031 5.382812 -14.179688 5.90625 -14.328125 C 6.425781 -14.472656 6.953125 -14.546875 7.484375 -14.546875 C 8.109375 -14.546875 8.726562 -14.441406 9.34375 -14.234375 C 9.957031 -14.035156 10.515625 -13.722656 11.015625 -13.296875 C 11.765625 -12.703125 12.296875 -12.003906 12.609375 -11.203125 C 12.921875 -10.398438 13.109375 -9.550781 13.171875 -8.65625 C 13.242188 -7.757812 13.285156 -6.867188 13.296875 -5.984375 L 13.296875 -3.203125 C 13.316406 -2.609375 13.332031 -2.171875 13.34375 -1.890625 C 13.351562 -1.609375 13.34375 -1.394531 13.3125 -1.25 C 13.289062 -1.113281 13.226562 -0.945312 13.125 -0.75 C 12.988281 -0.5 12.816406 -0.3125 12.609375 -0.1875 C 12.398438 -0.0625 12.171875 0 11.921875 0 Z M 11.921875 0 "/></g></g></g><g fill="#6b4423" fill-opacity="1"><g transform="translate(202.865015, 32.451146)"><g><path d="M 5.640625 -0.0625 C 4.710938 -0.0625 3.941406 -0.328125 3.328125 -0.859375 C 2.710938 -1.390625 2.210938 -2.070312 1.828125 -2.90625 C 1.453125 -3.75 1.179688 -4.65625 1.015625 -5.625 C 0.859375 -6.59375 0.78125 -7.523438 0.78125 -8.421875 C 0.78125 -9.015625 0.820312 -9.710938 0.90625 -10.515625 C 1 -11.316406 1.175781 -12.148438 1.4375 -13.015625 C 1.707031 -13.878906 2.113281 -14.679688 2.65625 -15.421875 C 3.144531 -16.085938 3.738281 -16.648438 4.4375 -17.109375 C 5.144531 -17.578125 5.910156 -17.8125 6.734375 -17.8125 C 7.867188 -17.8125 8.789062 -17.453125 9.5 -16.734375 C 10.207031 -16.023438 10.6875 -15.171875 10.9375 -14.171875 C 11.03125 -13.847656 11.085938 -13.46875 11.109375 -13.03125 C 11.140625 -12.59375 11.15625 -12.179688 11.15625 -11.796875 C 11.15625 -11.410156 11.140625 -11.101562 11.109375 -10.875 C 11.046875 -10.46875 10.96875 -10.050781 10.875 -9.625 C 10.78125 -9.207031 10.507812 -8.921875 10.0625 -8.765625 C 9.582031 -8.566406 9.039062 -8.429688 8.4375 -8.359375 C 7.84375 -8.285156 7.273438 -8.195312 6.734375 -8.09375 C 6.179688 -8 5.628906 -7.875 5.078125 -7.71875 C 4.523438 -7.5625 4.046875 -7.546875 3.640625 -7.671875 C 3.660156 -7.378906 3.703125 -6.972656 3.765625 -6.453125 C 3.835938 -5.929688 3.945312 -5.398438 4.09375 -4.859375 C 4.238281 -4.316406 4.445312 -3.859375 4.71875 -3.484375 C 5 -3.109375 5.351562 -2.921875 5.78125 -2.921875 C 6.113281 -2.921875 6.476562 -3.050781 6.875 -3.3125 C 7.269531 -3.570312 7.660156 -3.890625 8.046875 -4.265625 C 8.429688 -4.640625 8.773438 -5 9.078125 -5.34375 C 9.367188 -5.695312 9.722656 -5.890625 10.140625 -5.921875 C 10.554688 -5.960938 10.914062 -5.832031 11.21875 -5.53125 C 11.488281 -5.238281 11.625 -4.925781 11.625 -4.59375 C 11.625 -4.207031 11.46875 -3.828125 11.15625 -3.453125 C 10.851562 -3.078125 10.566406 -2.742188 10.296875 -2.453125 C 9.679688 -1.859375 8.976562 -1.3125 8.1875 -0.8125 C 7.394531 -0.3125 6.546875 -0.0625 5.640625 -0.0625 Z M 3.734375 -10.4375 C 4.003906 -10.476562 4.347656 -10.535156 4.765625 -10.609375 C 5.191406 -10.691406 5.617188 -10.769531 6.046875 -10.84375 C 6.484375 -10.925781 6.863281 -11 7.1875 -11.0625 C 7.507812 -11.125 7.6875 -11.15625 7.71875 -11.15625 C 7.875 -11.195312 8.007812 -11.21875 8.125 -11.21875 C 8.238281 -11.21875 8.304688 -11.332031 8.328125 -11.5625 C 8.328125 -11.914062 8.332031 -12.125 8.34375 -12.1875 C 8.351562 -12.257812 8.359375 -12.328125 8.359375 -12.390625 C 8.359375 -12.460938 8.335938 -12.660156 8.296875 -12.984375 C 8.085938 -14.179688 7.710938 -14.816406 7.171875 -14.890625 C 6.628906 -14.972656 5.925781 -14.65625 5.0625 -13.9375 L 4.953125 -13.796875 C 4.617188 -13.296875 4.351562 -12.757812 4.15625 -12.1875 C 3.96875 -11.625 3.828125 -11.039062 3.734375 -10.4375 Z M 3.734375 -10.4375 "/></g></g></g><g clip-path="url(#2d3104b757)"><g fill="#6b4423" fill-opacity="1"><g transform="translate(215.272586, 32.451146)"><g><path d="M 6.828125 -0.171875 C 6.578125 -0.0351562 6.269531 0.015625 5.90625 -0.015625 C 5.550781 -0.046875 5.269531 -0.1875 5.0625 -0.4375 C 4.851562 -0.6875 4.722656 -1.03125 4.671875 -1.46875 C 4.617188 -1.914062 4.601562 -2.375 4.625 -2.84375 C 4.644531 -3.320312 4.644531 -3.695312 4.625 -3.96875 C 4.601562 -4.351562 4.578125 -4.847656 4.546875 -5.453125 C 4.523438 -6.054688 4.5 -6.695312 4.46875 -7.375 C 4.4375 -8.050781 4.410156 -8.691406 4.390625 -9.296875 C 4.378906 -9.898438 4.375 -10.394531 4.375 -10.78125 C 4.132812 -10.769531 3.859375 -10.742188 3.546875 -10.703125 C 3.242188 -10.660156 2.929688 -10.640625 2.609375 -10.640625 C 2.117188 -10.640625 1.679688 -10.726562 1.296875 -10.90625 C 0.910156 -11.09375 0.71875 -11.457031 0.71875 -12 C 0.71875 -12.40625 0.832031 -12.742188 1.0625 -13.015625 C 1.300781 -13.285156 1.601562 -13.441406 1.96875 -13.484375 L 3.984375 -13.65625 C 4.335938 -13.6875 4.507812 -13.84375 4.5 -14.125 C 4.488281 -14.40625 4.492188 -14.691406 4.515625 -14.984375 C 4.546875 -15.253906 4.582031 -15.625 4.625 -16.09375 C 4.664062 -16.5625 4.742188 -17.039062 4.859375 -17.53125 C 4.972656 -18.03125 5.144531 -18.445312 5.375 -18.78125 C 5.601562 -19.125 5.914062 -19.296875 6.3125 -19.296875 C 6.675781 -19.296875 7.046875 -19.128906 7.421875 -18.796875 C 7.796875 -18.472656 7.953125 -18.050781 7.890625 -17.53125 C 7.816406 -16.925781 7.703125 -16.328125 7.546875 -15.734375 C 7.390625 -15.148438 7.285156 -14.550781 7.234375 -13.9375 L 8.59375 -14.078125 C 9.050781 -14.117188 9.425781 -13.96875 9.71875 -13.625 C 10.007812 -13.28125 10.15625 -12.90625 10.15625 -12.5 C 10.15625 -12.257812 10.09375 -12.03125 9.96875 -11.8125 C 9.84375 -11.59375 9.644531 -11.425781 9.375 -11.3125 C 9.125 -11.207031 8.835938 -11.148438 8.515625 -11.140625 C 8.203125 -11.140625 7.898438 -11.128906 7.609375 -11.109375 C 7.410156 -11.085938 7.28125 -11.046875 7.21875 -10.984375 C 7.164062 -10.929688 7.140625 -10.859375 7.140625 -10.765625 C 7.140625 -10.640625 7.144531 -10.539062 7.15625 -10.46875 C 7.164062 -10.394531 7.179688 -10.25 7.203125 -10.03125 C 7.222656 -9.820312 7.238281 -9.484375 7.25 -9.015625 C 7.257812 -8.554688 7.265625 -7.882812 7.265625 -7 C 7.265625 -6.5 7.296875 -5.890625 7.359375 -5.171875 C 7.429688 -4.460938 7.492188 -3.796875 7.546875 -3.171875 C 7.609375 -2.546875 7.640625 -2.085938 7.640625 -1.796875 C 7.640625 -1.460938 7.585938 -1.15625 7.484375 -0.875 C 7.390625 -0.601562 7.171875 -0.367188 6.828125 -0.171875 Z M 6.828125 -0.171875 "/></g></g></g></g><g fill="#ffb300" fill-opacity="1"><g transform="translate(0, 31.172961)"><g><path d="M 9.375 -0.0625 C 8.90625 0 8.335938 0.0078125 7.671875 -0.03125 C 7.015625 -0.0703125 6.316406 -0.1875 5.578125 -0.375 C 4.847656 -0.570312 4.144531 -0.851562 3.46875 -1.21875 C 3.101562 -1.425781 2.707031 -1.722656 2.28125 -2.109375 C 1.863281 -2.492188 1.5 -2.925781 1.1875 -3.40625 C 0.875 -3.894531 0.71875 -4.390625 0.71875 -4.890625 C 0.71875 -5.160156 0.773438 -5.421875 0.890625 -5.671875 C 1.066406 -6.097656 1.394531 -6.320312 1.875 -6.34375 C 2.363281 -6.375 2.769531 -6.273438 3.09375 -6.046875 C 3.363281 -5.847656 3.535156 -5.613281 3.609375 -5.34375 C 3.691406 -5.082031 3.773438 -4.820312 3.859375 -4.5625 C 3.941406 -4.300781 4.117188 -4.070312 4.390625 -3.875 C 4.953125 -3.53125 5.640625 -3.285156 6.453125 -3.140625 C 7.265625 -2.992188 8.066406 -2.984375 8.859375 -3.109375 C 9.660156 -3.234375 10.296875 -3.519531 10.765625 -3.96875 C 11.023438 -4.238281 11.234375 -4.570312 11.390625 -4.96875 C 11.546875 -5.375 11.625 -5.789062 11.625 -6.21875 C 11.625 -7.101562 11.335938 -7.738281 10.765625 -8.125 C 10.203125 -8.507812 9.46875 -8.828125 8.5625 -9.078125 C 6.925781 -9.523438 5.71875 -10.140625 4.9375 -10.921875 C 4.15625 -11.703125 3.835938 -12.804688 3.984375 -14.234375 C 4.140625 -15.421875 4.570312 -16.421875 5.28125 -17.234375 C 6 -18.046875 6.878906 -18.660156 7.921875 -19.078125 C 8.960938 -19.492188 10.035156 -19.703125 11.140625 -19.703125 C 11.753906 -19.703125 12.347656 -19.640625 12.921875 -19.515625 C 13.503906 -19.398438 14.054688 -19.21875 14.578125 -18.96875 C 14.847656 -18.851562 15.035156 -18.703125 15.140625 -18.515625 C 15.242188 -18.335938 15.296875 -18.144531 15.296875 -17.9375 C 15.296875 -17.5625 15.144531 -17.210938 14.84375 -16.890625 C 14.550781 -16.566406 14.179688 -16.40625 13.734375 -16.40625 C 13.328125 -16.40625 12.929688 -16.488281 12.546875 -16.65625 C 12.160156 -16.832031 11.773438 -16.941406 11.390625 -16.984375 C 10.984375 -17.015625 10.570312 -17 10.15625 -16.9375 C 9.75 -16.882812 9.363281 -16.769531 9 -16.59375 C 8.726562 -16.46875 8.414062 -16.222656 8.0625 -15.859375 C 7.71875 -15.503906 7.425781 -15.113281 7.1875 -14.6875 C 6.945312 -14.269531 6.828125 -13.867188 6.828125 -13.484375 C 6.828125 -13.035156 6.96875 -12.707031 7.25 -12.5 C 7.539062 -12.300781 7.878906 -12.164062 8.265625 -12.09375 C 8.648438 -12.03125 8.988281 -11.972656 9.28125 -11.921875 C 10.070312 -11.804688 10.84375 -11.59375 11.59375 -11.28125 C 12.34375 -10.96875 12.953125 -10.472656 13.421875 -9.796875 C 13.828125 -9.242188 14.113281 -8.609375 14.28125 -7.890625 C 14.457031 -7.179688 14.546875 -6.46875 14.546875 -5.75 C 14.546875 -5.195312 14.472656 -4.609375 14.328125 -3.984375 C 14.179688 -3.367188 13.921875 -2.789062 13.546875 -2.25 C 13.171875 -1.71875 12.644531 -1.253906 11.96875 -0.859375 C 11.300781 -0.460938 10.4375 -0.195312 9.375 -0.0625 Z M 9.375 -0.0625 "/></g></g></g><g fill="#ffb300" fill-opacity="1"><g transform="translate(16.022823, 31.172961)"><g><path d="M 4.25 0 C 4.039062 0 3.820312 -0.0546875 3.59375 -0.171875 C 3.28125 -0.367188 3.066406 -0.648438 2.953125 -1.015625 C 2.835938 -1.378906 2.769531 -1.765625 2.75 -2.171875 C 2.726562 -2.578125 2.6875 -2.929688 2.625 -3.234375 C 2.550781 -3.859375 2.457031 -4.625 2.34375 -5.53125 C 2.226562 -6.4375 2.113281 -7.40625 2 -8.4375 C 1.894531 -9.476562 1.789062 -10.507812 1.6875 -11.53125 C 1.582031 -12.5625 1.503906 -13.5 1.453125 -14.34375 C 1.429688 -14.726562 1.566406 -15.050781 1.859375 -15.3125 C 2.160156 -15.570312 2.492188 -15.703125 2.859375 -15.703125 C 3.265625 -15.703125 3.5625 -15.582031 3.75 -15.34375 C 3.945312 -15.101562 4.070312 -14.804688 4.125 -14.453125 C 4.1875 -14.109375 4.226562 -13.773438 4.25 -13.453125 C 4.925781 -14.066406 5.671875 -14.492188 6.484375 -14.734375 C 7.304688 -14.972656 8.113281 -14.992188 8.90625 -14.796875 C 9.695312 -14.609375 10.375 -14.148438 10.9375 -13.421875 C 11.570312 -14.035156 12.328125 -14.566406 13.203125 -15.015625 C 14.078125 -15.472656 14.96875 -15.703125 15.875 -15.703125 C 16.800781 -15.703125 17.519531 -15.472656 18.03125 -15.015625 C 18.539062 -14.566406 18.921875 -13.992188 19.171875 -13.296875 C 19.421875 -12.609375 19.613281 -11.914062 19.75 -11.21875 C 20.082031 -9.769531 20.257812 -8.300781 20.28125 -6.8125 C 20.3125 -5.332031 20.234375 -3.945312 20.046875 -2.65625 C 20.003906 -2.351562 19.9375 -2.015625 19.84375 -1.640625 C 19.757812 -1.273438 19.617188 -0.960938 19.421875 -0.703125 C 19.222656 -0.441406 18.921875 -0.3125 18.515625 -0.3125 C 18.453125 -0.3125 18.382812 -0.316406 18.3125 -0.328125 C 18.25 -0.335938 18.179688 -0.351562 18.109375 -0.375 C 17.742188 -0.46875 17.492188 -0.632812 17.359375 -0.875 C 17.234375 -1.125 17.171875 -1.398438 17.171875 -1.703125 C 17.171875 -1.921875 17.191406 -2.128906 17.234375 -2.328125 C 17.273438 -2.523438 17.304688 -2.710938 17.328125 -2.890625 C 17.492188 -3.972656 17.570312 -5.128906 17.5625 -6.359375 C 17.5625 -7.597656 17.453125 -8.773438 17.234375 -9.890625 C 17.160156 -10.347656 17.066406 -10.851562 16.953125 -11.40625 C 16.847656 -11.957031 16.664062 -12.4375 16.40625 -12.84375 L 16.015625 -12.953125 C 15.941406 -12.953125 15.851562 -12.945312 15.75 -12.9375 C 15.644531 -12.925781 15.550781 -12.921875 15.46875 -12.921875 C 15.125 -12.921875 14.757812 -12.820312 14.375 -12.625 C 13.988281 -12.425781 13.628906 -12.191406 13.296875 -11.921875 C 12.972656 -11.648438 12.710938 -11.398438 12.515625 -11.171875 C 12.328125 -10.953125 12.242188 -10.832031 12.265625 -10.8125 C 12.265625 -10.582031 12.328125 -10.289062 12.453125 -9.9375 C 12.578125 -9.59375 12.703125 -9.238281 12.828125 -8.875 C 12.953125 -8.507812 13.015625 -8.179688 13.015625 -7.890625 C 13.015625 -7.429688 12.867188 -7.082031 12.578125 -6.84375 C 12.285156 -6.601562 11.976562 -6.484375 11.65625 -6.484375 C 11.40625 -6.484375 11.164062 -6.546875 10.9375 -6.671875 C 10.71875 -6.796875 10.550781 -6.984375 10.4375 -7.234375 C 10.269531 -7.554688 10.15625 -7.925781 10.09375 -8.34375 C 10.03125 -8.757812 9.941406 -9.148438 9.828125 -9.515625 C 9.640625 -9.628906 9.488281 -9.796875 9.375 -10.015625 C 9.257812 -10.242188 9.203125 -10.472656 9.203125 -10.703125 C 9.203125 -11.023438 9.082031 -11.34375 8.84375 -11.65625 C 8.613281 -11.976562 8.304688 -12.191406 7.921875 -12.296875 C 7.628906 -12.367188 7.296875 -12.296875 6.921875 -12.078125 C 6.546875 -11.859375 6.1875 -11.5625 5.84375 -11.1875 C 5.5 -10.820312 5.210938 -10.453125 4.984375 -10.078125 C 4.765625 -9.703125 4.65625 -9.398438 4.65625 -9.171875 C 4.769531 -8.285156 4.863281 -7.40625 4.9375 -6.53125 C 5.019531 -5.664062 5.128906 -4.835938 5.265625 -4.046875 C 5.316406 -3.617188 5.382812 -3.175781 5.46875 -2.71875 C 5.5625 -2.257812 5.609375 -1.804688 5.609375 -1.359375 C 5.609375 -0.972656 5.472656 -0.648438 5.203125 -0.390625 C 4.929688 -0.128906 4.613281 0 4.25 0 Z M 4.25 0 "/></g></g></g><g fill="#ffb300" fill-opacity="1"><g transform="translate(37.049164, 31.172961)"><g><path d="M 3.53125 -16.015625 C 3.300781 -16.015625 3.066406 -16.078125 2.828125 -16.203125 C 2.578125 -16.347656 2.398438 -16.519531 2.296875 -16.71875 C 2.191406 -16.925781 2.140625 -17.140625 2.140625 -17.359375 C 2.140625 -17.742188 2.28125 -18.09375 2.5625 -18.40625 C 2.84375 -18.726562 3.175781 -18.890625 3.5625 -18.890625 C 3.789062 -18.890625 4.019531 -18.832031 4.25 -18.71875 C 4.5 -18.582031 4.675781 -18.40625 4.78125 -18.1875 C 4.894531 -17.976562 4.953125 -17.769531 4.953125 -17.5625 C 4.953125 -17.175781 4.8125 -16.820312 4.53125 -16.5 C 4.25 -16.175781 3.914062 -16.015625 3.53125 -16.015625 Z M 2.859375 0 C 2.472656 0 2.144531 -0.132812 1.875 -0.40625 C 1.707031 -0.582031 1.59375 -0.800781 1.53125 -1.0625 C 1.476562 -1.332031 1.453125 -1.613281 1.453125 -1.90625 C 1.453125 -2.195312 1.460938 -2.484375 1.484375 -2.765625 C 1.515625 -3.046875 1.53125 -3.28125 1.53125 -3.46875 C 1.53125 -4.820312 1.535156 -6.285156 1.546875 -7.859375 C 1.554688 -9.441406 1.570312 -10.910156 1.59375 -12.265625 C 1.613281 -12.691406 1.773438 -13.035156 2.078125 -13.296875 C 2.390625 -13.554688 2.738281 -13.6875 3.125 -13.6875 C 3.507812 -13.6875 3.835938 -13.550781 4.109375 -13.28125 C 4.285156 -13.101562 4.398438 -12.878906 4.453125 -12.609375 C 4.515625 -12.335938 4.546875 -12.054688 4.546875 -11.765625 C 4.546875 -11.484375 4.53125 -11.207031 4.5 -10.9375 C 4.46875 -10.664062 4.453125 -10.421875 4.453125 -10.203125 C 4.429688 -8.859375 4.425781 -7.394531 4.4375 -5.8125 C 4.445312 -4.226562 4.429688 -2.765625 4.390625 -1.421875 C 4.378906 -0.992188 4.21875 -0.648438 3.90625 -0.390625 C 3.59375 -0.128906 3.242188 0 2.859375 0 Z M 2.859375 0 "/></g></g></g><g fill="#ffb300" fill-opacity="1"><g transform="translate(42.717882, 31.172961)"><g><path d="M 5.71875 -0.0625 C 5.394531 -0.0625 5.078125 -0.109375 4.765625 -0.203125 C 4.460938 -0.296875 4.203125 -0.390625 3.984375 -0.484375 C 3.078125 -0.953125 2.460938 -1.597656 2.140625 -2.421875 C 1.828125 -3.253906 1.65625 -4.066406 1.625 -4.859375 C 1.539062 -6.222656 1.488281 -7.59375 1.46875 -8.96875 C 1.457031 -10.351562 1.453125 -11.734375 1.453125 -13.109375 L 1.453125 -18.078125 C 1.453125 -18.484375 1.472656 -18.910156 1.515625 -19.359375 C 1.566406 -19.816406 1.675781 -20.207031 1.84375 -20.53125 C 2.019531 -20.863281 2.289062 -21.03125 2.65625 -21.03125 C 3.332031 -21.03125 3.847656 -20.769531 4.203125 -20.25 C 4.566406 -19.726562 4.75 -19.140625 4.75 -18.484375 C 4.75 -18.015625 4.722656 -17.554688 4.671875 -17.109375 C 4.617188 -16.671875 4.59375 -16.300781 4.59375 -16 C 4.59375 -15.226562 4.585938 -14.453125 4.578125 -13.671875 C 4.566406 -12.890625 4.5625 -12.101562 4.5625 -11.3125 C 4.5625 -9.820312 4.585938 -8.5 4.640625 -7.34375 C 4.691406 -6.1875 4.75 -5.285156 4.8125 -4.640625 C 4.882812 -3.992188 4.9375 -3.671875 4.96875 -3.671875 C 4.988281 -3.671875 5.015625 -3.628906 5.046875 -3.546875 C 5.078125 -3.472656 5.070312 -3.492188 5.03125 -3.609375 C 5.1875 -3.335938 5.382812 -3.171875 5.625 -3.109375 C 5.863281 -3.046875 6.113281 -3 6.375 -2.96875 C 6.632812 -2.9375 6.863281 -2.867188 7.0625 -2.765625 C 7.269531 -2.660156 7.394531 -2.421875 7.4375 -2.046875 C 7.46875 -1.796875 7.488281 -1.617188 7.5 -1.515625 C 7.507812 -1.410156 7.515625 -1.320312 7.515625 -1.25 C 7.515625 -0.820312 7.332031 -0.515625 6.96875 -0.328125 C 6.601562 -0.148438 6.1875 -0.0625 5.71875 -0.0625 Z M 5.71875 -0.0625 "/></g></g></g><g fill="#ffb300" fill-opacity="1"><g transform="translate(50.96068, 31.172961)"><g><path d="M 5.640625 -0.0625 C 4.710938 -0.0625 3.941406 -0.328125 3.328125 -0.859375 C 2.710938 -1.390625 2.210938 -2.070312 1.828125 -2.90625 C 1.453125 -3.75 1.179688 -4.65625 1.015625 -5.625 C 0.859375 -6.59375 0.78125 -7.523438 0.78125 -8.421875 C 0.78125 -9.015625 0.820312 -9.710938 0.90625 -10.515625 C 1 -11.316406 1.175781 -12.148438 1.4375 -13.015625 C 1.707031 -13.878906 2.113281 -14.679688 2.65625 -15.421875 C 3.144531 -16.085938 3.738281 -16.648438 4.4375 -17.109375 C 5.144531 -17.578125 5.910156 -17.8125 6.734375 -17.8125 C 7.867188 -17.8125 8.789062 -17.453125 9.5 -16.734375 C 10.207031 -16.023438 10.6875 -15.171875 10.9375 -14.171875 C 11.03125 -13.847656 11.085938 -13.46875 11.109375 -13.03125 C 11.140625 -12.59375 11.15625 -12.179688 11.15625 -11.796875 C 11.15625 -11.410156 11.140625 -11.101562 11.109375 -10.875 C 11.046875 -10.46875 10.96875 -10.050781 10.875 -9.625 C 10.78125 -9.207031 10.507812 -8.921875 10.0625 -8.765625 C 9.582031 -8.566406 9.039062 -8.429688 8.4375 -8.359375 C 7.84375 -8.285156 7.273438 -8.195312 6.734375 -8.09375 C 6.179688 -8 5.628906 -7.875 5.078125 -7.71875 C 4.523438 -7.5625 4.046875 -7.546875 3.640625 -7.671875 C 3.660156 -7.378906 3.703125 -6.972656 3.765625 -6.453125 C 3.835938 -5.929688 3.945312 -5.398438 4.09375 -4.859375 C 4.238281 -4.316406 4.445312 -3.859375 4.71875 -3.484375 C 5 -3.109375 5.351562 -2.921875 5.78125 -2.921875 C 6.113281 -2.921875 6.476562 -3.050781 6.875 -3.3125 C 7.269531 -3.570312 7.660156 -3.890625 8.046875 -4.265625 C 8.429688 -4.640625 8.773438 -5 9.078125 -5.34375 C 9.367188 -5.695312 9.722656 -5.890625 10.140625 -5.921875 C 10.554688 -5.960938 10.914062 -5.832031 11.21875 -5.53125 C 11.488281 -5.238281 11.625 -4.925781 11.625 -4.59375 C 11.625 -4.207031 11.46875 -3.828125 11.15625 -3.453125 C 10.851562 -3.078125 10.566406 -2.742188 10.296875 -2.453125 C 9.679688 -1.859375 8.976562 -1.3125 8.1875 -0.8125 C 7.394531 -0.3125 6.546875 -0.0625 5.640625 -0.0625 Z M 3.734375 -10.4375 C 4.003906 -10.476562 4.347656 -10.535156 4.765625 -10.609375 C 5.191406 -10.691406 5.617188 -10.769531 6.046875 -10.84375 C 6.484375 -10.925781 6.863281 -11 7.1875 -11.0625 C 7.507812 -11.125 7.6875 -11.15625 7.71875 -11.15625 C 7.875 -11.195312 8.007812 -11.21875 8.125 -11.21875 C 8.238281 -11.21875 8.304688 -11.332031 8.328125 -11.5625 C 8.328125 -11.914062 8.332031 -12.125 8.34375 -12.1875 C 8.351562 -12.257812 8.359375 -12.328125 8.359375 -12.390625 C 8.359375 -12.460938 8.335938 -12.660156 8.296875 -12.984375 C 8.085938 -14.179688 7.710938 -14.816406 7.171875 -14.890625 C 6.628906 -14.972656 5.925781 -14.65625 5.0625 -13.9375 L 4.953125 -13.796875 C 4.617188 -13.296875 4.351562 -12.757812 4.15625 -12.1875 C 3.96875 -11.625 3.828125 -11.039062 3.734375 -10.4375 Z M 3.734375 -10.4375 "/></g></g></g><g fill="#ffb300" fill-opacity="1"><g transform="translate(63.368251, 31.172961)"><g><path d="M 3.234375 6.890625 C 2.753906 6.890625 2.257812 6.8125 1.75 6.65625 C 1.238281 6.5 0.800781 6.265625 0.4375 5.953125 C 0.0820312 5.648438 -0.09375 5.285156 -0.09375 4.859375 C -0.09375 4.742188 -0.0703125 4.625 -0.03125 4.5 C 0.0078125 4.375 0.0507812 4.265625 0.09375 4.171875 C 0.351562 3.722656 0.695312 3.5 1.125 3.5 C 1.238281 3.5 1.492188 3.546875 1.890625 3.640625 C 2.285156 3.734375 2.820312 3.84375 3.5 3.96875 C 3.820312 3.925781 4.171875 3.820312 4.546875 3.65625 C 4.929688 3.488281 5.273438 3.28125 5.578125 3.03125 C 5.890625 2.78125 6.113281 2.539062 6.25 2.3125 C 6.457031 1.90625 6.691406 1.515625 6.953125 1.140625 C 7.210938 0.765625 7.441406 0.394531 7.640625 0.03125 L 8.328125 -1.46875 L 7.484375 -2.40625 L 2.984375 -9.203125 C 2.785156 -9.472656 2.613281 -9.75 2.46875 -10.03125 C 2.320312 -10.320312 2.25 -10.613281 2.25 -10.90625 C 2.25 -11.332031 2.410156 -11.65625 2.734375 -11.875 C 3.066406 -12.09375 3.359375 -12.203125 3.609375 -12.203125 C 4.171875 -12.203125 4.703125 -11.835938 5.203125 -11.109375 C 5.921875 -9.984375 6.644531 -8.867188 7.375 -7.765625 C 8.101562 -6.671875 8.835938 -5.578125 9.578125 -4.484375 C 9.847656 -5.296875 10.113281 -6.113281 10.375 -6.9375 C 10.644531 -7.769531 10.878906 -8.597656 11.078125 -9.421875 C 11.191406 -9.847656 11.296875 -10.273438 11.390625 -10.703125 C 11.492188 -11.140625 11.648438 -11.507812 11.859375 -11.8125 C 12.066406 -12.113281 12.394531 -12.265625 12.84375 -12.265625 C 12.914062 -12.265625 12.984375 -12.257812 13.046875 -12.25 C 13.117188 -12.238281 13.195312 -12.222656 13.28125 -12.203125 C 13.945312 -12.023438 14.28125 -11.546875 14.28125 -10.765625 C 14.28125 -10.390625 14.234375 -10.007812 14.140625 -9.625 C 14.046875 -9.238281 13.957031 -8.910156 13.875 -8.640625 C 13.707031 -7.953125 13.460938 -7.066406 13.140625 -5.984375 C 12.828125 -4.910156 12.4375 -3.753906 11.96875 -2.515625 C 11.507812 -1.285156 10.988281 -0.0976562 10.40625 1.046875 C 9.832031 2.203125 9.207031 3.203125 8.53125 4.046875 C 7.820312 4.929688 7.003906 5.625 6.078125 6.125 C 5.148438 6.632812 4.203125 6.890625 3.234375 6.890625 Z M 3.234375 6.890625 "/></g></g></g><g fill="#ffb300" fill-opacity="1"><g transform="translate(78.292034, 31.172961)"><g/></g></g><g fill="#ffb300" fill-opacity="1"><g transform="translate(85.522566, 31.172961)"><g><path d="M 3.59375 0 C 3.03125 0 2.644531 -0.1875 2.4375 -0.5625 C 2.238281 -0.9375 2.128906 -1.363281 2.109375 -1.84375 C 2.085938 -2.132812 2.066406 -2.601562 2.046875 -3.25 C 2.035156 -3.894531 2.007812 -4.628906 1.96875 -5.453125 C 1.925781 -6.285156 1.882812 -7.117188 1.84375 -7.953125 C 1.8125 -8.785156 1.785156 -9.539062 1.765625 -10.21875 C 1.742188 -10.90625 1.722656 -11.421875 1.703125 -11.765625 C 1.679688 -12.328125 1.632812 -12.90625 1.5625 -13.5 C 1.488281 -14.101562 1.453125 -14.691406 1.453125 -15.265625 C 1.453125 -15.648438 1.476562 -16.019531 1.53125 -16.375 C 1.59375 -16.757812 1.820312 -17.097656 2.21875 -17.390625 C 2.625 -17.691406 3.113281 -17.945312 3.6875 -18.15625 C 4.257812 -18.375 4.828125 -18.539062 5.390625 -18.65625 C 5.960938 -18.769531 6.453125 -18.835938 6.859375 -18.859375 C 7.929688 -18.859375 8.953125 -18.65625 9.921875 -18.25 C 10.898438 -17.84375 11.785156 -17.285156 12.578125 -16.578125 C 13.367188 -15.878906 14.035156 -15.070312 14.578125 -14.15625 C 15.117188 -13.238281 15.484375 -12.257812 15.671875 -11.21875 C 15.921875 -9.96875 15.878906 -8.660156 15.546875 -7.296875 C 15.210938 -5.941406 14.578125 -4.691406 13.640625 -3.546875 C 12.703125 -2.410156 11.453125 -1.523438 9.890625 -0.890625 C 9.253906 -0.617188 8.585938 -0.414062 7.890625 -0.28125 C 7.203125 -0.15625 6.507812 -0.09375 5.8125 -0.09375 C 5.625 -0.09375 5.4375 -0.0976562 5.25 -0.109375 C 5.0625 -0.128906 4.875 -0.140625 4.6875 -0.140625 C 4.488281 -0.140625 4.304688 -0.113281 4.140625 -0.0625 C 3.984375 -0.0195312 3.800781 0 3.59375 0 Z M 6.078125 -3.1875 C 7.328125 -3.1875 8.445312 -3.488281 9.4375 -4.09375 C 10.4375 -4.695312 11.222656 -5.488281 11.796875 -6.46875 C 12.378906 -7.457031 12.671875 -8.507812 12.671875 -9.625 C 12.671875 -10.300781 12.546875 -10.984375 12.296875 -11.671875 C 12.054688 -12.359375 11.671875 -13.007812 11.140625 -13.625 C 10.503906 -14.375 9.816406 -14.90625 9.078125 -15.21875 C 8.347656 -15.539062 7.609375 -15.703125 6.859375 -15.703125 C 6.359375 -15.703125 5.867188 -15.628906 5.390625 -15.484375 C 4.921875 -15.335938 4.695312 -15.054688 4.71875 -14.640625 C 4.789062 -12.722656 4.863281 -10.8125 4.9375 -8.90625 C 5.019531 -7 5.097656 -5.097656 5.171875 -3.203125 Z M 6.078125 -3.1875 "/></g></g></g><g fill="#ffb300" fill-opacity="1"><g transform="translate(102.094908, 31.172961)"><g><path d="M 4.59375 -0.0625 C 3.34375 -0.226562 2.382812 -0.71875 1.71875 -1.53125 C 1.050781 -2.34375 0.71875 -3.226562 0.71875 -4.1875 C 0.71875 -5.039062 0.9375 -5.867188 1.375 -6.671875 C 1.820312 -7.484375 2.304688 -8.191406 2.828125 -8.796875 C 3.335938 -9.367188 3.882812 -9.875 4.46875 -10.3125 C 5.050781 -10.75 5.753906 -11.175781 6.578125 -11.59375 C 7.398438 -12.019531 8.398438 -12.503906 9.578125 -13.046875 C 9.378906 -13.722656 9.050781 -14.273438 8.59375 -14.703125 C 8.144531 -15.140625 7.65625 -15.425781 7.125 -15.5625 C 6.59375 -15.695312 6.09375 -15.648438 5.625 -15.421875 C 5.15625 -15.203125 4.796875 -14.765625 4.546875 -14.109375 C 4.441406 -13.859375 4.257812 -13.660156 4 -13.515625 C 3.738281 -13.367188 3.472656 -13.296875 3.203125 -13.296875 C 2.859375 -13.296875 2.523438 -13.421875 2.203125 -13.671875 C 1.890625 -13.929688 1.734375 -14.269531 1.734375 -14.6875 C 1.734375 -15.070312 1.835938 -15.457031 2.046875 -15.84375 C 2.265625 -16.226562 2.519531 -16.585938 2.8125 -16.921875 C 3.113281 -17.265625 3.390625 -17.523438 3.640625 -17.703125 C 4.085938 -18.023438 4.546875 -18.253906 5.015625 -18.390625 C 5.484375 -18.523438 5.960938 -18.59375 6.453125 -18.59375 C 7.359375 -18.59375 8.222656 -18.367188 9.046875 -17.921875 C 9.878906 -17.484375 10.601562 -16.894531 11.21875 -16.15625 C 11.832031 -15.414062 12.25 -14.582031 12.46875 -13.65625 C 12.625 -12.914062 12.707031 -12.296875 12.71875 -11.796875 C 12.738281 -11.296875 12.75 -10.851562 12.75 -10.46875 C 12.75 -9.238281 12.664062 -7.992188 12.5 -6.734375 C 12.34375 -5.484375 12.21875 -4.234375 12.125 -2.984375 C 12.101562 -2.597656 12.050781 -2.226562 11.96875 -1.875 C 11.894531 -1.53125 11.664062 -1.253906 11.28125 -1.046875 C 11.03125 -0.929688 10.835938 -0.878906 10.703125 -0.890625 C 10.566406 -0.910156 10.226562 -0.960938 9.6875 -1.046875 C 9.644531 -1.023438 9.59375 -1 9.53125 -0.96875 C 9.476562 -0.9375 9.425781 -0.90625 9.375 -0.875 C 8.488281 -0.5 7.65625 -0.25 6.875 -0.125 C 6.101562 0 5.34375 0.0195312 4.59375 -0.0625 Z M 5.53125 -2.953125 C 5.988281 -2.953125 6.441406 -3.015625 6.890625 -3.140625 C 7.347656 -3.265625 7.789062 -3.414062 8.21875 -3.59375 C 8.632812 -3.664062 8.875 -3.710938 8.9375 -3.734375 C 9 -3.753906 9.101562 -3.742188 9.25 -3.703125 C 9.332031 -4.742188 9.441406 -5.78125 9.578125 -6.8125 C 9.710938 -7.84375 9.785156 -8.878906 9.796875 -9.921875 C 9.085938 -9.578125 8.363281 -9.207031 7.625 -8.8125 C 6.894531 -8.414062 6.226562 -7.945312 5.625 -7.40625 C 5.019531 -6.863281 4.515625 -6.21875 4.109375 -5.46875 C 3.972656 -5.21875 3.863281 -4.957031 3.78125 -4.6875 C 3.707031 -4.414062 3.679688 -4.132812 3.703125 -3.84375 C 3.816406 -3.476562 4.015625 -3.25 4.296875 -3.15625 C 4.578125 -3.070312 4.988281 -3.003906 5.53125 -2.953125 Z M 5.53125 -2.953125 "/></g></g></g><g fill="#ffb300" fill-opacity="1"><g transform="translate(115.572585, 31.172961)"><g><path d="M 3.234375 6.890625 C 2.753906 6.890625 2.257812 6.8125 1.75 6.65625 C 1.238281 6.5 0.800781 6.265625 0.4375 5.953125 C 0.0820312 5.648438 -0.09375 5.285156 -0.09375 4.859375 C -0.09375 4.742188 -0.0703125 4.625 -0.03125 4.5 C 0.0078125 4.375 0.0507812 4.265625 0.09375 4.171875 C 0.351562 3.722656 0.695312 3.5 1.125 3.5 C 1.238281 3.5 1.492188 3.546875 1.890625 3.640625 C 2.285156 3.734375 2.820312 3.84375 3.5 3.96875 C 3.820312 3.925781 4.171875 3.820312 4.546875 3.65625 C 4.929688 3.488281 5.273438 3.28125 5.578125 3.03125 C 5.890625 2.78125 6.113281 2.539062 6.25 2.3125 C 6.457031 1.90625 6.691406 1.515625 6.953125 1.140625 C 7.210938 0.765625 7.441406 0.394531 7.640625 0.03125 L 8.328125 -1.46875 L 7.484375 -2.40625 L 2.984375 -9.203125 C 2.785156 -9.472656 2.613281 -9.75 2.46875 -10.03125 C 2.320312 -10.320312 2.25 -10.613281 2.25 -10.90625 C 2.25 -11.332031 2.410156 -11.65625 2.734375 -11.875 C 3.066406 -12.09375 3.359375 -12.203125 3.609375 -12.203125 C 4.171875 -12.203125 4.703125 -11.835938 5.203125 -11.109375 C 5.921875 -9.984375 6.644531 -8.867188 7.375 -7.765625 C 8.101562 -6.671875 8.835938 -5.578125 9.578125 -4.484375 C 9.847656 -5.296875 10.113281 -6.113281 10.375 -6.9375 C 10.644531 -7.769531 10.878906 -8.597656 11.078125 -9.421875 C 11.191406 -9.847656 11.296875 -10.273438 11.390625 -10.703125 C 11.492188 -11.140625 11.648438 -11.507812 11.859375 -11.8125 C 12.066406 -12.113281 12.394531 -12.265625 12.84375 -12.265625 C 12.914062 -12.265625 12.984375 -12.257812 13.046875 -12.25 C 13.117188 -12.238281 13.195312 -12.222656 13.28125 -12.203125 C 13.945312 -12.023438 14.28125 -11.546875 14.28125 -10.765625 C 14.28125 -10.390625 14.234375 -10.007812 14.140625 -9.625 C 14.046875 -9.238281 13.957031 -8.910156 13.875 -8.640625 C 13.707031 -7.953125 13.460938 -7.066406 13.140625 -5.984375 C 12.828125 -4.910156 12.4375 -3.753906 11.96875 -2.515625 C 11.507812 -1.285156 10.988281 -0.0976562 10.40625 1.046875 C 9.832031 2.203125 9.207031 3.203125 8.53125 4.046875 C 7.820312 4.929688 7.003906 5.625 6.078125 6.125 C 5.148438 6.632812 4.203125 6.890625 3.234375 6.890625 Z M 3.234375 6.890625 "/></g></g></g><g fill="#ffb300" fill-opacity="1"><g transform="translate(130.496367, 31.172961)"><g/></g></g><g fill="#ffb300" fill-opacity="1"><g transform="translate(137.7269, 31.172961)"><g><path d="M 10.671875 -0.578125 C 9.835938 -0.148438 8.910156 0.0351562 7.890625 -0.015625 C 6.867188 -0.0664062 5.914062 -0.359375 5.03125 -0.890625 C 4.082031 -1.492188 3.347656 -2.234375 2.828125 -3.109375 C 2.304688 -3.984375 1.945312 -4.910156 1.75 -5.890625 C 1.550781 -6.878906 1.453125 -7.84375 1.453125 -8.78125 C 1.460938 -9.726562 1.507812 -10.570312 1.59375 -11.3125 C 1.6875 -12.25 1.890625 -13.191406 2.203125 -14.140625 C 2.523438 -15.085938 2.957031 -15.957031 3.5 -16.75 C 4.039062 -17.539062 4.707031 -18.175781 5.5 -18.65625 C 6.289062 -19.132812 7.210938 -19.375 8.265625 -19.375 C 8.597656 -19.375 9.007812 -19.316406 9.5 -19.203125 C 9.988281 -19.085938 10.472656 -18.914062 10.953125 -18.6875 C 11.441406 -18.457031 11.84375 -18.160156 12.15625 -17.796875 C 12.476562 -17.441406 12.640625 -17.015625 12.640625 -16.515625 C 12.640625 -16.085938 12.488281 -15.710938 12.1875 -15.390625 C 11.894531 -15.078125 11.523438 -14.921875 11.078125 -14.921875 C 10.765625 -14.921875 10.515625 -14.988281 10.328125 -15.125 C 10.148438 -15.257812 9.914062 -15.5 9.625 -15.84375 C 9.488281 -16 9.304688 -16.109375 9.078125 -16.171875 C 8.847656 -16.242188 8.597656 -16.28125 8.328125 -16.28125 C 8.015625 -16.28125 7.695312 -16.234375 7.375 -16.140625 C 7.0625 -16.054688 6.832031 -15.941406 6.6875 -15.796875 C 5.914062 -15.078125 5.34375 -14.15625 4.96875 -13.03125 C 4.601562 -11.914062 4.421875 -10.765625 4.421875 -9.578125 C 4.421875 -8.609375 4.535156 -7.660156 4.765625 -6.734375 C 5.003906 -5.804688 5.34375 -5.007812 5.78125 -4.34375 C 6.03125 -3.96875 6.363281 -3.671875 6.78125 -3.453125 C 7.195312 -3.234375 7.632812 -3.125 8.09375 -3.125 C 8.832031 -3.125 9.46875 -3.394531 10 -3.9375 C 10.175781 -4.101562 10.382812 -4.300781 10.625 -4.53125 C 10.863281 -4.769531 11.160156 -4.890625 11.515625 -4.890625 C 11.742188 -4.890625 11.984375 -4.820312 12.234375 -4.6875 C 12.773438 -4.394531 13.046875 -4.007812 13.046875 -3.53125 C 13.046875 -3.144531 12.90625 -2.75 12.625 -2.34375 C 12.34375 -1.9375 12.019531 -1.570312 11.65625 -1.25 C 11.289062 -0.9375 10.960938 -0.710938 10.671875 -0.578125 Z M 10.671875 -0.578125 "/></g></g></g><g fill="#ffb300" fill-opacity="1"><g transform="translate(151.493803, 31.172961)"><g><path d="M 4.828125 -1.265625 C 4.828125 -0.847656 4.675781 -0.53125 4.375 -0.3125 C 4.082031 -0.101562 3.742188 -0.00390625 3.359375 -0.015625 C 2.972656 -0.0234375 2.628906 -0.148438 2.328125 -0.390625 C 2.023438 -0.628906 1.863281 -0.988281 1.84375 -1.46875 C 1.789062 -2.914062 1.738281 -4.363281 1.6875 -5.8125 C 1.644531 -7.257812 1.59375 -8.707031 1.53125 -10.15625 L 1.453125 -12.953125 C 1.429688 -13.335938 1.566406 -13.660156 1.859375 -13.921875 C 2.160156 -14.179688 2.492188 -14.3125 2.859375 -14.3125 C 3.421875 -14.3125 3.804688 -14.207031 4.015625 -14 C 4.234375 -13.800781 4.359375 -13.53125 4.390625 -13.1875 C 4.429688 -12.84375 4.460938 -12.457031 4.484375 -12.03125 C 4.710938 -12.207031 5.023438 -12.398438 5.421875 -12.609375 C 5.816406 -12.816406 6.234375 -13 6.671875 -13.15625 C 7.117188 -13.3125 7.546875 -13.390625 7.953125 -13.390625 C 8.492188 -13.390625 8.882812 -13.234375 9.125 -12.921875 C 9.363281 -12.617188 9.484375 -12.285156 9.484375 -11.921875 C 9.484375 -11.566406 9.351562 -11.300781 9.09375 -11.125 C 8.832031 -10.957031 8.53125 -10.820312 8.1875 -10.71875 C 7.84375 -10.625 7.535156 -10.519531 7.265625 -10.40625 C 6.753906 -10.238281 6.285156 -9.992188 5.859375 -9.671875 C 5.441406 -9.359375 5.0625 -9 4.71875 -8.59375 C 4.632812 -8.488281 4.570312 -8.34375 4.53125 -8.15625 C 4.5 -7.976562 4.484375 -7.785156 4.484375 -7.578125 C 4.484375 -7.171875 4.515625 -6.738281 4.578125 -6.28125 C 4.648438 -5.832031 4.695312 -5.484375 4.71875 -5.234375 C 4.738281 -4.578125 4.757812 -3.914062 4.78125 -3.25 C 4.8125 -2.582031 4.828125 -1.921875 4.828125 -1.265625 Z M 4.828125 -1.265625 "/></g></g></g><g fill="#ffb300" fill-opacity="1"><g transform="translate(161.703294, 31.172961)"><g><path d="M 6.109375 0 C 5.273438 0 4.476562 -0.164062 3.71875 -0.5 C 2.957031 -0.84375 2.289062 -1.328125 1.71875 -1.953125 C 1.15625 -2.578125 0.753906 -3.320312 0.515625 -4.1875 C 0.367188 -4.8125 0.296875 -5.441406 0.296875 -6.078125 C 0.296875 -7.035156 0.445312 -8 0.75 -8.96875 C 1.0625 -9.945312 1.515625 -10.828125 2.109375 -11.609375 C 2.710938 -12.390625 3.4375 -12.984375 4.28125 -13.390625 C 4.707031 -13.597656 5.132812 -13.742188 5.5625 -13.828125 C 6 -13.921875 6.441406 -13.96875 6.890625 -13.96875 C 7.390625 -13.96875 7.882812 -13.914062 8.375 -13.8125 C 8.863281 -13.707031 9.335938 -13.554688 9.796875 -13.359375 C 10.191406 -13.203125 10.554688 -13.007812 10.890625 -12.78125 C 11.222656 -12.550781 11.515625 -12.269531 11.765625 -11.9375 C 11.878906 -11.8125 12.003906 -11.59375 12.140625 -11.28125 C 12.273438 -10.96875 12.394531 -10.671875 12.5 -10.390625 C 12.613281 -10.117188 12.671875 -9.953125 12.671875 -9.890625 C 12.828125 -9.234375 12.90625 -8.609375 12.90625 -8.015625 C 12.90625 -7.023438 12.734375 -6.039062 12.390625 -5.0625 C 12.054688 -4.082031 11.570312 -3.195312 10.9375 -2.40625 C 10.3125 -1.613281 9.546875 -1.003906 8.640625 -0.578125 C 8.242188 -0.390625 7.832031 -0.242188 7.40625 -0.140625 C 6.976562 -0.046875 6.546875 0 6.109375 0 Z M 6.5 -2.953125 C 7.175781 -3.085938 7.75 -3.378906 8.21875 -3.828125 C 8.695312 -4.285156 9.078125 -4.828125 9.359375 -5.453125 C 9.640625 -6.078125 9.828125 -6.695312 9.921875 -7.3125 C 9.960938 -7.5625 9.988281 -7.863281 10 -8.21875 C 10.019531 -8.582031 9.972656 -8.800781 9.859375 -8.875 C 9.722656 -9.007812 9.613281 -9.164062 9.53125 -9.34375 C 9.445312 -9.53125 9.410156 -9.722656 9.421875 -9.921875 C 9.460938 -10.171875 9.34375 -10.367188 9.0625 -10.515625 C 8.78125 -10.660156 8.472656 -10.769531 8.140625 -10.84375 C 7.804688 -10.925781 7.550781 -10.972656 7.375 -10.984375 C 7.300781 -10.984375 7.234375 -10.988281 7.171875 -11 C 7.109375 -11.007812 7.039062 -11.015625 6.96875 -11.015625 C 6.289062 -11.015625 5.71875 -10.84375 5.25 -10.5 C 4.78125 -10.164062 4.394531 -9.726562 4.09375 -9.1875 C 3.789062 -8.65625 3.5625 -8.070312 3.40625 -7.4375 C 3.375 -7.238281 3.34375 -7.035156 3.3125 -6.828125 C 3.28125 -6.628906 3.265625 -6.425781 3.265625 -6.21875 C 3.265625 -5.601562 3.378906 -5.035156 3.609375 -4.515625 C 3.847656 -3.992188 4.207031 -3.585938 4.6875 -3.296875 C 5.164062 -3.003906 5.769531 -2.890625 6.5 -2.953125 Z M 6.5 -2.953125 "/></g></g></g><g fill="#ffb300" fill-opacity="1"><g transform="translate(175.325583, 31.172961)"><g><path d="M 7.34375 -0.0625 C 6.144531 -0.113281 5.054688 -0.453125 4.078125 -1.078125 C 3.109375 -1.710938 2.414062 -2.613281 2 -3.78125 C 1.800781 -4.289062 1.660156 -4.816406 1.578125 -5.359375 C 1.492188 -5.910156 1.453125 -6.46875 1.453125 -7.03125 C 1.453125 -8.257812 1.65625 -9.476562 2.0625 -10.6875 C 2.476562 -11.90625 3.09375 -12.984375 3.90625 -13.921875 C 4.71875 -14.859375 5.710938 -15.519531 6.890625 -15.90625 C 7.210938 -16 7.625 -16.046875 8.125 -16.046875 C 8.601562 -16.046875 9.097656 -15.992188 9.609375 -15.890625 C 10.128906 -15.785156 10.566406 -15.609375 10.921875 -15.359375 C 11.273438 -15.109375 11.453125 -14.78125 11.453125 -14.375 C 11.453125 -14.125 11.363281 -13.832031 11.1875 -13.5 C 11.050781 -13.25 10.898438 -13.078125 10.734375 -12.984375 C 10.578125 -12.890625 10.398438 -12.84375 10.203125 -12.84375 C 9.816406 -12.84375 9.5 -12.941406 9.25 -13.140625 C 9 -13.347656 8.710938 -13.453125 8.390625 -13.453125 C 8.035156 -13.453125 7.695312 -13.351562 7.375 -13.15625 C 6.71875 -12.832031 6.144531 -12.332031 5.65625 -11.65625 C 5.164062 -10.976562 4.785156 -10.21875 4.515625 -9.375 C 4.242188 -8.539062 4.109375 -7.71875 4.109375 -6.90625 C 4.109375 -5.425781 4.585938 -4.234375 5.546875 -3.328125 C 5.835938 -3.054688 6.257812 -2.890625 6.8125 -2.828125 C 7.363281 -2.773438 7.925781 -2.765625 8.5 -2.796875 C 9.082031 -2.835938 9.554688 -2.878906 9.921875 -2.921875 C 10.347656 -2.960938 10.675781 -2.832031 10.90625 -2.53125 C 11.132812 -2.226562 11.25 -1.882812 11.25 -1.5 C 11.25 -1.15625 11.132812 -0.847656 10.90625 -0.578125 C 10.632812 -0.328125 10.253906 -0.160156 9.765625 -0.078125 C 9.285156 -0.00390625 8.816406 0.0195312 8.359375 0 C 7.910156 -0.0195312 7.570312 -0.0390625 7.34375 -0.0625 Z M 7.34375 -0.0625 "/></g></g></g><g fill="#ffb300" fill-opacity="1"><g transform="translate(187.501767, 31.172961)"><g><path d="M 11.921875 0 C 11.378906 0 11.003906 -0.1875 10.796875 -0.5625 C 10.597656 -0.9375 10.5 -1.382812 10.5 -1.90625 C 10.5 -2.425781 10.503906 -2.835938 10.515625 -3.140625 C 10.523438 -3.441406 10.535156 -3.710938 10.546875 -3.953125 C 10.566406 -4.191406 10.578125 -4.46875 10.578125 -4.78125 C 10.578125 -5.101562 10.570312 -5.550781 10.5625 -6.125 L 10.46875 -8.4375 C 10.394531 -9.0625 10.3125 -9.539062 10.21875 -9.875 C 10.132812 -10.21875 10.023438 -10.460938 9.890625 -10.609375 C 9.703125 -10.785156 9.5 -10.988281 9.28125 -11.21875 C 9.070312 -11.445312 8.859375 -11.582031 8.640625 -11.625 L 7.4375 -11.921875 C 7.070312 -11.921875 6.675781 -11.789062 6.25 -11.53125 C 5.820312 -11.269531 5.484375 -11.003906 5.234375 -10.734375 C 4.921875 -10.398438 4.722656 -10.003906 4.640625 -9.546875 C 4.554688 -9.097656 4.515625 -8.644531 4.515625 -8.1875 C 4.515625 -7.375 4.566406 -6.484375 4.671875 -5.515625 C 4.773438 -4.554688 4.828125 -3.738281 4.828125 -3.0625 C 4.828125 -2.65625 4.796875 -2.253906 4.734375 -1.859375 C 4.679688 -1.460938 4.570312 -1.132812 4.40625 -0.875 C 4.25 -0.613281 4.003906 -0.484375 3.671875 -0.484375 C 3.460938 -0.484375 3.203125 -0.5625 2.890625 -0.71875 C 2.566406 -0.894531 2.347656 -1.144531 2.234375 -1.46875 C 2.128906 -1.800781 2.078125 -2.15625 2.078125 -2.53125 C 2.078125 -2.90625 2.066406 -3.25 2.046875 -3.5625 L 1.96875 -6.109375 L 1.453125 -20.828125 C 1.453125 -21.191406 1.554688 -21.484375 1.765625 -21.703125 C 1.972656 -21.921875 2.210938 -22.066406 2.484375 -22.140625 C 2.753906 -22.222656 2.96875 -22.238281 3.125 -22.1875 C 3.5625 -22.082031 3.84375 -21.847656 3.96875 -21.484375 C 4.101562 -21.117188 4.175781 -20.742188 4.1875 -20.359375 C 4.226562 -19.242188 4.269531 -18.125 4.3125 -17 C 4.363281 -15.882812 4.398438 -14.769531 4.421875 -13.65625 C 4.890625 -13.957031 5.382812 -14.179688 5.90625 -14.328125 C 6.425781 -14.472656 6.953125 -14.546875 7.484375 -14.546875 C 8.109375 -14.546875 8.726562 -14.441406 9.34375 -14.234375 C 9.957031 -14.035156 10.515625 -13.722656 11.015625 -13.296875 C 11.765625 -12.703125 12.296875 -12.003906 12.609375 -11.203125 C 12.921875 -10.398438 13.109375 -9.550781 13.171875 -8.65625 C 13.242188 -7.757812 13.285156 -6.867188 13.296875 -5.984375 L 13.296875 -3.203125 C 13.316406 -2.609375 13.332031 -2.171875 13.34375 -1.890625 C 13.351562 -1.609375 13.34375 -1.394531 13.3125 -1.25 C 13.289062 -1.113281 13.226562 -0.945312 13.125 -0.75 C 12.988281 -0.5 12.816406 -0.3125 12.609375 -0.1875 C 12.398438 -0.0625 12.171875 0 11.921875 0 Z M 11.921875 0 "/></g></g></g><g fill="#ffb300" fill-opacity="1"><g transform="translate(201.58683, 31.172961)"><g><path d="M 5.640625 -0.0625 C 4.710938 -0.0625 3.941406 -0.328125 3.328125 -0.859375 C 2.710938 -1.390625 2.210938 -2.070312 1.828125 -2.90625 C 1.453125 -3.75 1.179688 -4.65625 1.015625 -5.625 C 0.859375 -6.59375 0.78125 -7.523438 0.78125 -8.421875 C 0.78125 -9.015625 0.820312 -9.710938 0.90625 -10.515625 C 1 -11.316406 1.175781 -12.148438 1.4375 -13.015625 C 1.707031 -13.878906 2.113281 -14.679688 2.65625 -15.421875 C 3.144531 -16.085938 3.738281 -16.648438 4.4375 -17.109375 C 5.144531 -17.578125 5.910156 -17.8125 6.734375 -17.8125 C 7.867188 -17.8125 8.789062 -17.453125 9.5 -16.734375 C 10.207031 -16.023438 10.6875 -15.171875 10.9375 -14.171875 C 11.03125 -13.847656 11.085938 -13.46875 11.109375 -13.03125 C 11.140625 -12.59375 11.15625 -12.179688 11.15625 -11.796875 C 11.15625 -11.410156 11.140625 -11.101562 11.109375 -10.875 C 11.046875 -10.46875 10.96875 -10.050781 10.875 -9.625 C 10.78125 -9.207031 10.507812 -8.921875 10.0625 -8.765625 C 9.582031 -8.566406 9.039062 -8.429688 8.4375 -8.359375 C 7.84375 -8.285156 7.273438 -8.195312 6.734375 -8.09375 C 6.179688 -8 5.628906 -7.875 5.078125 -7.71875 C 4.523438 -7.5625 4.046875 -7.546875 3.640625 -7.671875 C 3.660156 -7.378906 3.703125 -6.972656 3.765625 -6.453125 C 3.835938 -5.929688 3.945312 -5.398438 4.09375 -4.859375 C 4.238281 -4.316406 4.445312 -3.859375 4.71875 -3.484375 C 5 -3.109375 5.351562 -2.921875 5.78125 -2.921875 C 6.113281 -2.921875 6.476562 -3.050781 6.875 -3.3125 C 7.269531 -3.570312 7.660156 -3.890625 8.046875 -4.265625 C 8.429688 -4.640625 8.773438 -5 9.078125 -5.34375 C 9.367188 -5.695312 9.722656 -5.890625 10.140625 -5.921875 C 10.554688 -5.960938 10.914062 -5.832031 11.21875 -5.53125 C 11.488281 -5.238281 11.625 -4.925781 11.625 -4.59375 C 11.625 -4.207031 11.46875 -3.828125 11.15625 -3.453125 C 10.851562 -3.078125 10.566406 -2.742188 10.296875 -2.453125 C 9.679688 -1.859375 8.976562 -1.3125 8.1875 -0.8125 C 7.394531 -0.3125 6.546875 -0.0625 5.640625 -0.0625 Z M 3.734375 -10.4375 C 4.003906 -10.476562 4.347656 -10.535156 4.765625 -10.609375 C 5.191406 -10.691406 5.617188 -10.769531 6.046875 -10.84375 C 6.484375 -10.925781 6.863281 -11 7.1875 -11.0625 C 7.507812 -11.125 7.6875 -11.15625 7.71875 -11.15625 C 7.875 -11.195312 8.007812 -11.21875 8.125 -11.21875 C 8.238281 -11.21875 8.304688 -11.332031 8.328125 -11.5625 C 8.328125 -11.914062 8.332031 -12.125 8.34375 -12.1875 C 8.351562 -12.257812 8.359375 -12.328125 8.359375 -12.390625 C 8.359375 -12.460938 8.335938 -12.660156 8.296875 -12.984375 C 8.085938 -14.179688 7.710938 -14.816406 7.171875 -14.890625 C 6.628906 -14.972656 5.925781 -14.65625 5.0625 -13.9375 L 4.953125 -13.796875 C 4.617188 -13.296875 4.351562 -12.757812 4.15625 -12.1875 C 3.96875 -11.625 3.828125 -11.039062 3.734375 -10.4375 Z M 3.734375 -10.4375 "/></g></g></g><g clip-path="url(#2caf571112)"><g fill="#ffb300" fill-opacity="1"><g transform="translate(213.994401, 31.172961)"><g><path d="M 6.828125 -0.171875 C 6.578125 -0.0351562 6.269531 0.015625 5.90625 -0.015625 C 5.550781 -0.046875 5.269531 -0.1875 5.0625 -0.4375 C 4.851562 -0.6875 4.722656 -1.03125 4.671875 -1.46875 C 4.617188 -1.914062 4.601562 -2.375 4.625 -2.84375 C 4.644531 -3.320312 4.644531 -3.695312 4.625 -3.96875 C 4.601562 -4.351562 4.578125 -4.847656 4.546875 -5.453125 C 4.523438 -6.054688 4.5 -6.695312 4.46875 -7.375 C 4.4375 -8.050781 4.410156 -8.691406 4.390625 -9.296875 C 4.378906 -9.898438 4.375 -10.394531 4.375 -10.78125 C 4.132812 -10.769531 3.859375 -10.742188 3.546875 -10.703125 C 3.242188 -10.660156 2.929688 -10.640625 2.609375 -10.640625 C 2.117188 -10.640625 1.679688 -10.726562 1.296875 -10.90625 C 0.910156 -11.09375 0.71875 -11.457031 0.71875 -12 C 0.71875 -12.40625 0.832031 -12.742188 1.0625 -13.015625 C 1.300781 -13.285156 1.601562 -13.441406 1.96875 -13.484375 L 3.984375 -13.65625 C 4.335938 -13.6875 4.507812 -13.84375 4.5 -14.125 C 4.488281 -14.40625 4.492188 -14.691406 4.515625 -14.984375 C 4.546875 -15.253906 4.582031 -15.625 4.625 -16.09375 C 4.664062 -16.5625 4.742188 -17.039062 4.859375 -17.53125 C 4.972656 -18.03125 5.144531 -18.445312 5.375 -18.78125 C 5.601562 -19.125 5.914062 -19.296875 6.3125 -19.296875 C 6.675781 -19.296875 7.046875 -19.128906 7.421875 -18.796875 C 7.796875 -18.472656 7.953125 -18.050781 7.890625 -17.53125 C 7.816406 -16.925781 7.703125 -16.328125 7.546875 -15.734375 C 7.390625 -15.148438 7.285156 -14.550781 7.234375 -13.9375 L 8.59375 -14.078125 C 9.050781 -14.117188 9.425781 -13.96875 9.71875 -13.625 C 10.007812 -13.28125 10.15625 -12.90625 10.15625 -12.5 C 10.15625 -12.257812 10.09375 -12.03125 9.96875 -11.8125 C 9.84375 -11.59375 9.644531 -11.425781 9.375 -11.3125 C 9.125 -11.207031 8.835938 -11.148438 8.515625 -11.140625 C 8.203125 -11.140625 7.898438 -11.128906 7.609375 -11.109375 C 7.410156 -11.085938 7.28125 -11.046875 7.21875 -10.984375 C 7.164062 -10.929688 7.140625 -10.859375 7.140625 -10.765625 C 7.140625 -10.640625 7.144531 -10.539062 7.15625 -10.46875 C 7.164062 -10.394531 7.179688 -10.25 7.203125 -10.03125 C 7.222656 -9.820312 7.238281 -9.484375 7.25 -9.015625 C 7.257812 -8.554688 7.265625 -7.882812 7.265625 -7 C 7.265625 -6.5 7.296875 -5.890625 7.359375 -5.171875 C 7.429688 -4.460938 7.492188 -3.796875 7.546875 -3.171875 C 7.609375 -2.546875 7.640625 -2.085938 7.640625 -1.796875 C 7.640625 -1.460938 7.585938 -1.15625 7.484375 -0.875 C 7.390625 -0.601562 7.171875 -0.367188 6.828125 -0.171875 Z M 6.828125 -0.171875 "/></g></g></g></g></g></g></g></svg>